<svg xmlns="http://www.w3.org/2000/svg" xmlns:xlink="http://www.w3.org/1999/xlink" width="300" zoomAndPan="magnify" viewBox="0 0 224.87999 225" height="300" preserveAspectRatio="xMidYMid meet" version="1.0"><defs><g/><clipPath id="cffe52c7d8"><path d="M 38 83.324219 L 102.5625 83.324219 L 102.5625 146.289062 L 38 146.289062 Z M 38 83.324219 " clip-rule="nonzero"/></clipPath><clipPath id="31f13c3deb"><path d="M 35.097656 83.324219 L 97 83.324219 L 97 146.289062 L 35.097656 146.289062 Z M 35.097656 83.324219 " clip-rule="nonzero"/></clipPath><clipPath id="7e5bff1782"><path d="M 35.097656 83.324219 L 102.5625 83.324219 L 102.5625 146.289062 L 35.097656 146.289062 Z M 35.097656 83.324219 " clip-rule="nonzero"/></clipPath></defs><g clip-path="url(#cffe52c7d8)"><path fill="#e85c0d" d="M 58.527344 140.078125 L 58.425781 139.957031 L 58.835938 139.382812 L 59.199219 139.527344 L 59.023438 140.75 L 58.730469 140.339844 C 58.667969 140.25 58.597656 140.160156 58.527344 140.078125 Z M 86.695312 140.339844 L 86.984375 140.75 L 87.164062 139.527344 L 86.800781 139.382812 L 86.386719 139.957031 L 86.492188 140.078125 C 86.5625 140.160156 86.628906 140.25 86.695312 140.339844 Z M 44.144531 84.265625 C 44.046875 84.242188 43.960938 84.222656 43.875 84.214844 L 38.523438 83.617188 L 39.046875 84.046875 C 39.578125 84.484375 39.882812 85.128906 39.882812 85.816406 C 39.882812 86.394531 39.664062 86.945312 39.265625 87.375 L 39.175781 87.46875 L 39.480469 88.167969 L 39.605469 88.171875 C 40.261719 88.195312 43.539062 88.304688 43.613281 88.308594 L 43.617188 88.308594 C 43.628906 88.308594 43.636719 88.304688 43.644531 88.304688 C 43.722656 88.304688 43.800781 88.296875 43.882812 88.289062 C 43.957031 88.277344 44.03125 88.265625 44.109375 88.246094 C 44.542969 88.136719 44.941406 87.882812 45.222656 87.53125 C 45.273438 87.46875 45.324219 87.394531 45.371094 87.316406 C 45.425781 87.226562 45.46875 87.144531 45.503906 87.0625 C 45.617188 86.804688 45.671875 86.53125 45.671875 86.25 C 45.671875 85.320312 45.042969 84.507812 44.144531 84.265625 Z M 90.15625 139.953125 L 88.945312 141.640625 L 88.996094 141.75 C 89.097656 141.96875 89.148438 142.203125 89.148438 142.445312 C 89.148438 143.363281 88.402344 144.113281 87.480469 144.113281 C 87.367188 144.113281 87.25 144.101562 87.140625 144.078125 L 86.992188 144.046875 L 86.921875 144.179688 C 86.664062 144.652344 86.300781 145.070312 85.867188 145.390625 L 85.597656 145.585938 L 85.898438 145.734375 C 86.394531 145.972656 86.925781 146.09375 87.480469 146.09375 C 89.492188 146.09375 91.128906 144.457031 91.128906 142.445312 C 91.128906 141.617188 90.84375 140.804688 90.324219 140.160156 Z M 62.191406 139.953125 L 60.984375 141.640625 L 61.03125 141.75 C 61.132812 141.96875 61.1875 142.203125 61.1875 142.445312 C 61.1875 143.363281 60.4375 144.113281 59.519531 144.113281 C 59.402344 144.113281 59.289062 144.101562 59.175781 144.078125 L 59.03125 144.046875 L 58.957031 144.179688 C 58.699219 144.652344 58.335938 145.070312 57.902344 145.390625 L 57.632812 145.585938 L 57.9375 145.734375 C 58.433594 145.972656 58.964844 146.09375 59.519531 146.09375 C 61.53125 146.09375 63.167969 144.457031 63.167969 142.445312 C 63.167969 141.617188 62.878906 140.804688 62.359375 140.160156 Z M 101.839844 95.855469 C 101.589844 95.667969 101.296875 95.5625 100.988281 95.542969 L 95.648438 95.230469 L 96.074219 95.617188 C 96.433594 95.941406 96.625 96.402344 96.597656 96.878906 C 96.570312 97.347656 96.335938 97.777344 95.957031 98.058594 L 95.507812 98.390625 L 100.804688 98.699219 C 100.832031 98.699219 100.859375 98.703125 100.882812 98.703125 C 100.929688 98.703125 100.972656 98.699219 101.019531 98.695312 C 101.105469 98.691406 101.1875 98.675781 101.261719 98.660156 C 101.347656 98.640625 101.433594 98.609375 101.519531 98.574219 C 102.074219 98.332031 102.441406 97.8125 102.476562 97.214844 C 102.503906 96.683594 102.269531 96.175781 101.839844 95.855469 Z M 101.839844 95.855469 " fill-opacity="1" fill-rule="nonzero"/></g><path fill="#145da0" d="M 55.28125 136.734375 L 57.65625 136.734375 L 57.65625 137.972656 L 55.28125 137.972656 Z M 56.238281 142.007812 L 56.125 141.597656 L 55.125 142.996094 C 54.992188 143.179688 54.792969 143.285156 54.570312 143.285156 C 54.480469 143.285156 54.394531 143.269531 54.304688 143.234375 C 54.003906 143.113281 53.832031 142.8125 53.878906 142.492188 L 54.128906 140.796875 L 53.761719 141.023438 C 53.261719 141.328125 52.960938 141.863281 52.960938 142.445312 C 52.960938 143.363281 53.710938 144.113281 54.628906 144.113281 C 55.140625 144.113281 55.617188 143.882812 55.9375 143.476562 C 56.003906 143.398438 56.058594 143.308594 56.105469 143.21875 L 56.117188 143.203125 L 56.117188 143.195312 C 56.195312 143.042969 56.25 142.875 56.277344 142.703125 L 56.28125 142.683594 C 56.292969 142.59375 56.296875 142.519531 56.296875 142.445312 C 56.296875 142.371094 56.292969 142.292969 56.277344 142.195312 C 56.269531 142.128906 56.253906 142.066406 56.238281 142.007812 Z M 61.015625 141.597656 L 60.015625 142.996094 C 59.882812 143.179688 59.679688 143.285156 59.46875 143.285156 L 59.308594 143.277344 L 59.261719 143.433594 C 59.222656 143.574219 59.179688 143.699219 59.128906 143.820312 L 59.03125 144.058594 L 59.289062 144.097656 C 59.375 144.109375 59.449219 144.113281 59.519531 144.113281 C 60.4375 144.113281 61.1875 143.363281 61.1875 142.445312 C 61.1875 142.300781 61.167969 142.152344 61.125 142.007812 Z M 54.820312 134.289062 L 56.753906 134.289062 L 56.496094 133.964844 C 56.394531 133.835938 56.304688 133.703125 56.230469 133.574219 C 55.660156 132.582031 55.660156 131.398438 56.230469 130.410156 L 59.574219 124.660156 L 57.746094 124.660156 L 54.863281 129.617188 C 54.046875 131.03125 54.007812 132.738281 54.765625 134.179688 Z M 45.09375 87.675781 C 44.839844 87.9375 44.519531 88.128906 44.167969 88.230469 L 43.945312 88.292969 L 45.222656 91.230469 L 46.945312 91.230469 L 45.304688 87.457031 Z M 88.976562 141.597656 L 87.976562 142.996094 C 87.847656 143.179688 87.648438 143.285156 87.429688 143.285156 L 87.265625 143.285156 L 87.226562 143.433594 C 87.1875 143.574219 87.140625 143.699219 87.09375 143.820312 L 86.996094 144.058594 L 87.25 144.097656 C 87.335938 144.109375 87.410156 144.113281 87.480469 144.113281 C 88.402344 144.113281 89.148438 143.363281 89.148438 142.445312 C 89.148438 142.300781 89.128906 142.152344 89.089844 142.007812 Z M 99.929688 104.25 L 99.6875 104 C 99.789062 104.113281 99.847656 104.261719 99.847656 104.421875 C 99.847656 104.683594 99.691406 104.90625 99.46875 105.007812 L 99.789062 104.886719 L 98.386719 111.1875 L 98.148438 110.929688 C 98.238281 111.039062 98.292969 111.179688 98.292969 111.332031 C 98.292969 111.59375 98.136719 111.816406 97.914062 111.917969 L 98.253906 111.777344 L 96.902344 117.855469 L 96.894531 117.882812 C 96.890625 117.902344 96.882812 117.921875 96.875 117.941406 C 96.867188 117.96875 96.855469 117.996094 96.84375 118.019531 C 96.832031 118.042969 96.824219 118.058594 96.816406 118.070312 C 96.800781 118.097656 96.78125 118.125 96.761719 118.148438 L 96.753906 118.160156 C 96.746094 118.171875 96.738281 118.183594 96.734375 118.1875 C 96.710938 118.214844 96.6875 118.238281 96.660156 118.261719 L 96.636719 118.285156 L 96.628906 118.289062 C 96.59375 118.320312 96.554688 118.347656 96.515625 118.367188 L 96.484375 118.382812 C 96.449219 118.398438 96.417969 118.414062 96.378906 118.425781 L 96.367188 118.429688 L 96.332031 118.4375 C 96.300781 118.445312 96.265625 118.453125 96.234375 118.457031 L 96.222656 118.460938 L 96.199219 118.464844 L 90.710938 118.996094 L 90.929688 118.636719 C 90.941406 118.621094 90.945312 118.609375 90.953125 118.59375 C 90.96875 118.566406 90.976562 118.542969 90.988281 118.511719 C 90.996094 118.492188 91.003906 118.472656 91.007812 118.449219 C 91.015625 118.433594 91.015625 118.425781 91.019531 118.417969 L 91.253906 117.355469 L 95.488281 116.945312 L 96.59375 111.972656 L 92.453125 111.972656 L 92.734375 110.695312 L 96.875 110.695312 L 98.128906 105.0625 L 93.988281 105.0625 L 94.273438 103.785156 L 98.414062 103.785156 L 99.558594 98.625 L 100.804688 98.699219 C 100.835938 98.699219 100.867188 98.703125 100.898438 98.703125 C 100.898438 98.703125 100.90625 98.703125 100.910156 98.703125 L 101.164062 98.703125 Z M 99.328125 103.796875 C 99.289062 103.789062 99.25 103.785156 99.210938 103.785156 C 99.25 103.785156 99.289062 103.789062 99.328125 103.796875 Z M 92.941406 135.15625 L 90.871094 135.15625 L 91.109375 135.476562 C 91.210938 135.613281 91.265625 135.777344 91.265625 135.945312 C 91.265625 136.113281 91.210938 136.277344 91.109375 136.414062 L 90.871094 136.734375 L 92.941406 136.734375 C 93.375 136.734375 93.730469 136.378906 93.730469 135.945312 C 93.730469 135.507812 93.375 135.15625 92.941406 135.15625 Z M 84.242188 142.195312 C 84.230469 142.128906 84.21875 142.066406 84.199219 142.007812 L 84.089844 141.597656 L 83.089844 142.996094 C 82.957031 143.179688 82.753906 143.285156 82.535156 143.285156 C 82.445312 143.285156 82.355469 143.269531 82.269531 143.234375 C 81.96875 143.113281 81.796875 142.8125 81.84375 142.492188 L 82.089844 140.796875 L 81.722656 141.023438 C 81.222656 141.328125 80.925781 141.863281 80.925781 142.445312 C 80.925781 143.363281 81.671875 144.113281 82.59375 144.113281 C 83.101562 144.113281 83.578125 143.882812 83.890625 143.488281 L 83.902344 143.476562 C 83.957031 143.40625 84.007812 143.332031 84.050781 143.253906 L 84.097656 143.21875 L 84.097656 143.164062 C 84.167969 143.019531 84.214844 142.863281 84.238281 142.703125 L 84.242188 142.695312 C 84.253906 142.601562 84.261719 142.523438 84.261719 142.445312 C 84.261719 142.371094 84.253906 142.296875 84.242188 142.210938 Z M 83.242188 137.972656 L 85.621094 137.972656 L 85.621094 136.734375 L 83.242188 136.734375 Z M 83.242188 137.972656 " fill-opacity="1" fill-rule="nonzero"/><g clip-path="url(#31f13c3deb)"><path fill="#f6bd3b" d="M 39.394531 87.226562 L 39.183594 87.492188 L 38.320312 85.5 C 38.242188 85.324219 38.105469 85.183594 37.929688 85.101562 C 37.878906 85.078125 37.828125 85.058594 37.773438 85.046875 C 37.71875 85.035156 37.664062 85.027344 37.613281 85.027344 L 37.59375 85.027344 C 37.484375 85.027344 37.378906 85.046875 37.28125 85.089844 C 37.085938 85.175781 36.9375 85.328125 36.859375 85.523438 C 36.78125 85.722656 36.785156 85.9375 36.871094 86.128906 L 37.734375 88.121094 L 37.398438 88.09375 C 36.226562 87.992188 35.304688 86.992188 35.304688 85.816406 C 35.304688 84.550781 36.332031 83.527344 37.59375 83.527344 C 37.617188 83.527344 37.640625 83.527344 37.664062 83.527344 L 37.691406 83.53125 C 37.765625 83.535156 37.839844 83.539062 37.910156 83.550781 C 37.984375 83.558594 38.058594 83.574219 38.128906 83.589844 C 39.164062 83.839844 39.882812 84.753906 39.882812 85.816406 C 39.882812 86.328125 39.714844 86.816406 39.394531 87.226562 Z M 58.203125 141.703125 C 58.183594 141.605469 58.15625 141.503906 58.125 141.398438 C 57.988281 140.945312 57.769531 140.527344 57.472656 140.160156 L 57.304688 139.953125 L 56.09375 141.640625 L 56.144531 141.75 C 56.246094 141.96875 56.296875 142.203125 56.296875 142.445312 C 56.296875 142.753906 56.210938 143.054688 56.042969 143.324219 C 56 143.394531 55.960938 143.453125 55.921875 143.5 L 55.914062 143.507812 C 55.875 143.554688 55.832031 143.601562 55.777344 143.652344 C 55.464844 143.949219 55.054688 144.113281 54.628906 144.113281 C 53.710938 144.113281 52.960938 143.363281 52.960938 142.445312 C 52.960938 141.761719 53.375 141.152344 54.011719 140.898438 L 54.121094 140.851562 L 54.417969 138.792969 L 54.15625 138.828125 C 52.34375 139.0625 50.980469 140.617188 50.980469 142.445312 C 50.980469 144.457031 52.617188 146.09375 54.628906 146.09375 C 55.460938 146.09375 56.246094 145.820312 56.898438 145.300781 L 56.898438 145.296875 C 56.949219 145.261719 56.996094 145.222656 57.042969 145.179688 L 57.128906 145.136719 L 57.128906 145.101562 C 57.15625 145.074219 57.183594 145.046875 57.210938 145.019531 L 57.21875 145.011719 C 57.640625 144.589844 57.953125 144.0625 58.125 143.488281 C 58.15625 143.386719 58.183594 143.285156 58.203125 143.1875 C 58.238281 143.023438 58.257812 142.851562 58.269531 142.679688 C 58.277344 142.601562 58.277344 142.523438 58.277344 142.445312 C 58.277344 142.367188 58.277344 142.289062 58.269531 142.210938 C 58.257812 142.039062 58.238281 141.867188 58.203125 141.703125 Z M 86.164062 141.703125 C 86.144531 141.605469 86.121094 141.503906 86.089844 141.398438 C 85.953125 140.945312 85.734375 140.527344 85.433594 140.160156 L 85.265625 139.953125 L 84.058594 141.640625 L 84.105469 141.75 C 84.207031 141.96875 84.261719 142.203125 84.261719 142.445312 C 84.261719 142.753906 84.171875 143.054688 84.007812 143.324219 C 83.96875 143.386719 83.929688 143.441406 83.890625 143.492188 L 83.882812 143.496094 L 83.871094 143.515625 C 83.835938 143.558594 83.792969 143.601562 83.738281 143.652344 C 83.425781 143.949219 83.019531 144.113281 82.59375 144.113281 C 81.671875 144.113281 80.925781 143.363281 80.925781 142.445312 C 80.925781 141.761719 81.335938 141.152344 81.972656 140.898438 L 82.082031 140.851562 L 82.382812 138.792969 L 82.117188 138.828125 C 80.308594 139.0625 78.945312 140.617188 78.945312 142.445312 C 78.945312 144.457031 80.582031 146.09375 82.59375 146.09375 C 83.425781 146.09375 84.210938 145.820312 84.863281 145.300781 L 84.863281 145.296875 C 84.917969 145.253906 84.972656 145.210938 85.027344 145.160156 C 85.078125 145.117188 85.125 145.070312 85.175781 145.019531 L 85.183594 145.011719 C 85.605469 144.589844 85.917969 144.0625 86.089844 143.488281 C 86.121094 143.386719 86.144531 143.285156 86.164062 143.1875 C 86.199219 143.023438 86.222656 142.851562 86.234375 142.679688 C 86.238281 142.601562 86.242188 142.523438 86.242188 142.445312 C 86.242188 142.367188 86.238281 142.289062 86.234375 142.210938 C 86.222656 142.039062 86.199219 141.867188 86.164062 141.703125 Z M 95.109375 95.210938 L 40.953125 92.046875 C 40.921875 92.042969 40.890625 92.042969 40.859375 92.042969 C 40.472656 92.042969 40.101562 92.183594 39.808594 92.441406 C 39.800781 92.453125 39.789062 92.460938 39.773438 92.476562 C 39.707031 92.539062 39.652344 92.601562 39.601562 92.664062 C 39.546875 92.738281 39.496094 92.816406 39.453125 92.902344 C 39.351562 93.101562 39.296875 93.3125 39.28125 93.53125 C 39.242188 94.261719 39.722656 94.941406 40.425781 95.140625 C 40.511719 95.167969 40.605469 95.183594 40.703125 95.195312 L 40.71875 95.195312 C 40.734375 95.199219 40.75 95.199219 40.769531 95.203125 L 94.925781 98.367188 C 94.953125 98.367188 94.984375 98.367188 95.011719 98.367188 C 95.046875 98.367188 95.082031 98.367188 95.117188 98.367188 C 95.203125 98.359375 95.285156 98.347656 95.367188 98.332031 C 95.453125 98.3125 95.539062 98.285156 95.621094 98.25 C 95.714844 98.210938 95.808594 98.160156 95.890625 98.105469 C 96.304688 97.832031 96.566406 97.371094 96.597656 96.878906 C 96.648438 96.011719 95.980469 95.261719 95.109375 95.210938 Z M 95.109375 95.210938 " fill-opacity="1" fill-rule="nonzero"/></g><path fill="#7bc9c0" d="M 40.855469 92.042969 C 40.496094 92.042969 40.152344 92.164062 39.871094 92.394531 L 39.664062 92.5625 L 36.871094 86.128906 C 36.785156 85.9375 36.78125 85.722656 36.859375 85.523438 C 36.9375 85.328125 37.085938 85.175781 37.28125 85.089844 C 37.378906 85.046875 37.484375 85.023438 37.59375 85.023438 C 37.683594 85.023438 37.773438 85.039062 37.863281 85.074219 C 37.960938 85.109375 38.046875 85.160156 38.121094 85.226562 C 38.207031 85.304688 38.273438 85.394531 38.320312 85.5 L 41.164062 92.042969 Z M 58.089844 137.972656 L 54.894531 137.972656 C 54.691406 137.972656 54.515625 138.125 54.488281 138.324219 L 53.878906 142.492188 C 53.828125 142.863281 54.054688 143.132812 54.304688 143.234375 C 54.390625 143.265625 54.480469 143.285156 54.574219 143.285156 C 54.796875 143.285156 54.992188 143.183594 55.125 142.996094 L 58.351562 138.488281 C 58.425781 138.386719 58.433594 138.261719 58.378906 138.152344 C 58.320312 138.039062 58.210938 137.972656 58.089844 137.972656 Z M 62.976562 137.972656 L 59.78125 137.972656 C 59.578125 137.972656 59.40625 138.125 59.375 138.324219 L 58.769531 142.492188 C 58.730469 142.753906 58.828125 142.992188 59.039062 143.144531 C 59.089844 143.183594 59.140625 143.210938 59.195312 143.234375 C 59.226562 143.246094 59.261719 143.257812 59.304688 143.265625 C 59.355469 143.277344 59.410156 143.285156 59.460938 143.285156 C 59.503906 143.285156 59.546875 143.28125 59.585938 143.273438 C 59.757812 143.242188 59.90625 143.144531 60.015625 142.996094 L 63.242188 138.488281 C 63.3125 138.386719 63.324219 138.261719 63.265625 138.152344 C 63.210938 138.039062 63.101562 137.972656 62.976562 137.972656 Z M 90.546875 118.976562 L 90.457031 118.792969 L 90.53125 118.980469 C 90.519531 118.988281 90.507812 118.992188 90.492188 118.996094 L 90.445312 119.011719 C 90.414062 119.019531 90.378906 119.023438 90.347656 119.03125 L 90.335938 119.03125 L 90.3125 119.035156 L 76.273438 120.394531 L 76.292969 120.398438 C 76.679688 120.421875 76.988281 120.722656 77.027344 121.105469 C 77.046875 121.316406 76.984375 121.523438 76.851562 121.683594 C 76.71875 121.847656 76.527344 121.949219 76.316406 121.96875 L 53.964844 124.167969 L 50.355469 130.410156 C 49.78125 131.398438 49.78125 132.582031 50.351562 133.574219 C 50.921875 134.5625 51.945312 135.15625 53.089844 135.15625 L 90.476562 135.15625 C 90.910156 135.15625 91.265625 135.507812 91.265625 135.945312 C 91.265625 136.378906 90.910156 136.734375 90.476562 136.734375 L 53.089844 136.734375 C 51.375 136.734375 49.839844 135.847656 48.984375 134.363281 C 48.125 132.875 48.125 131.101562 48.984375 129.617188 L 52.8125 123.007812 L 52.820312 122.996094 C 52.824219 122.992188 52.828125 122.984375 52.839844 122.96875 C 52.855469 122.945312 52.867188 122.925781 52.882812 122.90625 C 52.898438 122.894531 52.910156 122.878906 52.921875 122.867188 L 52.945312 122.84375 C 52.964844 122.828125 52.980469 122.8125 52.996094 122.800781 C 53.011719 122.789062 53.027344 122.777344 53.042969 122.769531 L 53.066406 122.75 C 53.089844 122.738281 53.105469 122.726562 53.125 122.71875 C 53.140625 122.710938 53.15625 122.703125 53.175781 122.695312 L 53.210938 122.683594 C 53.230469 122.671875 53.25 122.667969 53.265625 122.660156 C 53.285156 122.65625 53.308594 122.652344 53.339844 122.644531 L 53.351562 122.644531 C 53.359375 122.644531 53.367188 122.640625 53.375 122.636719 L 53.390625 122.632812 L 68.398438 121.160156 L 53.324219 122.621094 C 53.304688 122.621094 53.289062 122.625 53.273438 122.625 L 53.238281 122.625 C 53.199219 122.625 53.160156 122.621094 53.113281 122.613281 L 53.074219 122.601562 C 53.042969 122.597656 53.015625 122.589844 52.984375 122.578125 C 52.96875 122.574219 52.957031 122.566406 52.941406 122.5625 C 52.914062 122.550781 52.882812 122.535156 52.855469 122.519531 L 52.835938 122.507812 L 52.828125 122.503906 C 52.789062 122.480469 52.757812 122.453125 52.722656 122.425781 L 52.714844 122.417969 L 52.710938 122.410156 C 52.679688 122.382812 52.65625 122.355469 52.632812 122.328125 C 52.628906 122.324219 52.621094 122.3125 52.613281 122.300781 C 52.589844 122.269531 52.574219 122.246094 52.5625 122.21875 C 52.550781 122.203125 52.542969 122.1875 52.535156 122.175781 L 52.53125 122.164062 L 52.523438 122.148438 L 40.8125 95.203125 L 42.582031 95.308594 L 50.464844 113.445312 L 50.0625 112.515625 L 56.046875 112.265625 L 53.890625 104.515625 L 46.546875 104.433594 L 46.027344 103.234375 L 53.558594 103.316406 L 51.476562 95.828125 L 52.734375 95.902344 L 54.800781 103.332031 L 62.871094 103.421875 L 61.984375 96.441406 L 63.195312 96.511719 L 64.074219 103.433594 L 71.390625 103.515625 L 71.253906 96.984375 L 72.449219 97.054688 L 72.582031 103.527344 L 79.164062 103.601562 L 79.671875 97.476562 L 80.863281 97.542969 L 80.359375 103.613281 L 86.683594 103.683594 L 87.640625 97.941406 L 88.835938 98.011719 L 87.890625 103.699219 L 92.660156 103.75 L 93.871094 98.304688 L 94.925781 98.367188 C 94.957031 98.367188 94.988281 98.371094 95.019531 98.371094 C 95.03125 98.371094 95.042969 98.367188 95.050781 98.367188 L 95.082031 98.367188 C 95.125 98.363281 95.164062 98.363281 95.207031 98.355469 L 95.488281 98.324219 L 95.421875 98.617188 L 91.015625 118.425781 L 91.007812 118.453125 C 91 118.472656 90.996094 118.496094 90.988281 118.511719 C 90.976562 118.542969 90.96875 118.566406 90.953125 118.589844 C 90.945312 118.613281 90.9375 118.628906 90.929688 118.644531 C 90.914062 118.671875 90.894531 118.695312 90.875 118.71875 L 90.867188 118.734375 C 90.859375 118.746094 90.851562 118.753906 90.847656 118.761719 C 90.824219 118.785156 90.800781 118.808594 90.773438 118.832031 L 90.742188 118.863281 C 90.707031 118.890625 90.667969 118.917969 90.628906 118.9375 L 90.621094 118.945312 L 90.597656 118.953125 C 90.582031 118.960938 90.5625 118.96875 90.546875 118.976562 Z M 92.394531 104.941406 L 87.695312 104.890625 L 86.683594 110.972656 L 91.097656 110.789062 Z M 90.828125 111.992188 L 86.484375 112.175781 L 85.53125 117.910156 L 84.539062 118.007812 L 89.597656 117.515625 Z M 84.300781 118.03125 L 85.265625 112.226562 L 79.625 112.464844 L 79.121094 118.53125 L 77.914062 118.648438 L 78.421875 112.515625 L 72.773438 112.753906 L 72.902344 119.136719 Z M 64.964844 119.90625 L 64.101562 113.121094 L 57.601562 113.394531 L 59.558594 120.429688 Z M 55.132812 104.527344 L 57.273438 112.214844 L 63.953125 111.933594 L 63.023438 104.617188 Z M 64.226562 104.628906 L 65.148438 111.882812 L 71.554688 111.613281 L 71.414062 104.710938 Z M 65.082031 119.894531 L 71.714844 119.25 L 71.582031 112.804688 L 65.300781 113.070312 L 66.152344 119.789062 Z M 72.609375 104.722656 L 72.75 111.5625 L 78.523438 111.316406 L 79.0625 104.792969 Z M 80.257812 104.808594 L 79.722656 111.265625 L 85.464844 111.023438 L 86.488281 104.875 Z M 50.570312 113.691406 L 53.742188 120.992188 L 58.785156 120.503906 L 58.351562 120.546875 L 56.375 113.445312 Z M 90.9375 137.972656 L 87.746094 137.972656 C 87.542969 137.972656 87.367188 138.125 87.339844 138.324219 L 86.730469 142.492188 C 86.695312 142.753906 86.792969 142.992188 87.003906 143.144531 C 87.050781 143.183594 87.105469 143.210938 87.15625 143.234375 C 87.191406 143.246094 87.226562 143.257812 87.265625 143.265625 C 87.316406 143.277344 87.371094 143.285156 87.425781 143.285156 C 87.464844 143.285156 87.507812 143.28125 87.550781 143.273438 C 87.722656 143.242188 87.871094 143.144531 87.976562 142.996094 L 91.203125 138.488281 C 91.277344 138.386719 91.285156 138.261719 91.230469 138.152344 C 91.171875 138.039062 91.0625 137.972656 90.9375 137.972656 Z M 86.050781 137.972656 L 82.855469 137.972656 C 82.652344 137.972656 82.480469 138.125 82.449219 138.324219 L 81.84375 142.492188 C 81.789062 142.863281 82.019531 143.132812 82.269531 143.234375 C 82.351562 143.265625 82.445312 143.285156 82.535156 143.285156 C 82.757812 143.285156 82.953125 143.183594 83.089844 142.996094 L 86.316406 138.488281 C 86.386719 138.386719 86.398438 138.261719 86.339844 138.152344 C 86.285156 138.039062 86.175781 137.972656 86.050781 137.972656 Z M 86.050781 137.972656 " fill-opacity="1" fill-rule="nonzero"/><g clip-path="url(#7e5bff1782)"><path fill="#19055b" d="M 101 95.34375 L 47.597656 92.222656 L 47.128906 91.148438 L 45.523438 87.453125 C 45.742188 87.105469 45.875 86.691406 45.875 86.25 C 45.875 85.117188 45.027344 84.15625 43.902344 84.011719 C 43.902344 84.011719 43.902344 84.011719 43.898438 84.011719 L 37.917969 83.34375 C 37.910156 83.34375 37.90625 83.34375 37.898438 83.34375 C 37.800781 83.332031 37.699219 83.324219 37.59375 83.324219 C 36.222656 83.324219 35.105469 84.441406 35.105469 85.816406 C 35.105469 87.1875 36.222656 88.304688 37.59375 88.304688 L 39.4375 92.546875 C 39.226562 92.828125 39.101562 93.160156 39.082031 93.519531 C 39.027344 94.472656 39.734375 95.296875 40.675781 95.394531 L 52.339844 122.230469 C 52.34375 122.242188 52.347656 122.25 52.355469 122.261719 C 52.363281 122.28125 52.375 122.300781 52.386719 122.320312 C 52.402344 122.351562 52.421875 122.378906 52.445312 122.417969 C 52.457031 122.429688 52.464844 122.441406 52.476562 122.457031 C 52.503906 122.488281 52.535156 122.519531 52.566406 122.554688 C 52.574219 122.558594 52.582031 122.566406 52.589844 122.574219 C 52.628906 122.609375 52.671875 122.644531 52.71875 122.671875 C 52.730469 122.679688 52.738281 122.683594 52.753906 122.691406 C 52.765625 122.699219 52.78125 122.707031 52.792969 122.710938 L 52.789062 122.71875 C 52.769531 122.738281 52.75 122.753906 52.730469 122.777344 C 52.710938 122.800781 52.691406 122.832031 52.671875 122.859375 L 52.832031 122.980469 L 52.660156 122.875 C 52.648438 122.890625 52.636719 122.90625 52.625 122.921875 L 48.8125 129.515625 C 47.914062 131.066406 47.914062 132.914062 48.808594 134.464844 C 49.703125 136.011719 51.300781 136.9375 53.089844 136.9375 L 55.078125 136.9375 L 55.078125 137.773438 L 54.894531 137.773438 C 54.59375 137.773438 54.332031 137.996094 54.289062 138.296875 L 54.242188 138.613281 C 52.300781 138.808594 50.777344 140.453125 50.777344 142.445312 C 50.777344 144.566406 52.507812 146.296875 54.628906 146.296875 C 55.558594 146.296875 56.410156 145.964844 57.074219 145.417969 C 57.085938 145.429688 57.101562 145.4375 57.113281 145.449219 C 57.121094 145.453125 57.128906 145.460938 57.136719 145.46875 C 57.1875 145.507812 57.242188 145.550781 57.296875 145.589844 C 57.3125 145.597656 57.324219 145.605469 57.335938 145.613281 C 57.398438 145.660156 57.464844 145.699219 57.53125 145.742188 C 58.113281 146.09375 58.792969 146.296875 59.519531 146.296875 C 61.640625 146.296875 63.367188 144.566406 63.367188 142.445312 C 63.367188 141.492188 63.019531 140.621094 62.445312 139.945312 L 63.40625 138.605469 C 63.519531 138.445312 63.535156 138.234375 63.445312 138.058594 C 63.355469 137.882812 63.175781 137.773438 62.976562 137.773438 L 62.746094 137.773438 L 62.746094 136.9375 L 83.042969 136.9375 L 83.042969 137.773438 L 82.855469 137.773438 C 82.554688 137.773438 82.292969 137.996094 82.25 138.296875 L 82.203125 138.613281 C 80.261719 138.808594 78.742188 140.453125 78.742188 142.445312 C 78.742188 144.566406 80.46875 146.296875 82.59375 146.296875 C 83.519531 146.296875 84.371094 145.964844 85.035156 145.417969 C 85.050781 145.429688 85.0625 145.4375 85.074219 145.449219 C 85.082031 145.453125 85.089844 145.460938 85.097656 145.46875 C 85.152344 145.507812 85.207031 145.550781 85.261719 145.589844 C 85.273438 145.597656 85.285156 145.605469 85.296875 145.613281 C 85.363281 145.660156 85.425781 145.699219 85.492188 145.742188 C 85.492188 145.742188 85.492188 145.742188 85.496094 145.742188 C 86.074219 146.09375 86.753906 146.296875 87.480469 146.296875 C 89.605469 146.296875 91.332031 144.566406 91.332031 142.445312 C 91.332031 141.492188 90.984375 140.621094 90.40625 139.945312 L 91.367188 138.605469 C 91.484375 138.445312 91.5 138.234375 91.40625 138.058594 C 91.316406 137.882812 91.136719 137.773438 90.9375 137.773438 L 90.710938 137.773438 L 90.710938 136.9375 L 92.941406 136.9375 C 93.488281 136.9375 93.933594 136.492188 93.933594 135.945312 C 93.933594 135.398438 93.488281 134.953125 92.941406 134.953125 L 58.96875 134.953125 C 58.882812 134.953125 58.796875 134.949219 58.710938 134.941406 C 58.691406 134.9375 58.671875 134.9375 58.652344 134.933594 C 58.570312 134.925781 58.492188 134.914062 58.414062 134.902344 C 58.410156 134.902344 58.40625 134.898438 58.398438 134.898438 C 58.3125 134.882812 58.226562 134.859375 58.140625 134.835938 C 58.132812 134.835938 58.125 134.832031 58.117188 134.828125 C 57.675781 134.699219 57.269531 134.464844 56.933594 134.144531 C 56.933594 134.144531 56.933594 134.144531 56.929688 134.144531 C 56.730469 133.949219 56.550781 133.726562 56.40625 133.472656 C 55.871094 132.542969 55.871094 131.4375 56.40625 130.511719 L 59.75 124.761719 L 60.054688 124.234375 L 60.34375 123.742188 L 76.335938 122.171875 C 76.601562 122.144531 76.839844 122.015625 77.007812 121.8125 C 77.175781 121.609375 77.253906 121.351562 77.226562 121.085938 C 77.207031 120.871094 77.117188 120.679688 76.984375 120.53125 L 90.34375 119.234375 C 90.351562 119.234375 90.359375 119.234375 90.363281 119.230469 L 96.230469 118.664062 C 96.242188 118.660156 96.257812 118.660156 96.257812 118.65625 C 96.300781 118.652344 96.34375 118.644531 96.394531 118.628906 C 96.410156 118.625 96.429688 118.621094 96.441406 118.617188 C 96.484375 118.601562 96.527344 118.585938 96.574219 118.5625 C 96.585938 118.558594 96.597656 118.550781 96.609375 118.546875 C 96.660156 118.515625 96.710938 118.484375 96.757812 118.445312 C 96.769531 118.4375 96.78125 118.425781 96.796875 118.410156 C 96.828125 118.382812 96.859375 118.351562 96.886719 118.320312 C 96.898438 118.304688 96.90625 118.292969 96.925781 118.269531 C 96.949219 118.238281 96.96875 118.207031 96.988281 118.171875 C 97 118.152344 97.011719 118.132812 97.023438 118.109375 C 97.039062 118.078125 97.050781 118.042969 97.066406 118.011719 C 97.074219 117.984375 97.082031 117.960938 97.089844 117.933594 C 97.09375 117.917969 97.097656 117.90625 97.101562 117.890625 L 101.335938 98.847656 C 102.070312 98.660156 102.628906 98.015625 102.675781 97.226562 C 102.734375 96.246094 101.980469 95.398438 101 95.34375 Z M 101.4375 98.386719 C 101.367188 98.417969 101.292969 98.445312 101.214844 98.464844 C 101.148438 98.480469 101.074219 98.488281 101.003906 98.496094 C 100.941406 98.5 100.878906 98.503906 100.816406 98.5 L 99.808594 98.4375 L 99.402344 98.414062 L 96.074219 98.222656 C 96.488281 97.917969 96.765625 97.441406 96.796875 96.890625 C 96.832031 96.332031 96.597656 95.816406 96.210938 95.464844 L 100.234375 95.699219 L 100.976562 95.746094 C 101.257812 95.761719 101.511719 95.859375 101.71875 96.015625 C 102.078125 96.285156 102.300781 96.722656 102.273438 97.203125 C 102.242188 97.738281 101.902344 98.1875 101.4375 98.386719 Z M 96.699219 117.828125 C 96.695312 117.84375 96.691406 117.859375 96.683594 117.875 C 96.679688 117.894531 96.671875 117.914062 96.660156 117.933594 C 96.65625 117.945312 96.648438 117.957031 96.640625 117.96875 C 96.628906 117.992188 96.617188 118.007812 96.601562 118.027344 L 96.589844 118.042969 C 96.585938 118.046875 96.582031 118.054688 96.582031 118.058594 C 96.5625 118.078125 96.546875 118.09375 96.527344 118.109375 L 96.503906 118.132812 C 96.476562 118.15625 96.445312 118.175781 96.421875 118.191406 C 96.410156 118.191406 96.402344 118.195312 96.394531 118.199219 C 96.371094 118.214844 96.34375 118.226562 96.316406 118.234375 L 96.28125 118.242188 C 96.257812 118.25 96.234375 118.253906 96.207031 118.257812 C 96.199219 118.257812 96.191406 118.261719 96.179688 118.261719 L 91.09375 118.753906 C 91.097656 118.753906 91.101562 118.75 91.101562 118.746094 C 91.113281 118.722656 91.125 118.703125 91.136719 118.679688 C 91.152344 118.648438 91.164062 118.617188 91.179688 118.582031 C 91.1875 118.554688 91.195312 118.53125 91.203125 118.503906 C 91.207031 118.492188 91.210938 118.476562 91.214844 118.460938 L 91.417969 117.542969 L 95.507812 117.144531 C 95.59375 117.136719 95.664062 117.074219 95.683594 116.988281 L 96.753906 112.175781 L 97.652344 112.175781 C 97.765625 112.175781 97.875 112.152344 97.972656 112.109375 L 96.710938 117.800781 C 96.707031 117.808594 96.703125 117.816406 96.699219 117.828125 Z M 84.75 119.371094 L 84.304688 119.414062 L 79.035156 119.925781 L 78.589844 119.96875 L 78.414062 119.984375 L 77.972656 120.027344 L 76.277344 120.191406 L 72.917969 120.519531 L 72.46875 120.5625 L 72.304688 120.578125 L 71.847656 120.621094 L 68.414062 120.957031 L 66.246094 121.164062 L 65.792969 121.210938 L 65.632812 121.226562 L 65.183594 121.269531 L 59.761719 121.792969 L 59.316406 121.835938 L 59.140625 121.855469 L 58.691406 121.898438 L 53.304688 122.421875 C 53.28125 122.421875 53.265625 122.421875 53.242188 122.421875 C 53.214844 122.421875 53.183594 122.421875 53.148438 122.414062 L 53.117188 122.40625 C 53.097656 122.402344 53.074219 122.394531 53.054688 122.386719 C 53.042969 122.382812 53.03125 122.378906 53.019531 122.375 C 53 122.367188 52.976562 122.355469 52.957031 122.34375 C 52.953125 122.34375 52.9375 122.335938 52.933594 122.332031 C 52.90625 122.316406 52.882812 122.296875 52.859375 122.273438 C 52.855469 122.273438 52.84375 122.261719 52.84375 122.257812 C 52.824219 122.242188 52.808594 122.222656 52.789062 122.203125 C 52.785156 122.195312 52.78125 122.1875 52.769531 122.175781 C 52.757812 122.15625 52.746094 122.140625 52.738281 122.121094 C 52.730469 122.109375 52.722656 122.097656 52.71875 122.085938 C 52.714844 122.082031 52.710938 122.074219 52.707031 122.070312 L 49.144531 113.867188 L 48.964844 113.453125 L 48.890625 113.289062 L 48.714844 112.882812 L 45.097656 104.554688 L 44.914062 104.136719 L 44.851562 103.988281 L 44.667969 103.566406 L 41.128906 95.425781 L 42.445312 95.5 L 45.71875 103.03125 L 45.804688 103.230469 L 45.894531 103.433594 L 46.238281 104.230469 L 46.328125 104.429688 L 46.414062 104.632812 L 49.757812 112.328125 L 49.84375 112.527344 L 49.929688 112.722656 L 50.269531 113.5 L 50.441406 113.898438 L 53.558594 121.074219 C 53.59375 121.152344 53.679688 121.199219 53.761719 121.191406 L 58.203125 120.761719 L 58.609375 120.722656 L 59.40625 120.644531 L 59.613281 120.625 L 59.816406 120.605469 L 64.789062 120.125 L 64.992188 120.105469 L 65.191406 120.085938 L 65.976562 120.007812 L 66.179688 119.988281 L 66.378906 119.96875 L 71.515625 119.472656 L 71.71875 119.453125 L 71.917969 119.433594 L 72.707031 119.355469 L 72.910156 119.335938 L 73.109375 119.316406 L 77.691406 118.875 L 77.894531 118.851562 L 78.101562 118.832031 L 78.898438 118.757812 L 79.101562 118.734375 L 79.308594 118.714844 L 84.058594 118.257812 L 84.265625 118.234375 L 84.472656 118.214844 L 85.289062 118.136719 L 85.703125 118.097656 L 89.617188 117.714844 C 89.707031 117.707031 89.777344 117.644531 89.796875 117.558594 L 90.992188 112.1875 L 91.035156 111.984375 L 91.082031 111.78125 L 91.109375 111.648438 L 91.257812 110.984375 L 91.304688 110.777344 L 91.316406 110.71875 L 91.347656 110.574219 L 92.558594 105.144531 L 92.601562 104.945312 L 92.648438 104.742188 L 92.652344 104.707031 L 92.820312 103.953125 L 92.851562 103.828125 L 92.867188 103.753906 L 92.910156 103.550781 L 94.03125 98.515625 L 94.914062 98.566406 C 94.949219 98.570312 94.984375 98.570312 95.019531 98.570312 C 95.042969 98.570312 95.066406 98.566406 95.089844 98.566406 C 95.136719 98.566406 95.183594 98.5625 95.230469 98.558594 L 95.226562 98.574219 L 94.109375 103.582031 L 94.066406 103.785156 L 94.027344 103.957031 L 94.023438 103.984375 L 93.925781 104.40625 L 93.894531 104.5625 L 93.828125 104.863281 L 93.792969 105.007812 L 93.78125 105.0625 L 93.738281 105.265625 L 92.574219 110.492188 L 92.53125 110.695312 L 92.46875 110.960938 L 92.371094 111.40625 L 92.332031 111.574219 L 92.289062 111.769531 L 92.246094 111.972656 L 92.238281 112.007812 L 92.199219 112.175781 L 91.089844 117.167969 L 90.996094 117.582031 L 90.820312 118.371094 C 90.820312 118.378906 90.816406 118.390625 90.8125 118.398438 C 90.808594 118.417969 90.804688 118.433594 90.796875 118.445312 C 90.792969 118.464844 90.78125 118.484375 90.773438 118.503906 C 90.765625 118.515625 90.761719 118.53125 90.753906 118.542969 C 90.742188 118.5625 90.730469 118.582031 90.714844 118.597656 L 90.703125 118.613281 C 90.699219 118.617188 90.695312 118.625 90.691406 118.628906 C 90.675781 118.648438 90.65625 118.664062 90.636719 118.683594 L 90.617188 118.703125 C 90.589844 118.726562 90.558594 118.746094 90.535156 118.761719 C 90.523438 118.765625 90.515625 118.769531 90.507812 118.773438 C 90.492188 118.78125 90.476562 118.785156 90.460938 118.792969 C 90.449219 118.796875 90.441406 118.800781 90.429688 118.804688 L 90.394531 118.816406 C 90.371094 118.820312 90.34375 118.828125 90.320312 118.828125 C 90.3125 118.832031 90.304688 118.832031 90.292969 118.835938 L 90.242188 118.839844 L 90.03125 118.859375 L 85.371094 119.3125 L 84.921875 119.355469 Z M 39.484375 93.542969 C 39.496094 93.347656 39.546875 93.164062 39.632812 92.996094 C 39.671875 92.921875 39.714844 92.851562 39.761719 92.789062 C 39.808594 92.730469 39.859375 92.675781 39.910156 92.625 C 39.921875 92.613281 39.933594 92.601562 39.945312 92.59375 C 40.199219 92.367188 40.519531 92.242188 40.859375 92.242188 C 40.886719 92.242188 40.914062 92.246094 40.941406 92.246094 L 41.035156 92.25 L 41.257812 92.265625 L 41.484375 92.277344 L 45.5625 92.515625 L 45.679688 92.523438 L 45.785156 92.53125 L 46.011719 92.542969 L 46.03125 92.542969 L 46.65625 92.582031 L 47.328125 92.621094 L 47.78125 92.644531 L 95.097656 95.410156 C 95.859375 95.457031 96.441406 96.109375 96.394531 96.867188 C 96.371094 97.316406 96.128906 97.703125 95.78125 97.9375 C 95.707031 97.988281 95.628906 98.027344 95.546875 98.0625 C 95.472656 98.09375 95.398438 98.117188 95.324219 98.132812 C 95.253906 98.148438 95.179688 98.160156 95.105469 98.164062 C 95.050781 98.167969 94.996094 98.167969 94.9375 98.164062 L 94.121094 98.117188 L 93.917969 98.105469 L 93.710938 98.09375 L 89.019531 97.820312 L 88.808594 97.808594 L 88.589844 97.792969 L 87.914062 97.753906 L 87.691406 97.742188 L 87.480469 97.730469 L 81.050781 97.351562 L 80.839844 97.339844 L 80.617188 97.328125 L 79.941406 97.289062 L 79.71875 97.277344 L 79.511719 97.261719 L 72.636719 96.863281 L 72.421875 96.847656 L 72.203125 96.835938 L 71.527344 96.796875 L 71.304688 96.785156 L 71.09375 96.773438 L 63.371094 96.320312 L 63.160156 96.308594 L 62.941406 96.296875 L 62.265625 96.253906 L 62.042969 96.242188 L 61.832031 96.230469 L 52.890625 95.707031 L 52.675781 95.695312 L 52.453125 95.683594 L 51.78125 95.644531 L 51.558594 95.628906 L 51.34375 95.617188 L 45.90625 95.300781 L 45.546875 95.277344 L 42.71875 95.113281 L 42.492188 95.101562 L 42.265625 95.085938 L 40.949219 95.011719 L 40.78125 95 C 40.761719 95 40.742188 94.996094 40.722656 94.992188 C 40.640625 94.984375 40.558594 94.96875 40.480469 94.949219 C 39.875 94.773438 39.445312 94.199219 39.484375 93.542969 Z M 38.019531 88.265625 L 37.953125 88.113281 L 37.933594 88.074219 L 37.851562 87.882812 L 37.839844 87.859375 L 37.664062 87.453125 L 37.484375 87.042969 L 37.054688 86.050781 C 36.992188 85.90625 36.988281 85.746094 37.046875 85.597656 C 37.105469 85.453125 37.214844 85.335938 37.359375 85.273438 C 37.4375 85.242188 37.515625 85.226562 37.59375 85.226562 C 37.664062 85.226562 37.730469 85.238281 37.792969 85.261719 C 37.863281 85.289062 37.929688 85.328125 37.988281 85.378906 C 38.050781 85.433594 38.101562 85.5 38.132812 85.582031 L 38.933594 87.414062 L 39.097656 87.796875 L 39.167969 87.953125 L 39.253906 88.160156 L 39.34375 88.363281 L 40.855469 91.84375 C 40.449219 91.84375 40.0625 91.980469 39.742188 92.238281 L 38.042969 88.320312 Z M 37.59375 83.726562 C 37.625 83.726562 37.652344 83.730469 37.683594 83.730469 C 37.75 83.734375 37.816406 83.742188 37.882812 83.75 C 37.949219 83.757812 38.015625 83.769531 38.082031 83.789062 C 39 84.007812 39.683594 84.832031 39.683594 85.816406 C 39.683594 86.300781 39.515625 86.746094 39.234375 87.101562 L 38.503906 85.417969 C 38.402344 85.191406 38.226562 85.015625 38.015625 84.917969 C 37.953125 84.886719 37.886719 84.867188 37.816406 84.851562 C 37.753906 84.835938 37.683594 84.824219 37.617188 84.824219 C 37.476562 84.820312 37.335938 84.847656 37.199219 84.90625 C 36.957031 85.011719 36.769531 85.203125 36.671875 85.449219 C 36.574219 85.699219 36.578125 85.96875 36.683594 86.210938 L 37.417969 87.894531 C 36.347656 87.800781 35.507812 86.90625 35.507812 85.816406 C 35.507812 84.664062 36.445312 83.726562 37.59375 83.726562 Z M 43.097656 84.328125 L 43.855469 84.414062 C 43.9375 84.421875 44.015625 84.441406 44.09375 84.460938 C 44.894531 84.675781 45.46875 85.402344 45.46875 86.25 C 45.46875 86.511719 45.417969 86.757812 45.320312 86.984375 C 45.285156 87.0625 45.242188 87.136719 45.199219 87.210938 C 45.15625 87.28125 45.113281 87.34375 45.0625 87.40625 C 44.8125 87.722656 44.460938 87.949219 44.058594 88.050781 C 43.992188 88.066406 43.925781 88.078125 43.855469 88.089844 C 43.785156 88.097656 43.714844 88.101562 43.644531 88.105469 C 43.636719 88.105469 43.628906 88.105469 43.617188 88.105469 C 43.5625 88.105469 41.511719 88.035156 39.613281 87.96875 L 39.414062 87.511719 C 39.828125 87.066406 40.085938 86.46875 40.085938 85.816406 C 40.085938 85.039062 39.730469 84.347656 39.175781 83.890625 Z M 92.234375 104.738281 L 87.523438 104.6875 L 86.441406 111.1875 L 90.84375 111 L 90.664062 111.796875 L 86.3125 111.980469 L 85.355469 117.726562 L 84.542969 117.804688 L 85.503906 112.015625 L 79.4375 112.273438 L 78.933594 118.347656 L 78.132812 118.425781 L 78.640625 112.304688 L 72.566406 112.5625 L 72.699219 118.953125 L 71.910156 119.027344 L 71.777344 112.59375 L 65.070312 112.878906 L 65.925781 119.609375 L 65.140625 119.683594 L 64.28125 112.910156 L 57.335938 113.203125 L 59.296875 120.25 L 58.5 120.328125 L 56.527344 113.238281 L 50.699219 113.484375 L 50.363281 112.707031 L 56.308594 112.457031 L 54.046875 104.316406 L 46.679688 104.234375 L 46.335938 103.441406 L 53.824219 103.523438 L 51.746094 96.042969 L 52.578125 96.09375 L 54.648438 103.53125 L 63.101562 103.625 L 62.214844 96.65625 L 63.015625 96.703125 L 63.898438 103.632812 L 71.59375 103.71875 L 71.460938 97.195312 L 72.253906 97.242188 L 72.386719 103.726562 L 79.347656 103.804688 L 79.855469 97.6875 L 80.644531 97.734375 L 80.140625 103.8125 L 86.855469 103.886719 L 87.808594 98.152344 L 88.601562 98.199219 L 87.65625 103.898438 L 92.410156 103.949219 Z M 86.921875 110.761719 L 87.863281 105.09375 L 92.144531 105.140625 L 90.933594 110.59375 Z M 86.65625 112.371094 L 90.574219 112.207031 L 89.433594 117.328125 L 85.769531 117.683594 Z M 79.808594 112.660156 L 85.023438 112.441406 L 84.125 117.84375 L 79.339844 118.308594 Z M 72.980469 112.949219 L 78.203125 112.726562 L 77.726562 118.464844 L 73.101562 118.914062 Z M 65.527344 113.261719 L 71.382812 113.015625 L 71.507812 119.066406 L 66.328125 119.570312 Z M 57.863281 113.585938 L 63.925781 113.328125 L 64.738281 119.722656 L 59.707031 120.210938 Z M 56.222656 113.652344 L 58.09375 120.367188 L 53.871094 120.777344 L 50.871094 113.878906 Z M 53.738281 104.714844 L 55.785156 112.074219 L 50.191406 112.308594 L 46.855469 104.640625 Z M 61.804688 96.632812 L 62.640625 103.21875 L 54.953125 103.132812 L 53.003906 96.117188 Z M 71.183594 103.3125 L 64.253906 103.234375 L 63.425781 96.726562 L 71.058594 97.171875 Z M 79.453125 97.664062 L 78.976562 103.398438 L 72.78125 103.328125 L 72.65625 97.265625 Z M 87.402344 98.128906 L 86.515625 103.480469 L 80.578125 103.414062 L 81.046875 97.757812 Z M 51.324219 96.019531 C 51.328125 96.039062 51.332031 96.058594 51.335938 96.078125 L 53.292969 103.113281 L 46.160156 103.035156 L 42.898438 95.527344 Z M 88.128906 103.5 L 89.007812 98.222656 L 93.625 98.492188 L 92.5 103.546875 Z M 96.339844 112.175781 L 95.320312 116.757812 L 91.511719 117.128906 L 92.613281 112.175781 Z M 92.703125 111.769531 L 92.898438 110.894531 L 97.652344 110.894531 C 97.894531 110.894531 98.089844 111.089844 98.089844 111.332031 C 98.089844 111.574219 97.894531 111.769531 97.652344 111.769531 Z M 92.988281 110.492188 L 94.148438 105.265625 L 97.878906 105.265625 L 96.714844 110.492188 Z M 94.238281 104.863281 L 94.433594 103.984375 L 99.207031 103.984375 C 99.449219 103.984375 99.648438 104.179688 99.648438 104.421875 C 99.648438 104.664062 99.449219 104.863281 99.207031 104.863281 Z M 94.523438 103.582031 L 95.632812 98.597656 L 99.3125 98.8125 L 98.25 103.582031 Z M 45.382812 92.101562 L 41.304688 91.863281 L 39.789062 88.378906 C 41.558594 88.4375 43.589844 88.507812 43.617188 88.507812 C 43.683594 88.507812 43.75 88.503906 43.816406 88.5 Z M 45.355469 91.027344 L 44.222656 88.421875 C 44.617188 88.3125 44.964844 88.101562 45.242188 87.8125 L 46.636719 91.027344 Z M 98.273438 110.765625 C 98.121094 110.597656 97.898438 110.492188 97.652344 110.492188 L 97.128906 110.492188 L 98.289062 105.265625 L 99.207031 105.265625 C 99.316406 105.265625 99.417969 105.242188 99.507812 105.207031 Z M 99.8125 103.839844 C 99.660156 103.683594 99.445312 103.582031 99.207031 103.582031 L 98.664062 103.582031 L 99.71875 98.835938 L 100.792969 98.902344 C 100.828125 98.902344 100.863281 98.902344 100.898438 98.902344 C 100.902344 98.902344 100.90625 98.902344 100.910156 98.902344 Z M 52.980469 123.121094 C 52.984375 123.113281 52.992188 123.101562 53.007812 123.082031 C 53.015625 123.066406 53.027344 123.050781 53.039062 123.039062 C 53.046875 123.027344 53.054688 123.019531 53.066406 123.011719 L 53.078125 123 C 53.078125 122.996094 53.089844 122.988281 53.089844 122.988281 C 53.097656 122.976562 53.109375 122.96875 53.121094 122.957031 C 53.132812 122.949219 53.144531 122.941406 53.15625 122.9375 L 53.179688 122.921875 C 53.191406 122.914062 53.203125 122.902344 53.214844 122.898438 C 53.230469 122.890625 53.242188 122.886719 53.253906 122.882812 L 53.285156 122.871094 C 53.296875 122.863281 53.308594 122.859375 53.324219 122.855469 C 53.339844 122.851562 53.355469 122.847656 53.386719 122.84375 C 53.398438 122.839844 53.410156 122.839844 53.425781 122.832031 L 58.898438 122.296875 L 59.140625 122.273438 L 68.429688 121.359375 L 76.277344 120.597656 C 76.5625 120.617188 76.796875 120.835938 76.828125 121.125 C 76.84375 121.28125 76.796875 121.433594 76.695312 121.558594 C 76.597656 121.679688 76.453125 121.753906 76.296875 121.769531 L 60.148438 123.355469 L 59.980469 123.371094 L 58.652344 123.503906 L 58.40625 123.527344 L 58.261719 123.542969 L 58.15625 123.550781 L 53.945312 123.964844 C 53.882812 123.972656 53.824219 124.007812 53.792969 124.066406 L 50.179688 130.308594 C 49.570312 131.363281 49.570312 132.621094 50.175781 133.671875 C 50.785156 134.726562 51.875 135.355469 53.089844 135.355469 L 90.476562 135.355469 C 90.800781 135.355469 91.0625 135.621094 91.0625 135.945312 C 91.0625 136.269531 90.800781 136.535156 90.476562 136.535156 L 53.089844 136.535156 C 51.449219 136.535156 49.976562 135.683594 49.15625 134.261719 C 48.335938 132.839844 48.335938 131.140625 49.160156 129.71875 Z M 56.054688 133.671875 C 56.140625 133.820312 56.234375 133.957031 56.335938 134.089844 L 54.941406 134.089844 C 54.21875 132.703125 54.25 131.082031 55.039062 129.71875 L 57.863281 124.863281 L 59.226562 124.863281 L 56.058594 130.308594 C 55.449219 131.363281 55.449219 132.621094 56.054688 133.671875 Z M 57.570312 124.558594 L 54.6875 129.515625 C 53.808594 131.039062 53.792969 132.851562 54.644531 134.386719 L 54.65625 134.410156 C 54.664062 134.425781 54.671875 134.4375 54.679688 134.449219 C 54.679688 134.453125 54.683594 134.457031 54.6875 134.464844 C 54.6875 134.464844 54.6875 134.46875 54.691406 134.472656 C 54.738281 134.554688 54.789062 134.632812 54.839844 134.710938 C 54.863281 134.746094 54.886719 134.777344 54.90625 134.808594 C 54.9375 134.855469 54.972656 134.902344 55.003906 134.949219 C 55.007812 134.949219 55.007812 134.953125 55.007812 134.953125 L 53.089844 134.953125 C 52.019531 134.953125 51.0625 134.398438 50.527344 133.472656 C 49.992188 132.542969 49.992188 131.4375 50.527344 130.511719 L 54.089844 124.355469 L 57.90625 123.980469 Z M 92.941406 135.355469 C 93.265625 135.355469 93.53125 135.621094 93.53125 135.945312 C 93.53125 136.269531 93.265625 136.535156 92.941406 136.535156 L 91.269531 136.535156 C 91.394531 136.367188 91.464844 136.164062 91.464844 135.945312 C 91.464844 135.722656 91.394531 135.519531 91.269531 135.355469 Z M 91.050781 138.242188 C 91.058594 138.261719 91.078125 138.316406 91.039062 138.371094 L 90.125 139.648438 L 90.007812 139.816406 L 89.886719 139.980469 L 88.949219 141.292969 L 88.828125 141.460938 L 88.703125 141.636719 L 87.8125 142.878906 C 87.726562 142.996094 87.621094 143.054688 87.511719 143.074219 C 87.441406 143.085938 87.371094 143.085938 87.308594 143.070312 C 87.28125 143.0625 87.257812 143.054688 87.234375 143.046875 C 87.195312 143.03125 87.15625 143.011719 87.121094 142.984375 C 87 142.894531 86.898438 142.738281 86.929688 142.523438 L 87.0625 141.617188 L 87.128906 141.15625 L 87.148438 141.015625 L 87.179688 140.804688 L 87.183594 140.777344 L 87.210938 140.597656 L 87.445312 139 L 87.472656 138.796875 L 87.503906 138.59375 L 87.539062 138.355469 C 87.554688 138.253906 87.640625 138.175781 87.746094 138.175781 L 90.9375 138.175781 C 91.007812 138.175781 91.039062 138.222656 91.050781 138.242188 Z M 87.480469 145.890625 C 86.945312 145.890625 86.4375 145.769531 85.984375 145.550781 C 86.449219 145.210938 86.828125 144.773438 87.097656 144.273438 C 87.222656 144.300781 87.347656 144.316406 87.480469 144.316406 C 88.511719 144.316406 89.351562 143.476562 89.351562 142.445312 C 89.351562 142.164062 89.289062 141.902344 89.179688 141.664062 L 90.164062 140.285156 C 90.640625 140.875 90.929688 141.628906 90.929688 142.445312 C 90.929688 144.347656 89.382812 145.890625 87.480469 145.890625 Z M 84.734375 145.140625 C 84.148438 145.609375 83.402344 145.890625 82.59375 145.890625 C 80.691406 145.890625 79.144531 144.347656 79.144531 142.445312 C 79.144531 140.695312 80.453125 139.246094 82.144531 139.027344 L 81.898438 140.710938 C 81.210938 140.984375 80.722656 141.660156 80.722656 142.445312 C 80.722656 143.476562 81.5625 144.316406 82.59375 144.316406 C 83.089844 144.316406 83.542969 144.117188 83.878906 143.800781 C 83.878906 143.800781 83.878906 143.796875 83.882812 143.796875 C 83.933594 143.746094 83.984375 143.691406 84.03125 143.636719 C 84.085938 143.570312 84.132812 143.503906 84.179688 143.429688 C 84.179688 143.429688 84.179688 143.429688 84.179688 143.425781 C 84.359375 143.140625 84.460938 142.804688 84.460938 142.445312 C 84.460938 142.164062 84.398438 141.902344 84.289062 141.664062 L 85.277344 140.285156 C 85.554688 140.628906 85.765625 141.023438 85.894531 141.457031 C 85.921875 141.550781 85.949219 141.648438 85.96875 141.742188 C 86 141.898438 86.023438 142.0625 86.03125 142.222656 C 86.035156 142.296875 86.039062 142.371094 86.039062 142.445312 C 86.039062 142.519531 86.035156 142.59375 86.03125 142.664062 C 86.023438 142.828125 86 142.988281 85.96875 143.144531 C 85.949219 143.242188 85.921875 143.339844 85.894531 143.433594 C 85.730469 143.980469 85.433594 144.472656 85.039062 144.871094 C 85.039062 144.871094 85.039062 144.871094 85.035156 144.875 C 84.988281 144.921875 84.941406 144.96875 84.890625 145.011719 C 84.839844 145.058594 84.789062 145.097656 84.738281 145.140625 C 84.738281 145.140625 84.738281 145.140625 84.734375 145.140625 Z M 82.613281 138.59375 L 82.648438 138.355469 C 82.664062 138.253906 82.753906 138.175781 82.855469 138.175781 L 86.050781 138.175781 C 86.117188 138.175781 86.152344 138.222656 86.160156 138.242188 C 86.171875 138.261719 86.191406 138.316406 86.152344 138.371094 L 85.664062 139.050781 L 85.660156 139.054688 L 85.359375 139.480469 L 85.355469 139.480469 L 85.238281 139.648438 L 85.117188 139.816406 L 84.0625 141.292969 L 83.984375 141.394531 L 83.984375 141.398438 L 83.9375 141.460938 L 83.816406 141.636719 L 83.683594 141.820312 L 83.679688 141.820312 L 82.925781 142.878906 C 82.757812 143.109375 82.507812 143.113281 82.34375 143.046875 C 82.179688 142.980469 82 142.804688 82.042969 142.523438 L 82.261719 141.015625 L 82.292969 140.804688 L 82.324219 140.597656 L 82.554688 139 L 82.585938 138.796875 Z M 87.929688 136.9375 L 87.929688 137.773438 L 87.746094 137.773438 C 87.441406 137.773438 87.183594 137.996094 87.140625 138.296875 L 87.09375 138.613281 C 86.84375 138.636719 86.601562 138.6875 86.371094 138.757812 L 86.480469 138.605469 C 86.59375 138.445312 86.609375 138.234375 86.519531 138.058594 C 86.429688 137.882812 86.25 137.773438 86.050781 137.773438 L 85.820312 137.773438 L 85.820312 136.9375 Z M 87.421875 143.488281 C 87.703125 143.488281 87.96875 143.355469 88.140625 143.113281 L 88.894531 142.058594 C 88.929688 142.183594 88.949219 142.3125 88.949219 142.445312 C 88.949219 143.253906 88.289062 143.910156 87.480469 143.910156 C 87.414062 143.910156 87.34375 143.90625 87.28125 143.894531 C 87.335938 143.761719 87.378906 143.625 87.417969 143.488281 C 87.421875 143.488281 87.421875 143.488281 87.421875 143.488281 Z M 83.894531 143.117188 C 83.851562 143.199219 83.800781 143.28125 83.742188 143.351562 C 83.742188 143.355469 83.742188 143.355469 83.738281 143.355469 C 83.472656 143.695312 83.058594 143.910156 82.59375 143.910156 C 81.785156 143.910156 81.125 143.253906 81.125 142.445312 C 81.125 141.914062 81.40625 141.453125 81.828125 141.195312 L 81.644531 142.464844 C 81.582031 142.878906 81.804688 143.261719 82.195312 143.421875 C 82.304688 143.464844 82.421875 143.488281 82.535156 143.488281 C 82.8125 143.488281 83.078125 143.355469 83.253906 143.113281 L 83.632812 142.582031 L 83.632812 142.578125 L 83.835938 142.296875 L 84.007812 142.058594 C 84.019531 142.113281 84.03125 142.167969 84.042969 142.226562 C 84.042969 142.226562 84.042969 142.230469 84.042969 142.234375 C 84.050781 142.304688 84.058594 142.375 84.058594 142.445312 C 84.058594 142.519531 84.050781 142.59375 84.042969 142.664062 C 84.039062 142.664062 84.039062 142.667969 84.039062 142.667969 C 84.015625 142.828125 83.96875 142.976562 83.894531 143.117188 Z M 86.859375 140.222656 C 86.792969 140.128906 86.71875 140.035156 86.644531 139.945312 L 86.964844 139.5 Z M 83.445312 136.9375 L 85.417969 136.9375 L 85.417969 137.773438 L 83.445312 137.773438 Z M 63.085938 138.242188 C 63.097656 138.261719 63.117188 138.316406 63.078125 138.371094 L 62.164062 139.648438 L 62.042969 139.816406 L 61.925781 139.980469 L 60.988281 141.289062 L 60.863281 141.460938 L 60.742188 141.636719 L 59.851562 142.878906 C 59.765625 142.996094 59.65625 143.054688 59.550781 143.074219 C 59.480469 143.085938 59.410156 143.085938 59.347656 143.070312 C 59.320312 143.0625 59.292969 143.054688 59.269531 143.046875 C 59.230469 143.03125 59.195312 143.011719 59.160156 142.984375 C 59.035156 142.894531 58.9375 142.738281 58.96875 142.523438 L 59.101562 141.617188 L 59.167969 141.15625 L 59.1875 141.015625 L 59.21875 140.804688 L 59.222656 140.777344 L 59.25 140.597656 L 59.480469 139 L 59.511719 138.796875 L 59.539062 138.59375 L 59.574219 138.355469 C 59.589844 138.253906 59.679688 138.175781 59.78125 138.175781 L 62.976562 138.175781 C 63.042969 138.175781 63.074219 138.222656 63.085938 138.242188 Z M 59.519531 145.890625 C 58.984375 145.890625 58.476562 145.769531 58.023438 145.550781 C 58.488281 145.210938 58.867188 144.773438 59.136719 144.273438 C 59.257812 144.300781 59.386719 144.316406 59.519531 144.316406 C 60.550781 144.316406 61.386719 143.476562 61.386719 142.445312 C 61.386719 142.164062 61.324219 141.902344 61.214844 141.664062 L 62.203125 140.285156 C 62.679688 140.875 62.964844 141.628906 62.964844 142.445312 C 62.964844 144.347656 61.417969 145.890625 59.519531 145.890625 Z M 56.773438 145.140625 C 56.183594 145.609375 55.441406 145.890625 54.628906 145.890625 C 52.730469 145.890625 51.183594 144.347656 51.183594 142.445312 C 51.183594 140.695312 52.492188 139.246094 54.183594 139.027344 L 53.9375 140.710938 C 53.25 140.984375 52.761719 141.660156 52.761719 142.445312 C 52.761719 143.476562 53.597656 144.316406 54.628906 144.316406 C 55.128906 144.316406 55.578125 144.117188 55.914062 143.800781 C 55.914062 143.800781 55.917969 143.796875 55.917969 143.796875 C 55.972656 143.746094 56.023438 143.695312 56.070312 143.636719 C 56.125 143.570312 56.171875 143.503906 56.214844 143.433594 C 56.214844 143.429688 56.21875 143.429688 56.21875 143.429688 C 56.394531 143.140625 56.5 142.804688 56.5 142.445312 C 56.5 142.164062 56.4375 141.902344 56.328125 141.664062 L 57.3125 140.285156 C 57.589844 140.628906 57.804688 141.023438 57.933594 141.457031 C 57.960938 141.550781 57.984375 141.648438 58.003906 141.742188 C 58.039062 141.898438 58.058594 142.0625 58.070312 142.222656 C 58.074219 142.296875 58.078125 142.371094 58.078125 142.445312 C 58.078125 142.519531 58.074219 142.59375 58.070312 142.664062 C 58.058594 142.828125 58.039062 142.988281 58.003906 143.144531 C 57.984375 143.242188 57.960938 143.339844 57.933594 143.433594 C 57.769531 143.980469 57.46875 144.472656 57.074219 144.871094 C 57.074219 144.871094 57.074219 144.871094 57.074219 144.875 C 57.027344 144.921875 56.976562 144.96875 56.929688 145.011719 C 56.878906 145.054688 56.828125 145.097656 56.773438 145.140625 Z M 54.652344 138.59375 L 54.6875 138.355469 C 54.703125 138.253906 54.789062 138.175781 54.894531 138.175781 L 58.089844 138.175781 C 58.15625 138.175781 58.1875 138.222656 58.199219 138.242188 C 58.207031 138.261719 58.226562 138.316406 58.1875 138.371094 L 57.703125 139.050781 L 57.699219 139.054688 L 57.394531 139.480469 L 57.273438 139.648438 L 57.15625 139.816406 L 57.035156 139.980469 L 56.097656 141.289062 L 56.023438 141.394531 L 56.023438 141.398438 L 55.976562 141.460938 L 55.851562 141.636719 L 55.71875 141.820312 L 54.960938 142.878906 C 54.796875 143.109375 54.546875 143.113281 54.382812 143.046875 C 54.21875 142.980469 54.039062 142.804688 54.082031 142.523438 L 54.300781 141.015625 L 54.332031 140.804688 L 54.359375 140.597656 L 54.59375 139 L 54.621094 138.796875 Z M 59.96875 137.773438 L 59.78125 137.773438 C 59.480469 137.773438 59.21875 137.996094 59.175781 138.296875 L 59.128906 138.613281 C 58.882812 138.636719 58.640625 138.6875 58.40625 138.757812 L 58.515625 138.605469 C 58.632812 138.445312 58.648438 138.234375 58.558594 138.058594 C 58.464844 137.882812 58.285156 137.773438 58.089844 137.773438 L 57.859375 137.773438 L 57.859375 136.9375 L 59.96875 136.9375 Z M 59.460938 143.488281 C 59.738281 143.488281 60.003906 143.355469 60.179688 143.113281 L 60.933594 142.058594 C 60.964844 142.183594 60.984375 142.3125 60.984375 142.445312 C 60.984375 143.253906 60.328125 143.910156 59.519531 143.910156 C 59.449219 143.910156 59.382812 143.90625 59.316406 143.894531 C 59.371094 143.761719 59.417969 143.625 59.457031 143.488281 C 59.457031 143.488281 59.460938 143.488281 59.460938 143.488281 Z M 55.933594 143.117188 C 55.890625 143.199219 55.835938 143.28125 55.78125 143.351562 C 55.777344 143.355469 55.777344 143.355469 55.777344 143.355469 C 55.507812 143.695312 55.09375 143.910156 54.628906 143.910156 C 53.820312 143.910156 53.164062 143.253906 53.164062 142.445312 C 53.164062 141.914062 53.445312 141.453125 53.867188 141.195312 L 53.679688 142.464844 C 53.621094 142.878906 53.839844 143.261719 54.230469 143.421875 C 54.34375 143.464844 54.457031 143.488281 54.570312 143.488281 C 54.851562 143.488281 55.117188 143.355469 55.289062 143.113281 L 55.671875 142.582031 L 55.671875 142.578125 L 55.871094 142.296875 L 56.042969 142.058594 C 56.058594 142.113281 56.070312 142.167969 56.078125 142.222656 C 56.078125 142.226562 56.078125 142.230469 56.078125 142.234375 C 56.089844 142.304688 56.097656 142.375 56.097656 142.445312 C 56.097656 142.519531 56.089844 142.59375 56.078125 142.664062 C 56.078125 142.667969 56.078125 142.667969 56.078125 142.667969 C 56.054688 142.828125 56.003906 142.976562 55.933594 143.117188 Z M 58.894531 140.222656 C 58.828125 140.128906 58.757812 140.035156 58.679688 139.945312 L 59 139.5 Z M 55.484375 136.9375 L 57.457031 136.9375 L 57.457031 137.773438 L 55.484375 137.773438 Z M 54.867188 104.324219 L 57.121094 112.421875 L 64.179688 112.125 L 63.199219 104.417969 Z M 57.421875 112.003906 L 55.398438 104.734375 L 62.84375 104.816406 L 63.726562 111.738281 Z M 72.550781 111.769531 L 78.707031 111.511719 L 79.28125 104.59375 L 72.402344 104.519531 Z M 72.945312 111.351562 L 72.8125 104.925781 L 78.84375 104.992188 L 78.335938 111.125 Z M 79.503906 111.476562 L 85.636719 111.21875 L 86.722656 104.675781 L 80.074219 104.605469 Z M 86.25 105.074219 L 85.292969 110.832031 L 79.941406 111.054688 L 80.445312 105.011719 Z M 64 104.425781 L 64.972656 112.089844 L 71.761719 111.804688 L 71.613281 104.511719 Z M 71.214844 104.910156 L 71.351562 111.417969 L 65.324219 111.671875 L 64.457031 104.832031 Z M 71.214844 104.910156 " fill-opacity="1" fill-rule="nonzero"/></g><path stroke-linecap="butt" transform="matrix(0.3748, 0, 0, 0.3748, 40.728331, 71.158552)" fill="none" stroke-linejoin="miter" d="M 78.891533 15.439598 C 79.985866 16.054509 80.9864 16.85702 81.872289 17.847132 C 82.633112 18.691332 83.341823 19.785666 83.988001 21.130133 C 84.613335 22.464178 84.915579 24.079623 84.915579 25.955624 C 84.915579 28.217247 84.550801 30.260003 83.821246 32.094315 C 83.060423 33.939049 81.976512 35.512805 80.600778 36.805161 C 79.183355 38.139206 77.463688 39.181429 75.441776 39.910984 C 73.367753 40.64054 71.01233 40.994896 68.375506 40.994896 L 53.325812 40.994896 L 53.325812 -1.090053 L 68.375506 -1.090053 C 71.01233 -1.090053 73.200997 -0.766964 74.920664 -0.120786 C 76.640332 0.567081 78.016066 1.432126 79.058288 2.474348 C 80.079666 3.495727 80.809222 4.621327 81.226111 5.85115 C 81.663845 7.112239 81.872289 8.300373 81.872289 9.415551 C 81.872289 10.48904 81.715956 11.406196 81.413711 12.177441 C 81.069778 12.938263 80.705 13.553175 80.319378 14.011753 C 79.933755 14.501597 79.589822 14.866375 79.277155 15.106086 C 78.97491 15.324953 78.839421 15.439598 78.891533 15.439598 Z M 71.356263 9.415551 C 71.356263 7.91475 70.939374 6.78915 70.095174 6.028327 C 69.219707 5.298772 67.625106 4.933994 65.332216 4.933994 L 65.332216 13.949219 C 67.625106 13.949219 69.219707 13.574019 70.095174 12.802774 C 70.939374 12.073219 71.356263 10.947618 71.356263 9.415551 Z M 65.332216 34.970849 C 66.822595 34.970849 68.073262 34.720716 69.063373 34.230871 C 70.022218 33.720182 70.783041 33.094849 71.356263 32.334026 C 71.929486 31.60447 72.32553 30.801959 72.565241 29.905647 C 72.752841 29.03018 72.846641 28.206825 72.846641 27.446002 C 72.846641 26.726868 72.752841 25.913935 72.565241 25.028046 C 72.32553 24.152579 71.929486 23.329223 71.356263 22.557978 C 70.783041 21.828422 70.022218 21.223933 69.063373 20.723666 C 68.073262 20.233822 66.822595 19.983688 65.332216 19.983688 Z M 94.504027 -1.090053 L 106.50001 -1.090053 L 106.50001 40.994896 L 94.504027 40.994896 Z M 153.712694 16.940398 L 153.712694 31.97967 C 152.71216 33.699338 151.388537 35.220983 149.741826 36.523761 C 149.053959 37.096983 148.241025 37.649361 147.323869 38.180895 C 146.375447 38.722851 145.322802 39.202273 144.176357 39.629584 C 142.988223 40.046473 141.685445 40.369562 140.2576 40.588429 C 138.850599 40.859407 137.30811 40.994896 135.619709 40.994896 C 132.357552 40.994896 129.522707 40.411251 127.115173 39.223118 C 124.66595 38.06625 122.633615 36.534183 121.028593 34.616494 C 119.381881 32.709226 118.152058 30.510137 117.349547 28.019224 C 116.515769 25.570001 116.088458 23.047823 116.088458 20.442266 C 116.088458 17.763754 116.526191 15.137353 117.41208 12.563063 C 118.287547 9.999196 119.61117 7.706306 121.372526 5.684394 C 123.092193 3.65206 125.280861 2.005348 127.928106 0.744259 C 130.56493 -0.475142 133.639486 -1.090053 137.162199 -1.090053 C 139.423822 -1.090053 141.393622 -0.704431 143.082023 0.0563919 C 144.760001 0.858903 146.15658 1.744793 147.271758 2.693215 C 148.574536 3.808393 149.700137 5.048638 150.669404 6.424372 L 146.177424 10.905929 C 145.833491 9.801173 145.322802 8.80064 144.634935 7.925173 C 144.061712 7.153928 143.290468 6.466061 142.342045 5.85115 C 141.372778 5.246661 140.153378 4.933994 138.662999 4.933994 C 137.089243 4.933994 135.734354 5.392572 134.587909 6.309728 C 133.431042 7.226883 132.472197 8.415017 131.711374 9.874129 C 130.94013 11.364507 130.366907 13.052908 129.981285 14.918486 C 129.606085 16.804909 129.408062 18.712177 129.408062 20.671555 C 129.408062 22.4746 129.58524 24.235956 129.929174 25.955624 C 130.241841 27.675291 130.710841 29.207358 131.357019 30.551825 C 132.013619 31.88587 132.836975 32.95936 133.837509 33.761871 C 134.796353 34.564382 135.901109 34.970849 137.162199 34.970849 C 137.933443 34.970849 138.579621 34.897894 139.111155 34.74156 C 139.653111 34.585227 140.122111 34.418471 140.497311 34.230871 C 140.924622 34.032849 141.299822 33.782716 141.654178 33.470049 L 141.654178 22.964445 L 134.118909 22.964445 L 135.619709 16.940398 Z M 153.712694 16.940398 " stroke="#e1aa74" stroke-width="2.153704" stroke-opacity="1" stroke-miterlimit="4"/><g fill="#ffffff" fill-opacity="0.4"><g transform="translate(59.703753, 87.958485)"><g><path d="M 10.890625 -9.796875 C 11.316406 -9.554688 11.703125 -9.25 12.046875 -8.875 C 12.335938 -8.550781 12.609375 -8.132812 12.859375 -7.625 C 13.085938 -7.101562 13.203125 -6.484375 13.203125 -5.765625 C 13.203125 -4.898438 13.066406 -4.113281 12.796875 -3.40625 C 12.492188 -2.707031 12.082031 -2.109375 11.5625 -1.609375 C 11.019531 -1.097656 10.359375 -0.703125 9.578125 -0.421875 C 8.785156 -0.140625 7.882812 0 6.875 0 L 1.09375 0 L 1.09375 -16.140625 L 6.875 -16.140625 C 7.882812 -16.140625 8.71875 -16.015625 9.375 -15.765625 C 10.039062 -15.492188 10.570312 -15.160156 10.96875 -14.765625 C 11.363281 -14.367188 11.640625 -13.9375 11.796875 -13.46875 C 11.960938 -12.988281 12.046875 -12.535156 12.046875 -12.109375 C 12.046875 -11.691406 11.984375 -11.335938 11.859375 -11.046875 C 11.734375 -10.753906 11.597656 -10.519531 11.453125 -10.34375 C 11.304688 -10.15625 11.171875 -10.015625 11.046875 -9.921875 C 10.929688 -9.835938 10.878906 -9.796875 10.890625 -9.796875 Z M 8.015625 -12.109375 C 8.015625 -12.679688 7.851562 -13.113281 7.53125 -13.40625 C 7.1875 -13.6875 6.578125 -13.828125 5.703125 -13.828125 L 5.703125 -10.375 C 6.578125 -10.375 7.1875 -10.519531 7.53125 -10.8125 C 7.851562 -11.09375 8.015625 -11.523438 8.015625 -12.109375 Z M 5.703125 -2.3125 C 6.273438 -2.3125 6.753906 -2.40625 7.140625 -2.59375 C 7.503906 -2.789062 7.796875 -3.035156 8.015625 -3.328125 C 8.234375 -3.609375 8.382812 -3.914062 8.46875 -4.25 C 8.550781 -4.582031 8.59375 -4.898438 8.59375 -5.203125 C 8.59375 -5.472656 8.550781 -5.78125 8.46875 -6.125 C 8.382812 -6.457031 8.234375 -6.769531 8.015625 -7.0625 C 7.796875 -7.34375 7.503906 -7.578125 7.140625 -7.765625 C 6.753906 -7.960938 6.273438 -8.0625 5.703125 -8.0625 Z M 5.703125 -2.3125 "/></g></g></g><g fill="#ffffff" fill-opacity="0.4"><g transform="translate(75.492218, 87.958485)"><g><path d="M 1.09375 -16.140625 L 5.703125 -16.140625 L 5.703125 0 L 1.09375 0 Z M 1.09375 -16.140625 "/></g></g></g><g fill="#ffffff" fill-opacity="0.4"><g transform="translate(84.212429, 87.958485)"><g><path d="M 15.078125 -9.21875 L 15.078125 -3.453125 C 14.703125 -2.796875 14.195312 -2.21875 13.5625 -1.71875 C 13.300781 -1.5 12.992188 -1.285156 12.640625 -1.078125 C 12.273438 -0.867188 11.867188 -0.6875 11.421875 -0.53125 C 10.972656 -0.363281 10.472656 -0.238281 9.921875 -0.15625 C 9.378906 -0.0507812 8.785156 0 8.140625 0 C 6.898438 0 5.816406 -0.226562 4.890625 -0.6875 C 3.953125 -1.125 3.171875 -1.707031 2.546875 -2.4375 C 1.921875 -3.175781 1.453125 -4.019531 1.140625 -4.96875 C 0.816406 -5.914062 0.65625 -6.882812 0.65625 -7.875 C 0.65625 -8.90625 0.828125 -9.910156 1.171875 -10.890625 C 1.503906 -11.878906 2.007812 -12.765625 2.6875 -13.546875 C 3.34375 -14.316406 4.179688 -14.945312 5.203125 -15.4375 C 6.210938 -15.90625 7.390625 -16.140625 8.734375 -16.140625 C 9.609375 -16.140625 10.363281 -15.992188 11 -15.703125 C 11.644531 -15.390625 12.179688 -15.050781 12.609375 -14.6875 C 13.109375 -14.257812 13.539062 -13.78125 13.90625 -13.25 L 12.203125 -11.53125 C 12.066406 -11.957031 11.867188 -12.34375 11.609375 -12.6875 C 11.378906 -12.976562 11.082031 -13.238281 10.71875 -13.46875 C 10.351562 -13.707031 9.882812 -13.828125 9.3125 -13.828125 C 8.707031 -13.828125 8.1875 -13.648438 7.75 -13.296875 C 7.3125 -12.941406 6.945312 -12.488281 6.65625 -11.9375 C 6.351562 -11.363281 6.128906 -10.71875 5.984375 -10 C 5.835938 -9.28125 5.765625 -8.546875 5.765625 -7.796875 C 5.765625 -7.109375 5.832031 -6.429688 5.96875 -5.765625 C 6.082031 -5.109375 6.265625 -4.519531 6.515625 -4 C 6.765625 -3.488281 7.082031 -3.082031 7.46875 -2.78125 C 7.832031 -2.46875 8.253906 -2.3125 8.734375 -2.3125 C 9.035156 -2.3125 9.285156 -2.34375 9.484375 -2.40625 C 9.691406 -2.457031 9.867188 -2.519531 10.015625 -2.59375 C 10.179688 -2.664062 10.328125 -2.765625 10.453125 -2.890625 L 10.453125 -6.90625 L 7.578125 -6.90625 L 8.140625 -9.21875 Z M 15.078125 -9.21875 "/></g></g></g><g fill="#145da0" fill-opacity="1"><g transform="translate(58.730365, 86.985094)"><g><path d="M 10.890625 -9.796875 C 11.316406 -9.554688 11.703125 -9.25 12.046875 -8.875 C 12.335938 -8.550781 12.609375 -8.132812 12.859375 -7.625 C 13.085938 -7.101562 13.203125 -6.484375 13.203125 -5.765625 C 13.203125 -4.898438 13.066406 -4.113281 12.796875 -3.40625 C 12.492188 -2.707031 12.082031 -2.109375 11.5625 -1.609375 C 11.019531 -1.097656 10.359375 -0.703125 9.578125 -0.421875 C 8.785156 -0.140625 7.882812 0 6.875 0 L 1.09375 0 L 1.09375 -16.140625 L 6.875 -16.140625 C 7.882812 -16.140625 8.71875 -16.015625 9.375 -15.765625 C 10.039062 -15.492188 10.570312 -15.160156 10.96875 -14.765625 C 11.363281 -14.367188 11.640625 -13.9375 11.796875 -13.46875 C 11.960938 -12.988281 12.046875 -12.535156 12.046875 -12.109375 C 12.046875 -11.691406 11.984375 -11.335938 11.859375 -11.046875 C 11.734375 -10.753906 11.597656 -10.519531 11.453125 -10.34375 C 11.304688 -10.15625 11.171875 -10.015625 11.046875 -9.921875 C 10.929688 -9.835938 10.878906 -9.796875 10.890625 -9.796875 Z M 8.015625 -12.109375 C 8.015625 -12.679688 7.851562 -13.113281 7.53125 -13.40625 C 7.1875 -13.6875 6.578125 -13.828125 5.703125 -13.828125 L 5.703125 -10.375 C 6.578125 -10.375 7.1875 -10.519531 7.53125 -10.8125 C 7.851562 -11.09375 8.015625 -11.523438 8.015625 -12.109375 Z M 5.703125 -2.3125 C 6.273438 -2.3125 6.753906 -2.40625 7.140625 -2.59375 C 7.503906 -2.789062 7.796875 -3.035156 8.015625 -3.328125 C 8.234375 -3.609375 8.382812 -3.914062 8.46875 -4.25 C 8.550781 -4.582031 8.59375 -4.898438 8.59375 -5.203125 C 8.59375 -5.472656 8.550781 -5.78125 8.46875 -6.125 C 8.382812 -6.457031 8.234375 -6.769531 8.015625 -7.0625 C 7.796875 -7.34375 7.503906 -7.578125 7.140625 -7.765625 C 6.753906 -7.960938 6.273438 -8.0625 5.703125 -8.0625 Z M 5.703125 -2.3125 "/></g></g></g><g fill="#145da0" fill-opacity="1"><g transform="translate(74.518829, 86.985094)"><g><path d="M 1.09375 -16.140625 L 5.703125 -16.140625 L 5.703125 0 L 1.09375 0 Z M 1.09375 -16.140625 "/></g></g></g><g fill="#145da0" fill-opacity="1"><g transform="translate(83.239041, 86.985094)"><g><path d="M 15.078125 -9.21875 L 15.078125 -3.453125 C 14.703125 -2.796875 14.195312 -2.21875 13.5625 -1.71875 C 13.300781 -1.5 12.992188 -1.285156 12.640625 -1.078125 C 12.273438 -0.867188 11.867188 -0.6875 11.421875 -0.53125 C 10.972656 -0.363281 10.472656 -0.238281 9.921875 -0.15625 C 9.378906 -0.0507812 8.785156 0 8.140625 0 C 6.898438 0 5.816406 -0.226562 4.890625 -0.6875 C 3.953125 -1.125 3.171875 -1.707031 2.546875 -2.4375 C 1.921875 -3.175781 1.453125 -4.019531 1.140625 -4.96875 C 0.816406 -5.914062 0.65625 -6.882812 0.65625 -7.875 C 0.65625 -8.90625 0.828125 -9.910156 1.171875 -10.890625 C 1.503906 -11.878906 2.007812 -12.765625 2.6875 -13.546875 C 3.34375 -14.316406 4.179688 -14.945312 5.203125 -15.4375 C 6.210938 -15.90625 7.390625 -16.140625 8.734375 -16.140625 C 9.609375 -16.140625 10.363281 -15.992188 11 -15.703125 C 11.644531 -15.390625 12.179688 -15.050781 12.609375 -14.6875 C 13.109375 -14.257812 13.539062 -13.78125 13.90625 -13.25 L 12.203125 -11.53125 C 12.066406 -11.957031 11.867188 -12.34375 11.609375 -12.6875 C 11.378906 -12.976562 11.082031 -13.238281 10.71875 -13.46875 C 10.351562 -13.707031 9.882812 -13.828125 9.3125 -13.828125 C 8.707031 -13.828125 8.1875 -13.648438 7.75 -13.296875 C 7.3125 -12.941406 6.945312 -12.488281 6.65625 -11.9375 C 6.351562 -11.363281 6.128906 -10.71875 5.984375 -10 C 5.835938 -9.28125 5.765625 -8.546875 5.765625 -7.796875 C 5.765625 -7.109375 5.832031 -6.429688 5.96875 -5.765625 C 6.082031 -5.109375 6.265625 -4.519531 6.515625 -4 C 6.765625 -3.488281 7.082031 -3.082031 7.46875 -2.78125 C 7.832031 -2.46875 8.253906 -2.3125 8.734375 -2.3125 C 9.035156 -2.3125 9.285156 -2.34375 9.484375 -2.40625 C 9.691406 -2.457031 9.867188 -2.519531 10.015625 -2.59375 C 10.179688 -2.664062 10.328125 -2.765625 10.453125 -2.890625 L 10.453125 -6.90625 L 7.578125 -6.90625 L 8.140625 -9.21875 Z M 15.078125 -9.21875 "/></g></g></g><g fill="#80621d" fill-opacity="0.4"><g transform="translate(109.502012, 151.850891)"><g><path d="M 15.96875 -7.15625 C 15.96875 -6.144531 15.769531 -5.207031 15.375 -4.34375 C 14.988281 -3.476562 14.484375 -2.734375 13.859375 -2.109375 C 13.234375 -1.484375 12.46875 -0.972656 11.5625 -0.578125 C 10.664062 -0.191406 9.75 0 8.8125 0 C 7.789062 0 6.847656 -0.191406 5.984375 -0.578125 C 5.128906 -0.972656 4.382812 -1.484375 3.75 -2.109375 C 3.125 -2.734375 2.613281 -3.476562 2.21875 -4.34375 C 1.832031 -5.207031 1.640625 -6.144531 1.640625 -7.15625 L 1.640625 -72.90625 C 1.640625 -73.84375 1.832031 -74.742188 2.21875 -75.609375 C 2.613281 -76.472656 3.125 -77.234375 3.75 -77.890625 C 4.382812 -78.554688 5.128906 -79.085938 5.984375 -79.484375 C 6.847656 -79.878906 7.789062 -80.078125 8.8125 -80.078125 C 9.75 -80.078125 10.664062 -79.878906 11.5625 -79.484375 C 12.46875 -79.085938 13.234375 -78.554688 13.859375 -77.890625 C 14.484375 -77.234375 14.988281 -76.472656 15.375 -75.609375 C 15.769531 -74.742188 15.96875 -73.84375 15.96875 -72.90625 L 15.96875 -70.5625 L 11.15625 -70.5625 L 11.15625 -72.90625 C 11.15625 -73.53125 10.921875 -74.078125 10.453125 -74.546875 C 9.984375 -75.023438 9.4375 -75.265625 8.8125 -75.265625 C 8.101562 -75.265625 7.53125 -75.023438 7.09375 -74.546875 C 6.664062 -74.078125 6.453125 -73.53125 6.453125 -72.90625 L 6.453125 -7.15625 C 6.453125 -6.457031 6.664062 -5.875 7.09375 -5.40625 C 7.53125 -4.9375 8.101562 -4.703125 8.8125 -4.703125 C 9.4375 -4.703125 9.984375 -4.9375 10.453125 -5.40625 C 10.921875 -5.875 11.15625 -6.457031 11.15625 -7.15625 L 11.15625 -9.515625 L 15.96875 -9.515625 Z M 15.96875 -7.15625 "/></g></g></g><g fill="#ffc74c" fill-opacity="1"><g transform="translate(106.554503, 148.903382)"><g><path d="M 15.96875 -7.15625 C 15.96875 -6.144531 15.769531 -5.207031 15.375 -4.34375 C 14.988281 -3.476562 14.484375 -2.734375 13.859375 -2.109375 C 13.234375 -1.484375 12.46875 -0.972656 11.5625 -0.578125 C 10.664062 -0.191406 9.75 0 8.8125 0 C 7.789062 0 6.847656 -0.191406 5.984375 -0.578125 C 5.128906 -0.972656 4.382812 -1.484375 3.75 -2.109375 C 3.125 -2.734375 2.613281 -3.476562 2.21875 -4.34375 C 1.832031 -5.207031 1.640625 -6.144531 1.640625 -7.15625 L 1.640625 -72.90625 C 1.640625 -73.84375 1.832031 -74.742188 2.21875 -75.609375 C 2.613281 -76.472656 3.125 -77.234375 3.75 -77.890625 C 4.382812 -78.554688 5.128906 -79.085938 5.984375 -79.484375 C 6.847656 -79.878906 7.789062 -80.078125 8.8125 -80.078125 C 9.75 -80.078125 10.664062 -79.878906 11.5625 -79.484375 C 12.46875 -79.085938 13.234375 -78.554688 13.859375 -77.890625 C 14.484375 -77.234375 14.988281 -76.472656 15.375 -75.609375 C 15.769531 -74.742188 15.96875 -73.84375 15.96875 -72.90625 L 15.96875 -70.5625 L 11.15625 -70.5625 L 11.15625 -72.90625 C 11.15625 -73.53125 10.921875 -74.078125 10.453125 -74.546875 C 9.984375 -75.023438 9.4375 -75.265625 8.8125 -75.265625 C 8.101562 -75.265625 7.53125 -75.023438 7.09375 -74.546875 C 6.664062 -74.078125 6.453125 -73.53125 6.453125 -72.90625 L 6.453125 -7.15625 C 6.453125 -6.457031 6.664062 -5.875 7.09375 -5.40625 C 7.53125 -4.9375 8.101562 -4.703125 8.8125 -4.703125 C 9.4375 -4.703125 9.984375 -4.9375 10.453125 -5.40625 C 10.921875 -5.875 11.15625 -6.457031 11.15625 -7.15625 L 11.15625 -9.515625 L 15.96875 -9.515625 Z M 15.96875 -7.15625 "/></g></g></g><g fill="#80621d" fill-opacity="0.4"><g transform="translate(127.11761, 151.850891)"><g><path d="M 15.5 0 L 10.6875 0 L 9.390625 -19.953125 L 6.109375 -19.953125 L 4.8125 0 L 0 0 L 5.40625 -80.078125 L 10.21875 -80.078125 Z M 9.046875 -24.765625 L 7.75 -44.03125 L 6.453125 -24.765625 Z M 9.046875 -24.765625 "/></g></g></g><g fill="#3876bf" fill-opacity="1"><g transform="translate(124.170102, 148.903382)"><g><path d="M 15.5 0 L 10.6875 0 L 9.390625 -19.953125 L 6.109375 -19.953125 L 4.8125 0 L 0 0 L 5.40625 -80.078125 L 10.21875 -80.078125 Z M 9.046875 -24.765625 L 7.75 -44.03125 L 6.453125 -24.765625 Z M 9.046875 -24.765625 "/></g></g></g><g fill="#80621d" fill-opacity="0.4"><g transform="translate(142.736228, 151.850891)"><g><path d="M 11.734375 0 L 7.046875 -20.078125 L 6.453125 -20.078125 L 6.453125 0 L 1.640625 0 L 1.640625 -80.078125 L 8.8125 -80.078125 C 9.75 -80.078125 10.664062 -79.898438 11.5625 -79.546875 C 12.46875 -79.191406 13.234375 -78.679688 13.859375 -78.015625 C 14.484375 -77.347656 14.988281 -76.582031 15.375 -75.71875 C 15.769531 -74.863281 15.96875 -73.96875 15.96875 -73.03125 L 15.96875 -27.125 C 15.96875 -25.707031 15.578125 -24.429688 14.796875 -23.296875 C 14.015625 -22.171875 13.035156 -21.289062 11.859375 -20.65625 L 16.796875 0 Z M 6.453125 -24.765625 L 8.8125 -24.765625 C 9.4375 -24.765625 9.984375 -25 10.453125 -25.46875 C 10.921875 -25.945312 11.15625 -26.5 11.15625 -27.125 L 11.15625 -73.03125 C 11.15625 -73.65625 10.921875 -74.203125 10.453125 -74.671875 C 9.984375 -75.140625 9.4375 -75.375 8.8125 -75.375 L 6.453125 -75.375 Z M 6.453125 -24.765625 "/></g></g></g><g fill="#ffc74c" fill-opacity="1"><g transform="translate(139.788719, 148.903382)"><g><path d="M 11.734375 0 L 7.046875 -20.078125 L 6.453125 -20.078125 L 6.453125 0 L 1.640625 0 L 1.640625 -80.078125 L 8.8125 -80.078125 C 9.75 -80.078125 10.664062 -79.898438 11.5625 -79.546875 C 12.46875 -79.191406 13.234375 -78.679688 13.859375 -78.015625 C 14.484375 -77.347656 14.988281 -76.582031 15.375 -75.71875 C 15.769531 -74.863281 15.96875 -73.96875 15.96875 -73.03125 L 15.96875 -27.125 C 15.96875 -25.707031 15.578125 -24.429688 14.796875 -23.296875 C 14.015625 -22.171875 13.035156 -21.289062 11.859375 -20.65625 L 16.796875 0 Z M 6.453125 -24.765625 L 8.8125 -24.765625 C 9.4375 -24.765625 9.984375 -25 10.453125 -25.46875 C 10.921875 -25.945312 11.15625 -26.5 11.15625 -27.125 L 11.15625 -73.03125 C 11.15625 -73.65625 10.921875 -74.203125 10.453125 -74.671875 C 9.984375 -75.140625 9.4375 -75.375 8.8125 -75.375 L 6.453125 -75.375 Z M 6.453125 -24.765625 "/></g></g></g><g fill="#80621d" fill-opacity="0.4"><g transform="translate(159.883326, 151.850891)"><g><path d="M 14.328125 -75.375 L 9.515625 -75.375 L 9.515625 0 L 4.703125 0 L 4.703125 -75.375 L 0 -75.375 L 0 -80.078125 L 14.328125 -80.078125 Z M 14.328125 -75.375 "/></g></g></g><g fill="#3876bf" fill-opacity="1"><g transform="translate(156.935818, 148.903382)"><g><path d="M 14.328125 -75.375 L 9.515625 -75.375 L 9.515625 0 L 4.703125 0 L 4.703125 -75.375 L 0 -75.375 L 0 -80.078125 L 14.328125 -80.078125 Z M 14.328125 -75.375 "/></g></g></g><path stroke-linecap="butt" transform="matrix(0.3748, 0, 0, 0.3748, 106.554503, 70.520228)" fill="none" stroke-linejoin="miter" d="M 42.940063 189.745188 C 42.940063 192.486233 42.408529 195.018834 41.366306 197.353413 C 40.313662 199.667147 38.937928 201.657792 37.249527 203.356615 C 35.550704 205.013749 33.497526 206.368638 31.079569 207.421283 C 28.651191 208.473928 26.191545 208.995039 23.679789 208.995039 C 20.938743 208.995039 18.39572 208.473928 16.061142 207.421283 C 13.75783 206.368638 11.756762 205.013749 10.068362 203.356615 C 8.400805 201.657792 7.045916 199.667147 5.993271 197.353413 C 4.951049 195.018834 4.419515 192.486233 4.419515 189.745188 L 4.419515 13.005078 C 4.419515 10.462055 4.951049 8.044098 5.993271 5.730364 C 7.045916 3.427052 8.400805 1.384296 10.068362 -0.397905 C 11.756762 -2.20095 13.75783 -3.628795 16.061142 -4.68144 C 18.39572 -5.734085 20.938743 -6.255196 23.679789 -6.255196 C 26.191545 -6.255196 28.651191 -5.734085 31.079569 -4.68144 C 33.497526 -3.628795 35.550704 -2.20095 37.249527 -0.397905 C 38.937928 1.384296 40.313662 3.427052 41.366306 5.730364 C 42.408529 8.044098 42.940063 10.462055 42.940063 13.005078 L 42.940063 19.300102 L 29.985236 19.300102 L 29.985236 13.005078 C 29.985236 11.306255 29.359902 9.836721 28.098813 8.575632 C 26.848146 7.324965 25.368189 6.699631 23.679789 6.699631 C 21.782944 6.699631 20.250876 7.324965 19.083587 8.575632 C 17.947564 9.836721 17.374342 11.306255 17.374342 13.005078 L 17.374342 189.745188 C 17.374342 191.642033 17.947564 193.226211 19.083587 194.508145 C 20.250876 195.769234 21.782944 196.394568 23.679789 196.394568 C 25.368189 196.394568 26.848146 195.769234 28.098813 194.508145 C 29.359902 193.226211 29.985236 191.642033 29.985236 189.745188 L 29.985236 183.439741 L 42.940063 183.439741 Z M 89.006302 208.995039 L 76.051475 208.995039 L 72.591296 155.341419 L 63.753248 155.341419 L 60.293069 208.995039 L 47.338242 208.995039 L 61.877247 -6.255196 L 74.779963 -6.255196 Z M 71.632451 142.386592 L 68.172272 90.650662 L 64.722515 142.386592 Z M 120.877469 208.995039 L 108.266576 155.028753 L 106.69282 155.028753 L 106.69282 208.995039 L 93.737993 208.995039 L 93.737993 -6.255196 L 112.998266 -6.255196 C 115.510023 -6.255196 117.969668 -5.775774 120.398047 -4.816929 C 122.816003 -3.878928 124.869182 -2.524039 126.568005 -0.741838 C 128.256405 1.040362 129.632139 3.093541 130.674362 5.428119 C 131.727007 7.731431 132.25854 10.15981 132.25854 12.692411 L 132.25854 136.081146 C 132.25854 139.874836 131.205895 143.303748 129.100606 146.367883 C 127.005738 149.400751 124.358493 151.766596 121.179714 153.454997 L 134.447208 208.995039 Z M 106.69282 142.386592 L 112.998266 142.386592 C 114.686667 142.386592 116.166623 141.750837 117.41729 140.50017 C 118.667957 139.249502 119.303713 137.769546 119.303713 136.081146 L 119.303713 12.692411 C 119.303713 11.00401 118.667957 9.524054 117.41729 8.273387 C 116.166623 6.991453 114.686667 6.345275 112.998266 6.345275 L 106.69282 6.345275 Z M 173.916178 6.345275 L 160.961351 6.345275 L 160.961351 208.995039 L 148.006524 208.995039 L 148.006524 6.345275 L 135.39563 6.345275 L 135.39563 -6.255196 L 173.916178 -6.255196 Z M 173.916178 6.345275 " stroke="#3876bf" stroke-width="1.7928" stroke-opacity="1" stroke-miterlimit="4"/></svg>