<svg xmlns="http://www.w3.org/2000/svg" xmlns:xlink="http://www.w3.org/1999/xlink" width="600" zoomAndPan="magnify" viewBox="0 0 450 374.999991" height="500" preserveAspectRatio="xMidYMid meet" version="1.0"><defs><g/><clipPath id="332b9cc376"><path d="M 96 108.246094 L 224.636719 108.246094 L 224.636719 234 L 96 234 Z M 96 108.246094 " clip-rule="nonzero"/></clipPath><clipPath id="95cd7912b9"><path d="M 90 108.246094 L 213 108.246094 L 213 234 L 90 234 Z M 90 108.246094 " clip-rule="nonzero"/></clipPath><clipPath id="3d1764b439"><path d="M 89.636719 108.246094 L 224.636719 108.246094 L 224.636719 234.246094 L 89.636719 234.246094 Z M 89.636719 108.246094 " clip-rule="nonzero"/></clipPath></defs><rect x="-45" width="540" fill="#ffffff" y="-37.499999" height="449.999989" fill-opacity="1"/><rect x="-45" width="540" fill="#ffffff" y="-37.499999" height="449.999989" fill-opacity="1"/><g clip-path="url(#332b9cc376)"><path fill="#e85c0d" d="M 136.519531 221.8125 L 136.316406 221.574219 L 137.140625 220.421875 L 137.867188 220.714844 L 137.511719 223.15625 L 136.929688 222.335938 C 136.800781 222.15625 136.664062 221.980469 136.519531 221.8125 Z M 192.882812 222.335938 L 193.464844 223.15625 L 193.824219 220.714844 L 193.09375 220.421875 L 192.269531 221.574219 L 192.476562 221.8125 C 192.617188 221.980469 192.753906 222.15625 192.882812 222.335938 Z M 107.738281 110.132812 C 107.542969 110.082031 107.375 110.046875 107.203125 110.023438 L 96.488281 108.828125 L 97.535156 109.691406 C 98.601562 110.566406 99.210938 111.859375 99.210938 113.230469 C 99.210938 114.386719 98.773438 115.496094 97.976562 116.347656 L 97.796875 116.542969 L 98.402344 117.9375 L 98.65625 117.945312 C 99.96875 117.992188 106.527344 118.214844 106.679688 118.214844 L 106.6875 118.21875 C 106.707031 118.21875 106.722656 118.214844 106.742188 118.214844 C 106.894531 118.210938 107.046875 118.199219 107.214844 118.179688 C 107.363281 118.160156 107.511719 118.132812 107.664062 118.09375 C 108.539062 117.878906 109.328125 117.371094 109.894531 116.667969 C 110 116.535156 110.097656 116.394531 110.191406 116.234375 C 110.300781 116.054688 110.390625 115.890625 110.460938 115.726562 C 110.683594 115.210938 110.796875 114.664062 110.796875 114.101562 C 110.796875 112.242188 109.539062 110.613281 107.738281 110.132812 Z M 199.808594 221.5625 L 197.390625 224.945312 L 197.488281 225.15625 C 197.691406 225.601562 197.796875 226.070312 197.796875 226.550781 C 197.796875 228.390625 196.296875 229.890625 194.457031 229.890625 C 194.230469 229.890625 194 229.867188 193.773438 229.816406 L 193.480469 229.757812 L 193.335938 230.019531 C 192.820312 230.96875 192.09375 231.804688 191.226562 232.441406 L 190.6875 232.839844 L 191.289062 233.128906 C 192.285156 233.609375 193.347656 233.851562 194.457031 233.851562 C 198.484375 233.851562 201.761719 230.578125 201.761719 226.550781 C 201.761719 224.894531 201.1875 223.269531 200.144531 221.976562 Z M 143.855469 221.5625 L 141.433594 224.945312 L 141.53125 225.15625 C 141.738281 225.601562 141.839844 226.070312 141.839844 226.550781 C 141.839844 228.390625 140.34375 229.890625 138.503906 229.890625 C 138.273438 229.890625 138.042969 229.867188 137.820312 229.816406 L 137.523438 229.757812 L 137.382812 230.019531 C 136.867188 230.96875 136.136719 231.804688 135.273438 232.441406 L 134.730469 232.839844 L 135.335938 233.128906 C 136.328125 233.609375 137.394531 233.851562 138.503906 233.851562 C 142.527344 233.851562 145.804688 230.578125 145.804688 226.550781 C 145.804688 224.894531 145.230469 223.269531 144.1875 221.976562 Z M 223.191406 133.320312 C 222.695312 132.949219 222.105469 132.734375 221.488281 132.699219 L 210.804688 132.074219 L 211.65625 132.84375 C 212.375 133.492188 212.753906 134.414062 212.699219 135.375 C 212.644531 136.308594 212.175781 137.167969 211.417969 137.730469 L 210.523438 138.394531 L 221.117188 139.011719 C 221.171875 139.015625 221.226562 139.019531 221.277344 139.019531 C 221.367188 139.019531 221.457031 139.011719 221.546875 139.007812 C 221.71875 138.992188 221.882812 138.96875 222.035156 138.933594 C 222.207031 138.890625 222.378906 138.835938 222.550781 138.761719 C 223.660156 138.28125 224.390625 137.238281 224.460938 136.039062 C 224.523438 134.976562 224.046875 133.960938 223.191406 133.320312 Z M 223.191406 133.320312 " fill-opacity="1" fill-rule="nonzero"/></g><path fill="#145da0" d="M 130.023438 215.125 L 134.78125 215.125 L 134.78125 217.605469 L 130.023438 217.605469 Z M 131.9375 225.671875 L 131.714844 224.855469 L 129.714844 227.652344 C 129.449219 228.023438 129.042969 228.234375 128.605469 228.234375 C 128.425781 228.234375 128.246094 228.199219 128.074219 228.128906 C 127.46875 227.886719 127.128906 227.289062 127.222656 226.648438 L 127.714844 223.253906 L 126.980469 223.707031 C 125.980469 224.320312 125.382812 225.382812 125.382812 226.550781 C 125.382812 228.390625 126.878906 229.890625 128.71875 229.890625 C 129.742188 229.890625 130.691406 229.429688 131.335938 228.617188 C 131.464844 228.457031 131.578125 228.28125 131.675781 228.097656 L 131.695312 228.070312 L 131.699219 228.050781 C 131.855469 227.746094 131.960938 227.414062 132.015625 227.066406 L 132.023438 227.023438 C 132.046875 226.851562 132.058594 226.699219 132.058594 226.550781 C 132.058594 226.402344 132.046875 226.25 132.019531 226.046875 C 132 225.917969 131.972656 225.792969 131.9375 225.671875 Z M 141.496094 224.855469 L 139.496094 227.652344 C 139.230469 228.023438 138.828125 228.234375 138.40625 228.234375 L 138.082031 228.210938 L 137.992188 228.527344 C 137.910156 228.808594 137.824219 229.0625 137.726562 229.300781 L 137.527344 229.785156 L 138.042969 229.855469 C 138.214844 229.878906 138.359375 229.890625 138.503906 229.890625 C 140.34375 229.890625 141.839844 228.390625 141.839844 226.550781 C 141.839844 226.261719 141.800781 225.964844 141.722656 225.671875 Z M 129.101562 210.230469 L 132.96875 210.230469 L 132.453125 209.578125 C 132.253906 209.324219 132.074219 209.0625 131.921875 208.796875 C 130.777344 206.816406 130.78125 204.449219 131.925781 202.46875 L 138.617188 190.960938 L 134.957031 190.960938 L 129.1875 200.886719 C 127.550781 203.710938 127.476562 207.125 128.988281 210.015625 Z M 109.640625 116.949219 C 109.132812 117.480469 108.492188 117.863281 107.785156 118.0625 L 107.339844 118.1875 L 109.894531 124.066406 L 113.34375 124.066406 L 110.0625 116.515625 Z M 197.453125 224.855469 L 195.449219 227.652344 C 195.1875 228.015625 194.789062 228.230469 194.355469 228.234375 L 194.03125 228.234375 L 193.945312 228.527344 C 193.867188 228.808594 193.78125 229.0625 193.679688 229.300781 L 193.484375 229.785156 L 194 229.855469 C 194.171875 229.878906 194.316406 229.890625 194.457031 229.890625 C 196.296875 229.890625 197.796875 228.390625 197.796875 226.550781 C 197.796875 226.261719 197.753906 225.96875 197.675781 225.675781 Z M 219.367188 150.121094 L 218.886719 149.625 C 219.085938 149.847656 219.207031 150.144531 219.207031 150.46875 C 219.207031 150.988281 218.890625 151.4375 218.445312 151.636719 L 219.085938 151.390625 L 216.277344 164.003906 L 215.808594 163.488281 C 215.984375 163.707031 216.09375 163.988281 216.09375 164.292969 C 216.09375 164.8125 215.78125 165.261719 215.335938 165.460938 L 216.019531 165.179688 L 213.3125 177.34375 L 213.292969 177.398438 C 213.285156 177.4375 213.269531 177.476562 213.253906 177.519531 C 213.238281 177.574219 213.214844 177.625 213.191406 177.675781 C 213.167969 177.71875 213.152344 177.75 213.136719 177.78125 C 213.105469 177.832031 213.070312 177.882812 213.03125 177.933594 L 213.011719 177.957031 C 212.996094 177.980469 212.984375 178 212.972656 178.011719 C 212.925781 178.066406 212.878906 178.113281 212.828125 178.15625 L 212.78125 178.203125 L 212.765625 178.214844 C 212.691406 178.273438 212.613281 178.328125 212.539062 178.367188 L 212.519531 178.378906 L 212.472656 178.398438 C 212.40625 178.433594 212.335938 178.460938 212.265625 178.484375 L 212.234375 178.496094 L 212.167969 178.511719 C 212.105469 178.527344 212.039062 178.542969 211.972656 178.550781 L 211.949219 178.554688 L 211.90625 178.5625 L 200.917969 179.625 L 201.363281 178.914062 C 201.378906 178.882812 201.394531 178.851562 201.410156 178.820312 C 201.433594 178.769531 201.457031 178.71875 201.476562 178.660156 C 201.488281 178.621094 201.503906 178.582031 201.515625 178.539062 C 201.527344 178.5 201.53125 178.488281 201.535156 178.472656 L 202.007812 176.34375 L 210.476562 175.523438 L 212.691406 165.574219 L 204.402344 165.574219 L 204.972656 163.015625 L 213.257812 163.015625 L 215.765625 151.746094 L 207.480469 151.746094 L 208.046875 149.1875 L 216.335938 149.1875 L 218.628906 138.867188 L 221.121094 139.011719 C 221.179688 139.015625 221.246094 139.019531 221.304688 139.019531 C 221.304688 139.019531 221.320312 139.015625 221.335938 139.015625 L 221.835938 139.015625 Z M 218.164062 149.210938 C 218.085938 149.195312 218.007812 149.1875 217.929688 149.1875 C 218.007812 149.1875 218.085938 149.195312 218.164062 149.210938 Z M 205.382812 211.960938 L 201.242188 211.960938 L 201.71875 212.605469 C 201.921875 212.878906 202.03125 213.203125 202.03125 213.542969 C 202.03125 213.882812 201.921875 214.207031 201.71875 214.480469 L 201.242188 215.125 L 205.382812 215.125 C 206.253906 215.125 206.964844 214.414062 206.964844 213.542969 C 206.964844 212.671875 206.253906 211.960938 205.382812 211.960938 Z M 187.972656 226.050781 C 187.953125 225.921875 187.925781 225.792969 187.894531 225.675781 L 187.671875 224.855469 L 185.667969 227.652344 C 185.402344 228.023438 185 228.234375 184.558594 228.234375 C 184.378906 228.234375 184.203125 228.199219 184.027344 228.128906 C 183.425781 227.886719 183.082031 227.289062 183.175781 226.648438 L 183.671875 223.253906 L 182.9375 223.707031 C 181.933594 224.320312 181.335938 225.382812 181.335938 226.550781 C 181.335938 228.390625 182.835938 229.890625 184.675781 229.890625 C 185.695312 229.890625 186.648438 229.429688 187.273438 228.640625 L 187.292969 228.617188 C 187.40625 228.476562 187.503906 228.324219 187.59375 228.167969 L 187.683594 228.101562 L 187.683594 227.988281 C 187.824219 227.699219 187.921875 227.390625 187.96875 227.066406 L 187.972656 227.050781 C 188 226.863281 188.015625 226.707031 188.015625 226.550781 C 188.015625 226.40625 188.003906 226.253906 187.976562 226.085938 Z M 185.976562 217.605469 L 190.734375 217.605469 L 190.734375 215.125 L 185.976562 215.125 Z M 185.976562 217.605469 " fill-opacity="1" fill-rule="nonzero"/><g clip-path="url(#95cd7912b9)"><path fill="#f6bd3b" d="M 98.230469 116.054688 L 97.8125 116.585938 L 96.082031 112.601562 C 95.929688 112.25 95.652344 111.964844 95.304688 111.800781 C 95.203125 111.753906 95.097656 111.71875 94.988281 111.691406 C 94.882812 111.667969 94.773438 111.652344 94.667969 111.652344 L 94.625 111.652344 C 94.410156 111.652344 94.199219 111.695312 94 111.78125 C 93.613281 111.949219 93.316406 112.257812 93.160156 112.648438 C 93.003906 113.042969 93.011719 113.472656 93.179688 113.859375 L 94.914062 117.847656 L 94.242188 117.792969 C 91.890625 117.589844 90.050781 115.585938 90.050781 113.230469 C 90.050781 110.703125 92.105469 108.648438 94.632812 108.648438 C 94.679688 108.648438 94.722656 108.652344 94.769531 108.65625 L 94.824219 108.660156 C 94.972656 108.664062 95.121094 108.679688 95.265625 108.699219 C 95.414062 108.71875 95.5625 108.746094 95.703125 108.78125 C 97.769531 109.277344 99.210938 111.109375 99.210938 113.230469 C 99.210938 114.261719 98.875 115.238281 98.230469 116.054688 Z M 135.871094 225.066406 C 135.828125 224.871094 135.777344 224.664062 135.714844 224.460938 C 135.445312 223.554688 135.003906 222.71875 134.40625 221.976562 L 134.074219 221.5625 L 131.652344 224.945312 L 131.75 225.15625 C 131.957031 225.601562 132.058594 226.070312 132.058594 226.550781 C 132.058594 227.167969 131.886719 227.773438 131.550781 228.3125 C 131.464844 228.449219 131.382812 228.566406 131.300781 228.664062 L 131.289062 228.679688 C 131.214844 228.769531 131.128906 228.863281 131.011719 228.96875 C 130.390625 229.5625 129.574219 229.890625 128.71875 229.890625 C 126.878906 229.890625 125.382812 228.390625 125.382812 226.550781 C 125.382812 225.179688 126.207031 223.964844 127.484375 223.453125 L 127.699219 223.367188 L 128.300781 219.242188 L 127.773438 219.3125 C 124.148438 219.785156 121.417969 222.894531 121.417969 226.550781 C 121.417969 230.578125 124.695312 233.851562 128.71875 233.851562 C 130.386719 233.851562 131.957031 233.304688 133.261719 232.261719 L 133.265625 232.261719 C 133.359375 232.183594 133.453125 232.105469 133.546875 232.023438 L 133.722656 231.9375 L 133.722656 231.863281 C 133.777344 231.8125 133.832031 231.757812 133.886719 231.703125 L 133.902344 231.691406 C 134.746094 230.839844 135.375 229.785156 135.714844 228.640625 C 135.777344 228.4375 135.828125 228.230469 135.871094 228.035156 C 135.9375 227.707031 135.984375 227.367188 136.007812 227.015625 C 136.015625 226.863281 136.023438 226.707031 136.023438 226.550781 C 136.023438 226.394531 136.015625 226.238281 136.007812 226.082031 C 135.984375 225.734375 135.9375 225.394531 135.871094 225.066406 Z M 191.824219 225.066406 C 191.785156 224.871094 191.734375 224.667969 191.671875 224.460938 C 191.398438 223.550781 190.960938 222.714844 190.363281 221.976562 L 190.027344 221.5625 L 187.605469 224.945312 L 187.707031 225.15625 C 187.910156 225.601562 188.015625 226.070312 188.015625 226.550781 C 188.015625 227.167969 187.839844 227.773438 187.507812 228.3125 C 187.425781 228.4375 187.351562 228.546875 187.273438 228.644531 L 187.257812 228.65625 L 187.234375 228.691406 C 187.160156 228.777344 187.074219 228.867188 186.96875 228.96875 C 186.34375 229.5625 185.53125 229.890625 184.675781 229.890625 C 182.835938 229.890625 181.335938 228.390625 181.335938 226.550781 C 181.335938 225.179688 182.164062 223.964844 183.4375 223.453125 L 183.65625 223.367188 L 184.253906 219.242188 L 183.726562 219.3125 C 180.105469 219.785156 177.375 222.894531 177.375 226.550781 C 177.375 230.578125 180.648438 233.851562 184.675781 233.851562 C 186.339844 233.851562 187.910156 233.304688 189.214844 232.261719 L 189.21875 232.261719 C 189.328125 232.171875 189.4375 232.082031 189.542969 231.988281 C 189.644531 231.894531 189.746094 231.800781 189.84375 231.703125 L 189.855469 231.691406 C 190.703125 230.839844 191.328125 229.785156 191.671875 228.640625 C 191.734375 228.4375 191.785156 228.230469 191.824219 228.035156 C 191.894531 227.707031 191.9375 227.367188 191.960938 227.015625 C 191.972656 226.863281 191.976562 226.707031 191.976562 226.550781 C 191.976562 226.394531 191.972656 226.238281 191.960938 226.082031 C 191.9375 225.734375 191.894531 225.394531 191.824219 225.066406 Z M 209.726562 132.03125 L 101.351562 125.699219 C 101.289062 125.695312 101.226562 125.691406 101.164062 125.691406 C 100.390625 125.691406 99.644531 125.976562 99.066406 126.492188 C 99.046875 126.511719 99.027344 126.527344 98.992188 126.566406 C 98.859375 126.6875 98.75 126.8125 98.652344 126.941406 C 98.539062 127.085938 98.441406 127.246094 98.351562 127.414062 C 98.152344 127.808594 98.035156 128.230469 98.011719 128.671875 C 97.925781 130.136719 98.886719 131.492188 100.300781 131.894531 C 100.472656 131.945312 100.65625 131.980469 100.847656 132 L 100.882812 132.003906 C 100.917969 132.007812 100.949219 132.011719 100.984375 132.011719 L 209.355469 138.347656 C 209.414062 138.351562 209.46875 138.351562 209.527344 138.351562 C 209.597656 138.351562 209.667969 138.347656 209.738281 138.34375 C 209.90625 138.335938 210.074219 138.3125 210.238281 138.273438 C 210.410156 138.234375 210.582031 138.179688 210.75 138.113281 C 210.9375 138.035156 211.117188 137.9375 211.285156 137.824219 C 212.113281 137.273438 212.640625 136.359375 212.699219 135.375 C 212.800781 133.632812 211.46875 132.132812 209.726562 132.03125 Z M 209.726562 132.03125 " fill-opacity="1" fill-rule="nonzero"/></g><path fill="#7bc9c0" d="M 101.160156 125.695312 C 100.433594 125.695312 99.75 125.9375 99.1875 126.394531 L 98.773438 126.730469 L 93.179688 113.859375 C 93.011719 113.472656 93.003906 113.042969 93.160156 112.648438 C 93.316406 112.257812 93.613281 111.949219 94 111.78125 C 94.199219 111.691406 94.414062 111.648438 94.628906 111.648438 C 94.808594 111.648438 94.988281 111.679688 95.167969 111.746094 C 95.363281 111.816406 95.539062 111.921875 95.6875 112.054688 C 95.859375 112.210938 95.992188 112.394531 96.082031 112.601562 L 101.773438 125.695312 Z M 135.640625 217.605469 L 129.25 217.605469 C 128.84375 217.605469 128.492188 217.90625 128.4375 218.308594 L 127.222656 226.648438 C 127.113281 227.390625 127.570312 227.925781 128.074219 228.128906 C 128.238281 228.195312 128.425781 228.230469 128.605469 228.230469 C 129.050781 228.230469 129.445312 228.027344 129.714844 227.652344 L 136.167969 218.636719 C 136.316406 218.433594 136.332031 218.179688 136.21875 217.957031 C 136.105469 217.738281 135.890625 217.605469 135.640625 217.605469 Z M 145.421875 217.605469 L 139.03125 217.605469 C 138.625 217.605469 138.277344 217.90625 138.21875 218.308594 L 137.003906 226.648438 C 136.925781 227.167969 137.125 227.644531 137.542969 227.953125 C 137.644531 228.027344 137.75 228.085938 137.855469 228.128906 C 137.917969 228.15625 137.992188 228.175781 138.070312 228.195312 C 138.175781 228.21875 138.28125 228.230469 138.386719 228.230469 C 138.472656 228.230469 138.558594 228.222656 138.640625 228.207031 C 138.984375 228.144531 139.28125 227.953125 139.496094 227.652344 L 145.953125 218.636719 C 146.097656 218.433594 146.113281 218.179688 146 217.957031 C 145.886719 217.738281 145.671875 217.605469 145.421875 217.605469 Z M 200.59375 179.585938 L 200.417969 179.222656 L 200.566406 179.597656 C 200.539062 179.609375 200.511719 179.621094 200.484375 179.628906 L 200.386719 179.65625 C 200.324219 179.671875 200.257812 179.6875 200.191406 179.695312 L 200.167969 179.699219 L 200.125 179.707031 L 172.035156 182.429688 L 172.066406 182.433594 C 172.84375 182.484375 173.464844 183.082031 173.539062 183.851562 C 173.578125 184.269531 173.457031 184.683594 173.1875 185.007812 C 172.917969 185.335938 172.539062 185.539062 172.121094 185.578125 L 127.390625 189.972656 L 120.164062 202.46875 C 119.019531 204.449219 119.015625 206.816406 120.160156 208.796875 C 121.304688 210.777344 123.351562 211.960938 125.640625 211.960938 L 200.449219 211.960938 C 201.320312 211.960938 202.03125 212.671875 202.03125 213.542969 C 202.03125 214.414062 201.320312 215.125 200.449219 215.125 L 125.640625 215.125 C 122.207031 215.125 119.136719 213.351562 117.417969 210.375 C 115.703125 207.402344 115.707031 203.855469 117.425781 200.882812 L 125.082031 187.65625 L 125.097656 187.636719 C 125.109375 187.621094 125.117188 187.609375 125.136719 187.582031 C 125.167969 187.53125 125.195312 187.492188 125.226562 187.457031 C 125.253906 187.425781 125.277344 187.402344 125.304688 187.375 L 125.351562 187.332031 C 125.386719 187.296875 125.417969 187.269531 125.449219 187.242188 C 125.480469 187.21875 125.511719 187.195312 125.546875 187.175781 L 125.59375 187.144531 C 125.640625 187.113281 125.671875 187.09375 125.707031 187.074219 C 125.742188 187.058594 125.773438 187.046875 125.808594 187.03125 L 125.878906 187.003906 C 125.921875 186.988281 125.957031 186.972656 125.992188 186.960938 C 126.03125 186.949219 126.074219 186.941406 126.136719 186.933594 L 126.164062 186.929688 C 126.179688 186.925781 126.191406 186.921875 126.210938 186.917969 L 126.242188 186.910156 L 156.273438 183.957031 L 126.109375 186.882812 C 126.070312 186.886719 126.039062 186.886719 126.003906 186.886719 L 125.9375 186.890625 C 125.859375 186.890625 125.777344 186.878906 125.6875 186.863281 L 125.605469 186.847656 C 125.546875 186.832031 125.488281 186.816406 125.429688 186.796875 C 125.398438 186.785156 125.371094 186.773438 125.34375 186.765625 C 125.285156 186.738281 125.222656 186.707031 125.167969 186.675781 L 125.132812 186.65625 L 125.113281 186.644531 C 125.039062 186.601562 124.972656 186.546875 124.90625 186.492188 L 124.890625 186.476562 L 124.878906 186.460938 C 124.816406 186.402344 124.769531 186.351562 124.726562 186.296875 C 124.714844 186.285156 124.703125 186.269531 124.679688 186.238281 C 124.636719 186.179688 124.609375 186.128906 124.582031 186.082031 C 124.5625 186.046875 124.546875 186.019531 124.53125 185.988281 L 124.519531 185.96875 L 124.503906 185.9375 L 101.070312 132.019531 L 104.609375 132.226562 L 120.382812 168.519531 L 119.578125 166.664062 L 131.558594 166.160156 L 127.242188 150.652344 L 112.546875 150.488281 L 111.503906 148.089844 L 126.578125 148.253906 L 122.40625 133.265625 L 124.925781 133.414062 L 129.0625 148.28125 L 145.210938 148.460938 L 143.4375 134.496094 L 145.863281 134.636719 L 147.621094 148.488281 L 162.257812 148.652344 L 161.988281 135.578125 L 164.378906 135.71875 L 164.648438 148.675781 L 177.8125 148.824219 L 178.828125 136.5625 L 181.214844 136.703125 L 180.203125 148.847656 L 192.863281 148.988281 L 194.773438 137.496094 L 197.171875 137.636719 L 195.28125 149.015625 L 204.824219 149.121094 L 207.246094 138.222656 L 209.359375 138.347656 C 209.421875 138.351562 209.480469 138.351562 209.542969 138.351562 C 209.566406 138.351562 209.585938 138.351562 209.605469 138.347656 L 209.667969 138.347656 C 209.753906 138.34375 209.835938 138.335938 209.914062 138.328125 L 210.476562 138.261719 L 210.347656 138.851562 L 201.53125 178.488281 L 201.511719 178.542969 C 201.503906 178.582031 201.488281 178.625 201.476562 178.660156 C 201.457031 178.71875 201.433594 178.769531 201.410156 178.820312 C 201.390625 178.863281 201.375 178.894531 201.355469 178.921875 C 201.324219 178.976562 201.289062 179.027344 201.253906 179.074219 L 201.234375 179.101562 C 201.214844 179.125 201.203125 179.140625 201.191406 179.15625 C 201.148438 179.207031 201.097656 179.253906 201.042969 179.304688 L 201 179.347656 L 200.984375 179.359375 C 200.910156 179.417969 200.832031 179.472656 200.757812 179.511719 L 200.738281 179.523438 L 200.691406 179.542969 C 200.660156 179.558594 200.628906 179.574219 200.59375 179.585938 Z M 204.292969 151.503906 L 194.882812 151.398438 L 192.859375 163.574219 L 201.691406 163.203125 Z M 201.15625 165.617188 L 192.460938 165.980469 L 190.550781 177.457031 L 188.574219 177.648438 L 198.695312 176.667969 Z M 188.09375 177.695312 L 190.023438 166.085938 L 178.734375 166.558594 L 177.726562 178.699219 L 175.3125 178.933594 L 176.332031 166.660156 L 165.027344 167.136719 L 165.289062 179.90625 Z M 149.402344 181.445312 L 147.675781 167.871094 L 134.664062 168.417969 L 138.578125 182.496094 Z M 129.730469 150.679688 L 134.007812 166.054688 L 147.375 165.492188 L 145.515625 150.851562 Z M 147.925781 150.878906 L 149.769531 165.390625 L 162.589844 164.851562 L 162.308594 151.039062 Z M 149.632812 181.421875 L 162.90625 180.136719 L 162.640625 167.238281 L 150.070312 167.769531 L 151.78125 181.214844 Z M 164.695312 151.066406 L 164.976562 164.75 L 176.527344 164.261719 L 177.613281 151.207031 Z M 180.007812 151.234375 L 178.933594 164.164062 L 190.421875 163.679688 L 192.46875 151.375 Z M 120.597656 169.011719 L 126.949219 183.625 L 137.035156 182.644531 L 136.164062 182.730469 L 132.214844 168.519531 Z M 201.378906 217.605469 L 194.984375 217.605469 C 194.582031 217.605469 194.230469 217.90625 194.171875 218.308594 L 192.957031 226.648438 C 192.882812 227.167969 193.078125 227.644531 193.5 227.953125 C 193.597656 228.027344 193.703125 228.085938 193.808594 228.128906 C 193.875 228.15625 193.945312 228.175781 194.027344 228.195312 C 194.132812 228.21875 194.238281 228.230469 194.34375 228.230469 C 194.429688 228.230469 194.511719 228.222656 194.59375 228.207031 C 194.941406 228.144531 195.234375 227.953125 195.449219 227.652344 L 201.90625 218.636719 C 202.050781 218.433594 202.070312 218.179688 201.957031 217.957031 C 201.84375 217.738281 201.625 217.605469 201.378906 217.605469 Z M 191.597656 217.605469 L 185.203125 217.605469 C 184.796875 217.605469 184.449219 217.90625 184.390625 218.308594 L 183.175781 226.648438 C 183.070312 227.390625 183.527344 227.925781 184.027344 228.128906 C 184.195312 228.195312 184.378906 228.230469 184.5625 228.230469 C 185.007812 228.230469 185.402344 228.027344 185.667969 227.652344 L 192.125 218.636719 C 192.269531 218.433594 192.289062 218.179688 192.175781 217.957031 C 192.0625 217.738281 191.84375 217.605469 191.597656 217.605469 Z M 191.597656 217.605469 " fill-opacity="1" fill-rule="nonzero"/><g clip-path="url(#3d1764b439)"><path fill="#19055b" d="M 221.511719 132.296875 L 114.644531 126.050781 L 113.714844 123.90625 L 110.496094 116.507812 C 110.9375 115.808594 111.199219 114.988281 111.199219 114.101562 C 111.199219 111.835938 109.503906 109.910156 107.257812 109.625 C 107.253906 109.625 107.25 109.625 107.25 109.625 L 95.277344 108.289062 C 95.265625 108.285156 95.253906 108.289062 95.242188 108.289062 C 95.042969 108.261719 94.839844 108.246094 94.632812 108.246094 C 91.882812 108.246094 89.648438 110.480469 89.648438 113.230469 C 89.648438 115.976562 91.882812 118.214844 94.632812 118.214844 L 98.324219 126.703125 C 97.898438 127.261719 97.648438 127.933594 97.609375 128.648438 C 97.496094 130.554688 98.914062 132.203125 100.796875 132.398438 L 124.136719 186.097656 C 124.144531 186.121094 124.15625 186.144531 124.167969 186.160156 C 124.1875 186.199219 124.207031 186.238281 124.226562 186.277344 C 124.261719 186.339844 124.300781 186.402344 124.351562 186.472656 C 124.371094 186.5 124.390625 186.527344 124.410156 186.550781 C 124.464844 186.617188 124.523438 186.683594 124.589844 186.746094 C 124.605469 186.761719 124.621094 186.777344 124.636719 186.789062 C 124.71875 186.863281 124.804688 186.929688 124.898438 186.988281 C 124.917969 187 124.9375 187.011719 124.964844 187.023438 C 124.992188 187.039062 125.019531 187.050781 125.046875 187.066406 L 125.035156 187.078125 C 124.996094 187.113281 124.957031 187.152344 124.921875 187.191406 C 124.878906 187.246094 124.839844 187.300781 124.800781 187.359375 L 125.125 187.597656 L 124.78125 187.386719 C 124.753906 187.417969 124.734375 187.449219 124.710938 187.484375 L 117.078125 200.683594 C 115.285156 203.777344 115.28125 207.480469 117.070312 210.578125 C 118.859375 213.679688 122.0625 215.527344 125.640625 215.527344 L 129.621094 215.527344 L 129.621094 217.203125 L 129.25 217.203125 C 128.644531 217.203125 128.125 217.652344 128.035156 218.25 L 127.945312 218.882812 C 124.058594 219.273438 121.015625 222.5625 121.015625 226.550781 C 121.015625 230.800781 124.472656 234.257812 128.71875 234.257812 C 130.574219 234.257812 132.28125 233.597656 133.609375 232.5 C 133.636719 232.523438 133.664062 232.542969 133.691406 232.5625 C 133.707031 232.574219 133.722656 232.585938 133.734375 232.597656 C 133.839844 232.683594 133.949219 232.761719 134.058594 232.839844 C 134.085938 232.859375 134.109375 232.875 134.132812 232.894531 C 134.261719 232.980469 134.390625 233.066406 134.523438 233.148438 C 134.523438 233.148438 134.527344 233.148438 134.527344 233.148438 C 135.691406 233.851562 137.050781 234.257812 138.503906 234.257812 C 142.75 234.257812 146.207031 230.800781 146.207031 226.550781 C 146.207031 224.644531 145.511719 222.898438 144.359375 221.550781 L 146.28125 218.871094 C 146.511719 218.546875 146.542969 218.128906 146.359375 217.773438 C 146.179688 217.421875 145.820312 217.203125 145.421875 217.203125 L 144.964844 217.203125 L 144.964844 215.527344 L 185.574219 215.527344 L 185.574219 217.203125 L 185.203125 217.203125 C 184.601562 217.203125 184.078125 217.652344 183.992188 218.25 L 183.898438 218.882812 C 180.015625 219.273438 176.96875 222.5625 176.96875 226.550781 C 176.96875 230.800781 180.425781 234.257812 184.675781 234.257812 C 186.53125 234.257812 188.234375 233.597656 189.566406 232.5 C 189.59375 232.523438 189.621094 232.542969 189.644531 232.5625 C 189.660156 232.574219 189.675781 232.585938 189.691406 232.597656 C 189.796875 232.683594 189.90625 232.761719 190.015625 232.839844 C 190.039062 232.859375 190.0625 232.875 190.089844 232.894531 C 190.214844 232.980469 190.347656 233.066406 190.480469 233.148438 C 190.480469 233.148438 190.480469 233.148438 190.484375 233.148438 C 191.644531 233.851562 193.003906 234.257812 194.457031 234.257812 C 198.707031 234.257812 202.164062 230.800781 202.164062 226.550781 C 202.164062 224.644531 201.464844 222.898438 200.3125 221.550781 L 202.234375 218.871094 C 202.464844 218.546875 202.496094 218.128906 202.316406 217.773438 C 202.132812 217.421875 201.773438 217.203125 201.378906 217.203125 L 200.921875 217.203125 L 200.921875 215.527344 L 205.382812 215.527344 C 206.476562 215.527344 207.367188 214.636719 207.367188 213.542969 C 207.367188 212.449219 206.476562 211.558594 205.382812 211.558594 L 137.402344 211.558594 C 137.226562 211.558594 137.058594 211.550781 136.890625 211.535156 C 136.847656 211.53125 136.808594 211.527344 136.765625 211.523438 C 136.609375 211.507812 136.449219 211.484375 136.296875 211.457031 C 136.285156 211.453125 136.277344 211.453125 136.265625 211.449219 C 136.089844 211.417969 135.917969 211.375 135.746094 211.328125 C 135.730469 211.320312 135.714844 211.316406 135.699219 211.3125 C 134.816406 211.050781 134.003906 210.585938 133.332031 209.941406 C 133.328125 209.9375 133.328125 209.9375 133.324219 209.9375 C 132.921875 209.550781 132.5625 209.101562 132.269531 208.59375 C 131.199219 206.738281 131.203125 204.523438 132.273438 202.671875 L 138.964844 191.164062 L 139.578125 190.113281 L 140.152344 189.125 L 172.160156 185.980469 C 172.6875 185.929688 173.164062 185.675781 173.5 185.265625 C 173.835938 184.855469 173.992188 184.339844 173.941406 183.8125 C 173.898438 183.382812 173.71875 183 173.453125 182.695312 L 200.183594 180.105469 C 200.199219 180.105469 200.214844 180.101562 200.226562 180.097656 L 211.964844 178.960938 C 211.992188 178.957031 212.019531 178.953125 212.023438 178.949219 C 212.109375 178.941406 212.191406 178.921875 212.296875 178.894531 C 212.328125 178.886719 212.359375 178.878906 212.390625 178.871094 C 212.472656 178.84375 212.558594 178.808594 212.652344 178.761719 C 212.679688 178.75 212.703125 178.738281 212.726562 178.726562 C 212.828125 178.667969 212.925781 178.601562 213.019531 178.527344 C 213.042969 178.507812 213.066406 178.488281 213.097656 178.457031 C 213.160156 178.398438 213.222656 178.339844 213.28125 178.273438 C 213.300781 178.246094 213.320312 178.222656 213.355469 178.175781 C 213.402344 178.113281 213.445312 178.050781 213.484375 177.980469 C 213.507812 177.941406 213.53125 177.898438 213.550781 177.851562 C 213.582031 177.789062 213.609375 177.722656 213.636719 177.65625 C 213.652344 177.605469 213.671875 177.554688 213.683594 177.5 C 213.695312 177.472656 213.703125 177.445312 213.710938 177.417969 L 222.183594 139.308594 C 223.65625 138.933594 224.773438 137.644531 224.863281 136.0625 C 224.976562 134.101562 223.472656 132.410156 221.511719 132.296875 Z M 222.390625 138.390625 C 222.246094 138.453125 222.097656 138.503906 221.941406 138.539062 C 221.804688 138.574219 221.660156 138.59375 221.515625 138.605469 C 221.394531 138.613281 221.269531 138.617188 221.144531 138.609375 L 219.125 138.492188 L 218.3125 138.445312 L 211.65625 138.054688 C 212.480469 137.445312 213.039062 136.492188 213.101562 135.398438 C 213.167969 134.273438 212.703125 133.242188 211.925781 132.542969 L 219.976562 133.011719 L 221.464844 133.101562 C 222.023438 133.132812 222.53125 133.332031 222.949219 133.644531 C 223.667969 134.179688 224.113281 135.054688 224.058594 136.015625 C 223.996094 137.089844 223.320312 137.988281 222.390625 138.390625 Z M 212.90625 177.292969 C 212.898438 177.324219 212.886719 177.351562 212.875 177.382812 C 212.863281 177.421875 212.84375 177.460938 212.828125 177.5 C 212.8125 177.527344 212.800781 177.550781 212.789062 177.574219 C 212.765625 177.617188 212.738281 177.652344 212.710938 177.6875 L 212.6875 177.71875 C 212.679688 177.730469 212.671875 177.742188 212.667969 177.75 C 212.632812 177.789062 212.597656 177.824219 212.558594 177.859375 L 212.511719 177.902344 C 212.457031 177.945312 212.398438 177.984375 212.347656 178.015625 C 212.328125 178.023438 212.308594 178.03125 212.292969 178.039062 C 212.242188 178.0625 212.191406 178.085938 212.140625 178.101562 L 212.070312 178.121094 C 212.019531 178.132812 211.972656 178.144531 211.921875 178.152344 C 211.902344 178.152344 211.886719 178.15625 211.867188 178.160156 L 201.691406 179.148438 C 201.695312 179.140625 201.699219 179.132812 201.703125 179.125 C 201.726562 179.085938 201.75 179.042969 201.769531 178.996094 C 201.800781 178.933594 201.828125 178.871094 201.855469 178.800781 C 201.875 178.75 201.890625 178.699219 201.902344 178.644531 C 201.914062 178.617188 201.921875 178.589844 201.929688 178.5625 L 202.339844 176.714844 L 210.515625 175.921875 C 210.691406 175.90625 210.832031 175.78125 210.871094 175.609375 L 213.011719 165.976562 L 214.8125 165.976562 C 215.042969 165.976562 215.257812 165.929688 215.457031 165.847656 L 212.925781 177.234375 C 212.917969 177.25 212.910156 177.269531 212.90625 177.292969 Z M 188.996094 180.378906 L 188.105469 180.464844 L 177.558594 181.488281 L 176.664062 181.574219 L 176.3125 181.609375 L 175.429688 181.695312 L 172.042969 182.023438 L 165.3125 182.675781 L 164.421875 182.761719 L 164.089844 182.792969 L 163.175781 182.882812 L 156.304688 183.550781 L 151.96875 183.96875 L 151.058594 184.058594 L 150.734375 184.089844 L 149.839844 184.175781 L 138.984375 185.230469 L 138.101562 185.3125 L 137.746094 185.347656 L 136.847656 185.4375 L 126.070312 186.480469 C 126.027344 186.484375 125.988281 186.484375 125.941406 186.488281 C 125.886719 186.484375 125.828125 186.480469 125.753906 186.46875 L 125.695312 186.453125 C 125.652344 186.441406 125.609375 186.429688 125.566406 186.414062 C 125.542969 186.410156 125.523438 186.402344 125.5 186.390625 C 125.457031 186.371094 125.410156 186.351562 125.371094 186.328125 C 125.363281 186.324219 125.335938 186.308594 125.328125 186.304688 C 125.273438 186.269531 125.222656 186.230469 125.175781 186.191406 C 125.171875 186.183594 125.148438 186.164062 125.144531 186.160156 C 125.109375 186.125 125.074219 186.085938 125.039062 186.046875 C 125.027344 186.03125 125.019531 186.019531 125 185.988281 C 124.976562 185.957031 124.953125 185.917969 124.929688 185.882812 C 124.917969 185.859375 124.90625 185.835938 124.894531 185.8125 C 124.890625 185.804688 124.878906 185.785156 124.875 185.777344 L 117.742188 169.367188 L 117.378906 168.53125 L 117.238281 168.207031 L 116.882812 167.390625 L 109.644531 150.726562 L 109.28125 149.898438 L 109.152344 149.597656 L 108.785156 148.753906 L 101.703125 132.460938 L 104.339844 132.613281 L 110.886719 147.679688 L 111.0625 148.082031 L 111.238281 148.488281 L 111.929688 150.078125 L 112.105469 150.484375 L 112.28125 150.886719 L 118.972656 166.285156 L 119.144531 166.683594 L 119.316406 167.078125 L 119.992188 168.632812 L 120.164062 169.027344 L 120.339844 169.425781 L 126.578125 183.785156 C 126.648438 183.945312 126.816406 184.039062 126.988281 184.023438 L 135.867188 183.164062 L 136.277344 183.125 L 136.683594 183.085938 L 138.28125 182.929688 L 138.6875 182.890625 L 139.097656 182.851562 L 149.050781 181.886719 L 149.855469 181.808594 L 151.429688 181.65625 L 152.234375 181.578125 L 162.511719 180.582031 L 163.316406 180.503906 L 164.894531 180.347656 L 165.699219 180.269531 L 174.871094 179.382812 L 175.683594 179.304688 L 177.285156 179.148438 L 177.691406 179.109375 L 178.101562 179.070312 L 187.609375 178.148438 L 188.023438 178.105469 L 188.4375 178.066406 L 190.070312 177.910156 L 190.484375 177.867188 L 190.898438 177.828125 L 198.734375 177.066406 C 198.910156 177.050781 199.050781 176.925781 199.089844 176.753906 L 201.480469 166.003906 L 201.570312 165.597656 L 201.664062 165.191406 L 201.722656 164.925781 L 202.019531 163.59375 L 202.109375 163.183594 L 202.136719 163.0625 L 202.199219 162.777344 L 204.617188 151.910156 L 204.707031 151.507812 L 204.792969 151.105469 L 204.808594 151.039062 L 205.144531 149.527344 L 205.203125 149.277344 L 205.234375 149.125 L 205.324219 148.722656 L 207.566406 138.644531 L 209.332031 138.75 C 209.40625 138.753906 209.472656 138.753906 209.542969 138.753906 C 209.59375 138.753906 209.640625 138.75 209.6875 138.75 C 209.777344 138.746094 209.871094 138.738281 209.960938 138.730469 L 207.726562 148.785156 L 207.636719 149.1875 L 207.558594 149.535156 L 207.546875 149.589844 L 207.359375 150.4375 L 207.289062 150.742188 L 207.15625 151.34375 L 207.089844 151.636719 L 207.066406 151.746094 L 206.976562 152.152344 L 204.648438 162.609375 L 204.558594 163.015625 L 204.46875 163.417969 L 204.441406 163.546875 L 204.242188 164.445312 L 204.167969 164.773438 L 204.082031 165.171875 L 203.992188 165.574219 L 203.976562 165.644531 L 203.902344 165.976562 L 201.679688 175.96875 L 201.585938 176.382812 L 201.496094 176.796875 L 201.144531 178.378906 C 201.136719 178.394531 201.128906 178.414062 201.125 178.4375 C 201.117188 178.46875 201.105469 178.5 201.097656 178.527344 C 201.082031 178.566406 201.066406 178.605469 201.046875 178.644531 C 201.035156 178.667969 201.023438 178.695312 201.007812 178.71875 C 200.984375 178.761719 200.957031 178.796875 200.929688 178.832031 L 200.910156 178.863281 C 200.902344 178.875 200.894531 178.882812 200.886719 178.894531 C 200.851562 178.933594 200.816406 178.96875 200.773438 179.003906 L 200.734375 179.042969 C 200.675781 179.089844 200.617188 179.128906 200.566406 179.160156 C 200.546875 179.164062 200.53125 179.171875 200.511719 179.183594 C 200.484375 179.195312 200.453125 179.207031 200.421875 179.222656 C 200.398438 179.230469 200.378906 179.242188 200.359375 179.246094 L 200.289062 179.265625 C 200.238281 179.277344 200.191406 179.289062 200.140625 179.292969 C 200.121094 179.296875 200.105469 179.300781 200.085938 179.304688 L 199.988281 179.3125 L 199.5625 179.355469 L 190.238281 180.257812 L 189.339844 180.347656 Z M 98.414062 128.695312 C 98.433594 128.304688 98.539062 127.933594 98.710938 127.597656 C 98.785156 127.453125 98.871094 127.316406 98.972656 127.183594 C 99.058594 127.066406 99.160156 126.960938 99.269531 126.855469 C 99.292969 126.835938 99.3125 126.8125 99.335938 126.792969 C 99.84375 126.339844 100.488281 126.09375 101.164062 126.09375 C 101.21875 126.09375 101.273438 126.097656 101.328125 126.101562 L 101.515625 126.109375 L 101.964844 126.136719 L 102.417969 126.164062 L 110.574219 126.640625 L 110.8125 126.65625 L 111.023438 126.667969 L 111.476562 126.695312 L 111.515625 126.695312 L 112.765625 126.769531 L 114.113281 126.847656 L 114.5625 126.875 L 115.015625 126.898438 L 209.703125 132.433594 C 211.222656 132.523438 212.386719 133.832031 212.296875 135.351562 C 212.246094 136.246094 211.761719 137.023438 211.0625 137.488281 C 210.917969 137.585938 210.757812 137.671875 210.59375 137.738281 C 210.453125 137.796875 210.304688 137.847656 210.152344 137.882812 C 210.007812 137.914062 209.863281 137.933594 209.714844 137.941406 C 209.605469 137.949219 209.496094 137.953125 209.382812 137.945312 L 207.742188 137.847656 L 206.929688 137.800781 L 197.539062 137.253906 L 197.113281 137.226562 L 196.671875 137.203125 L 195.320312 137.121094 L 194.878906 137.097656 L 194.457031 137.070312 L 181.585938 136.320312 L 181.164062 136.296875 L 180.722656 136.269531 L 179.371094 136.191406 L 178.929688 136.164062 L 178.507812 136.140625 L 164.75 135.335938 L 164.324219 135.3125 L 163.882812 135.285156 L 162.53125 135.207031 L 162.089844 135.179688 L 161.667969 135.15625 L 146.210938 134.253906 L 145.792969 134.226562 L 145.351562 134.203125 L 143.996094 134.125 L 143.554688 134.097656 L 143.132812 134.074219 L 125.238281 133.027344 L 124.8125 133 L 124.367188 132.976562 L 123.015625 132.898438 L 122.574219 132.871094 L 122.148438 132.847656 L 111.261719 132.210938 L 110.542969 132.167969 L 104.882812 131.835938 L 104.429688 131.8125 L 103.980469 131.785156 L 101.34375 131.628906 L 101.007812 131.609375 C 100.96875 131.609375 100.929688 131.601562 100.890625 131.597656 C 100.726562 131.582031 100.566406 131.550781 100.410156 131.507812 C 99.195312 131.160156 98.335938 130.007812 98.414062 128.695312 Z M 95.480469 118.136719 L 95.347656 117.832031 L 95.3125 117.753906 L 95.167969 117.421875 L 95.148438 117.371094 L 95.125 117.324219 L 94.769531 116.503906 L 94.414062 115.6875 L 93.550781 113.699219 C 93.425781 113.410156 93.417969 113.089844 93.535156 112.796875 C 93.652344 112.503906 93.875 112.273438 94.160156 112.148438 C 94.3125 112.082031 94.472656 112.050781 94.628906 112.050781 C 94.765625 112.050781 94.902344 112.078125 95.03125 112.125 C 95.171875 112.175781 95.304688 112.253906 95.417969 112.355469 C 95.542969 112.464844 95.644531 112.601562 95.710938 112.761719 L 97.308594 116.433594 L 97.476562 116.816406 L 97.640625 117.195312 L 97.777344 117.511719 L 97.957031 117.921875 L 98.132812 118.332031 L 101.160156 125.292969 C 100.347656 125.292969 99.566406 125.570312 98.933594 126.082031 L 95.523438 118.242188 Z M 94.632812 109.054688 C 94.691406 109.054688 94.75 109.058594 94.808594 109.0625 C 94.941406 109.066406 95.078125 109.078125 95.207031 109.097656 C 95.34375 109.117188 95.476562 109.140625 95.609375 109.171875 C 97.441406 109.613281 98.808594 111.261719 98.808594 113.230469 C 98.808594 114.203125 98.472656 115.09375 97.914062 115.804688 L 96.453125 112.4375 C 96.25 111.980469 95.894531 111.632812 95.472656 111.4375 C 95.347656 111.378906 95.214844 111.332031 95.078125 111.300781 C 94.949219 111.269531 94.8125 111.25 94.675781 111.25 C 94.398438 111.242188 94.113281 111.292969 93.839844 111.410156 C 93.355469 111.621094 92.980469 112.007812 92.785156 112.503906 C 92.589844 112.996094 92.601562 113.535156 92.8125 114.019531 L 94.273438 117.390625 C 92.136719 117.207031 90.453125 115.414062 90.453125 113.230469 C 90.453125 110.925781 92.328125 109.054688 94.632812 109.054688 Z M 105.644531 110.257812 L 107.15625 110.425781 C 107.320312 110.445312 107.480469 110.480469 107.636719 110.523438 C 109.234375 110.949219 110.390625 112.40625 110.390625 114.101562 C 110.390625 114.621094 110.285156 115.117188 110.089844 115.566406 C 110.019531 115.726562 109.9375 115.878906 109.847656 116.027344 C 109.765625 116.160156 109.675781 116.292969 109.578125 116.414062 C 109.074219 117.042969 108.375 117.503906 107.570312 117.703125 C 107.4375 117.734375 107.300781 117.761719 107.164062 117.78125 C 107.023438 117.796875 106.878906 117.808594 106.734375 117.8125 C 106.71875 117.8125 106.703125 117.8125 106.6875 117.8125 C 106.574219 117.8125 102.472656 117.671875 98.671875 117.542969 L 98.269531 116.625 C 99.101562 115.734375 99.617188 114.542969 99.617188 113.230469 C 99.617188 111.679688 98.90625 110.296875 97.792969 109.378906 Z M 203.96875 151.097656 L 194.542969 150.992188 L 192.378906 164 L 201.183594 163.628906 L 200.828125 165.226562 L 192.117188 165.59375 L 190.207031 177.085938 L 188.574219 177.242188 L 190.5 165.660156 L 178.363281 166.171875 L 177.351562 178.332031 L 175.753906 178.484375 L 176.769531 166.238281 L 164.613281 166.753906 L 164.878906 179.539062 L 163.300781 179.695312 L 163.035156 166.820312 L 149.617188 167.382812 L 151.328125 180.855469 L 149.753906 181.007812 L 148.03125 167.449219 L 134.140625 168.035156 L 138.0625 182.140625 L 136.464844 182.296875 L 132.515625 168.105469 L 120.855469 168.597656 L 120.183594 167.042969 L 132.082031 166.539062 L 127.550781 150.25 L 112.8125 150.089844 L 112.125 148.5 L 127.109375 148.664062 L 122.949219 133.699219 L 124.617188 133.796875 L 128.757812 148.683594 L 145.667969 148.871094 L 143.898438 134.925781 L 145.503906 135.019531 L 147.265625 148.886719 L 162.667969 149.058594 L 162.402344 136.007812 L 163.984375 136.097656 L 164.25 149.074219 L 178.183594 149.230469 L 179.199219 136.988281 L 180.777344 137.082031 L 179.765625 149.246094 L 193.207031 149.398438 L 195.113281 137.917969 L 196.699219 138.011719 L 194.804688 149.414062 L 204.320312 149.519531 Z M 193.339844 163.152344 L 195.226562 151.808594 L 203.792969 151.902344 L 201.363281 162.8125 Z M 192.804688 166.371094 L 200.648438 166.039062 L 198.367188 176.292969 L 191.035156 177.003906 Z M 179.105469 166.949219 L 189.542969 166.507812 L 187.746094 177.324219 L 178.167969 178.25 Z M 165.4375 167.523438 L 175.890625 167.085938 L 174.9375 178.566406 L 165.683594 179.460938 Z M 150.527344 168.152344 L 162.246094 167.660156 L 162.496094 179.773438 L 152.128906 180.777344 Z M 135.1875 168.800781 L 147.324219 168.289062 L 148.949219 181.085938 L 138.878906 182.0625 Z M 131.910156 168.9375 L 135.648438 182.375 L 127.199219 183.195312 L 121.203125 169.390625 Z M 126.9375 151.050781 L 131.03125 165.777344 L 119.835938 166.25 L 113.164062 150.898438 Z M 143.078125 134.878906 L 144.753906 148.054688 L 129.371094 147.882812 L 125.46875 133.847656 Z M 161.847656 148.242188 L 147.976562 148.089844 L 146.324219 135.066406 L 161.59375 135.960938 Z M 178.394531 136.941406 L 177.441406 148.414062 L 165.042969 148.277344 L 164.792969 136.144531 Z M 194.304688 137.871094 L 192.523438 148.582031 L 180.644531 148.449219 L 181.582031 137.128906 Z M 122.101562 133.652344 C 122.109375 133.691406 122.117188 133.730469 122.128906 133.765625 L 126.046875 147.847656 L 111.769531 147.6875 L 105.242188 132.664062 Z M 195.753906 148.617188 L 197.511719 138.058594 L 206.75 138.597656 L 204.5 148.714844 Z M 212.1875 165.976562 L 210.148438 175.148438 L 202.523438 175.886719 L 204.726562 165.976562 Z M 204.90625 165.171875 L 205.296875 163.417969 L 214.8125 163.417969 C 215.296875 163.417969 215.691406 163.808594 215.691406 164.292969 C 215.691406 164.777344 215.296875 165.171875 214.8125 165.171875 Z M 205.476562 162.609375 L 207.804688 152.152344 L 215.261719 152.152344 L 212.9375 162.609375 Z M 207.980469 151.34375 L 208.371094 149.589844 L 217.925781 149.589844 C 218.410156 149.589844 218.800781 149.984375 218.800781 150.46875 C 218.800781 150.953125 218.410156 151.34375 217.925781 151.34375 Z M 208.550781 148.785156 L 210.769531 138.8125 L 218.132812 139.242188 L 216.011719 148.785156 Z M 110.214844 125.8125 L 102.054688 125.335938 L 99.027344 118.363281 C 102.5625 118.480469 106.628906 118.621094 106.679688 118.621094 C 106.816406 118.621094 106.949219 118.613281 107.078125 118.601562 Z M 110.160156 123.664062 L 107.894531 118.449219 C 108.679688 118.230469 109.382812 117.804688 109.933594 117.230469 L 112.730469 123.664062 Z M 216.054688 163.160156 C 215.746094 162.824219 215.304688 162.609375 214.8125 162.609375 L 213.761719 162.609375 L 216.089844 152.152344 L 217.925781 152.152344 C 218.136719 152.152344 218.339844 152.109375 218.527344 152.035156 Z M 219.136719 149.300781 C 218.832031 148.984375 218.402344 148.785156 217.925781 148.785156 L 216.835938 148.785156 L 218.949219 139.289062 L 221.097656 139.414062 C 221.167969 139.417969 221.238281 139.421875 221.304688 139.421875 C 221.316406 139.421875 221.324219 139.421875 221.335938 139.421875 Z M 125.417969 187.882812 C 125.429688 187.863281 125.445312 187.84375 125.472656 187.808594 C 125.492188 187.777344 125.511719 187.746094 125.535156 187.71875 C 125.550781 187.699219 125.570312 187.679688 125.589844 187.664062 L 125.617188 187.636719 C 125.617188 187.636719 125.636719 187.617188 125.636719 187.617188 C 125.65625 187.597656 125.675781 187.578125 125.699219 187.558594 C 125.722656 187.539062 125.746094 187.527344 125.769531 187.511719 L 125.816406 187.480469 C 125.839844 187.464844 125.867188 187.449219 125.890625 187.433594 C 125.917969 187.421875 125.941406 187.414062 125.96875 187.402344 L 126.027344 187.378906 C 126.054688 187.367188 126.078125 187.359375 126.105469 187.351562 C 126.136719 187.339844 126.171875 187.335938 126.230469 187.324219 C 126.257812 187.320312 126.28125 187.316406 126.3125 187.308594 L 137.265625 186.230469 L 137.746094 186.183594 L 156.335938 184.355469 L 172.039062 182.835938 C 172.605469 182.871094 173.082031 183.308594 173.136719 183.890625 C 173.167969 184.203125 173.074219 184.507812 172.875 184.753906 C 172.675781 184.996094 172.394531 185.148438 172.078125 185.175781 L 139.765625 188.351562 L 139.429688 188.386719 L 136.769531 188.648438 L 136.273438 188.695312 L 135.984375 188.726562 L 135.78125 188.746094 L 127.351562 189.574219 C 127.222656 189.585938 127.109375 189.660156 127.042969 189.773438 L 119.816406 202.265625 C 118.597656 204.375 118.59375 206.890625 119.808594 209 C 121.027344 211.105469 123.207031 212.367188 125.640625 212.367188 L 200.449219 212.367188 C 201.097656 212.367188 201.625 212.894531 201.625 213.542969 C 201.625 214.191406 201.097656 214.722656 200.449219 214.722656 L 125.640625 214.722656 C 122.355469 214.722656 119.410156 213.023438 117.769531 210.175781 C 116.128906 207.328125 116.128906 203.929688 117.773438 201.085938 Z M 131.574219 209 C 131.742188 209.292969 131.933594 209.570312 132.136719 209.828125 L 129.34375 209.828125 C 127.894531 207.054688 127.957031 203.816406 129.535156 201.085938 L 135.1875 191.367188 L 137.917969 191.367188 L 131.578125 202.265625 C 130.359375 204.375 130.355469 206.890625 131.574219 209 Z M 134.609375 190.761719 L 128.839844 200.683594 C 127.078125 203.726562 127.050781 207.355469 128.75 210.425781 L 128.777344 210.476562 C 128.789062 210.5 128.804688 210.523438 128.816406 210.550781 C 128.820312 210.558594 128.828125 210.570312 128.832031 210.578125 C 128.835938 210.585938 128.839844 210.589844 128.84375 210.59375 C 128.9375 210.757812 129.039062 210.917969 129.140625 211.078125 C 129.1875 211.144531 129.230469 211.207031 129.277344 211.273438 C 129.339844 211.367188 129.40625 211.457031 129.472656 211.546875 C 129.476562 211.550781 129.476562 211.554688 129.480469 211.558594 L 125.640625 211.558594 C 123.496094 211.558594 121.578125 210.449219 120.507812 208.59375 C 119.4375 206.738281 119.441406 204.523438 120.511719 202.671875 L 127.636719 190.355469 L 135.28125 189.605469 Z M 205.382812 212.367188 C 206.035156 212.367188 206.5625 212.894531 206.5625 213.542969 C 206.5625 214.191406 206.035156 214.722656 205.382812 214.722656 L 202.042969 214.722656 C 202.285156 214.390625 202.433594 213.984375 202.433594 213.542969 C 202.433594 213.101562 202.285156 212.695312 202.042969 212.367188 Z M 201.597656 218.144531 C 201.617188 218.183594 201.660156 218.289062 201.578125 218.398438 L 199.75 220.957031 L 199.511719 221.289062 L 199.273438 221.617188 L 197.394531 224.242188 L 197.152344 224.585938 L 196.902344 224.929688 L 195.121094 227.417969 C 194.953125 227.65625 194.734375 227.773438 194.519531 227.8125 C 194.378906 227.835938 194.242188 227.832031 194.117188 227.800781 C 194.0625 227.789062 194.007812 227.773438 193.960938 227.753906 C 193.886719 227.726562 193.808594 227.679688 193.738281 227.628906 C 193.492188 227.449219 193.292969 227.140625 193.359375 226.707031 L 193.621094 224.894531 L 193.753906 223.972656 L 193.796875 223.691406 L 193.859375 223.269531 L 193.867188 223.210938 L 193.917969 222.851562 L 194.382812 219.652344 L 194.445312 219.25 L 194.503906 218.847656 L 194.570312 218.367188 C 194.601562 218.160156 194.78125 218.007812 194.984375 218.007812 L 201.378906 218.007812 C 201.515625 218.007812 201.578125 218.101562 201.597656 218.144531 Z M 194.457031 233.449219 C 193.386719 233.449219 192.371094 233.203125 191.464844 232.765625 C 192.394531 232.085938 193.152344 231.207031 193.691406 230.214844 C 193.9375 230.265625 194.195312 230.292969 194.457031 230.292969 C 196.519531 230.292969 198.199219 228.613281 198.199219 226.550781 C 198.199219 225.992188 198.074219 225.464844 197.851562 224.988281 L 199.828125 222.230469 C 200.785156 223.414062 201.355469 224.914062 201.355469 226.550781 C 201.355469 230.355469 198.261719 233.449219 194.457031 233.449219 Z M 188.964844 231.949219 C 187.785156 232.886719 186.296875 233.449219 184.675781 233.449219 C 180.871094 233.449219 177.777344 230.355469 177.777344 226.550781 C 177.777344 223.050781 180.398438 220.152344 183.777344 219.710938 L 183.289062 223.078125 C 181.910156 223.628906 180.933594 224.976562 180.933594 226.550781 C 180.933594 228.613281 182.613281 230.292969 184.675781 230.292969 C 185.671875 230.292969 186.574219 229.898438 187.246094 229.261719 C 187.25 229.261719 187.25 229.257812 187.253906 229.253906 C 187.359375 229.15625 187.460938 229.050781 187.554688 228.9375 C 187.554688 228.933594 187.558594 228.933594 187.558594 228.933594 C 187.664062 228.804688 187.757812 228.667969 187.847656 228.523438 C 187.851562 228.523438 187.851562 228.519531 187.851562 228.515625 C 188.207031 227.945312 188.417969 227.273438 188.417969 226.550781 C 188.417969 225.992188 188.292969 225.464844 188.070312 224.988281 L 190.046875 222.230469 C 190.601562 222.914062 191.027344 223.710938 191.285156 224.574219 C 191.339844 224.761719 191.390625 224.953125 191.429688 225.148438 C 191.496094 225.460938 191.539062 225.78125 191.558594 226.109375 C 191.566406 226.253906 191.574219 226.402344 191.574219 226.550781 C 191.574219 226.699219 191.566406 226.847656 191.558594 226.992188 C 191.539062 227.320312 191.496094 227.640625 191.429688 227.953125 C 191.390625 228.148438 191.339844 228.339844 191.285156 228.527344 C 190.957031 229.625 190.359375 230.613281 189.570312 231.40625 C 189.570312 231.410156 189.566406 231.410156 189.566406 231.410156 C 189.472656 231.507812 189.375 231.597656 189.273438 231.6875 C 189.175781 231.777344 189.070312 231.863281 188.96875 231.945312 C 188.96875 231.945312 188.964844 231.949219 188.964844 231.949219 Z M 184.71875 218.847656 L 184.789062 218.367188 C 184.820312 218.160156 184.996094 218.007812 185.203125 218.007812 L 191.597656 218.007812 C 191.734375 218.007812 191.796875 218.101562 191.816406 218.144531 C 191.835938 218.183594 191.875 218.289062 191.796875 218.398438 L 190.824219 219.757812 L 190.816406 219.769531 L 190.210938 220.617188 L 190.207031 220.621094 L 189.964844 220.957031 L 189.730469 221.289062 L 189.492188 221.617188 L 187.613281 224.242188 L 187.464844 224.453125 L 187.371094 224.585938 L 187.121094 224.929688 L 186.855469 225.300781 L 185.339844 227.417969 C 185.011719 227.878906 184.507812 227.886719 184.179688 227.753906 C 183.847656 227.621094 183.492188 227.265625 183.574219 226.707031 L 184.015625 223.691406 L 184.074219 223.269531 L 184.136719 222.851562 L 184.601562 219.652344 Z M 195.355469 215.527344 L 195.355469 217.203125 L 194.984375 217.203125 C 194.382812 217.203125 193.859375 217.652344 193.773438 218.25 L 193.679688 218.882812 C 193.183594 218.933594 192.699219 219.03125 192.234375 219.171875 L 192.453125 218.871094 C 192.683594 218.546875 192.714844 218.128906 192.535156 217.773438 C 192.351562 217.421875 191.992188 217.203125 191.597656 217.203125 L 191.136719 217.203125 L 191.136719 215.527344 Z M 194.339844 228.636719 C 194.898438 228.636719 195.429688 228.371094 195.777344 227.886719 L 197.285156 225.78125 C 197.355469 226.027344 197.394531 226.285156 197.394531 226.550781 C 197.394531 228.167969 196.074219 229.484375 194.457031 229.484375 C 194.320312 229.484375 194.1875 229.472656 194.054688 229.457031 C 194.164062 229.1875 194.253906 228.914062 194.335938 228.636719 C 194.335938 228.636719 194.339844 228.636719 194.339844 228.636719 Z M 187.28125 227.894531 C 187.195312 228.0625 187.09375 228.222656 186.976562 228.367188 C 186.976562 228.371094 186.972656 228.371094 186.972656 228.375 C 186.433594 229.050781 185.605469 229.484375 184.675781 229.484375 C 183.058594 229.484375 181.742188 228.167969 181.742188 226.550781 C 181.742188 225.492188 182.304688 224.566406 183.148438 224.050781 L 182.777344 226.589844 C 182.65625 227.417969 183.097656 228.1875 183.878906 228.503906 C 184.101562 228.59375 184.332031 228.636719 184.558594 228.636719 C 185.117188 228.636719 185.648438 228.371094 185.996094 227.886719 L 186.757812 226.820312 L 186.761719 226.820312 L 187.164062 226.257812 L 187.503906 225.78125 C 187.535156 225.886719 187.558594 225.996094 187.574219 226.109375 C 187.574219 226.117188 187.578125 226.125 187.578125 226.128906 C 187.597656 226.269531 187.609375 226.40625 187.609375 226.550781 C 187.609375 226.699219 187.597656 226.847656 187.574219 226.992188 C 187.574219 226.992188 187.574219 226.992188 187.574219 226.996094 C 187.523438 227.316406 187.425781 227.617188 187.28125 227.894531 Z M 193.210938 222.101562 C 193.078125 221.914062 192.933594 221.730469 192.78125 221.550781 L 193.421875 220.65625 Z M 186.382812 215.527344 L 190.332031 215.527344 L 190.332031 217.203125 L 186.382812 217.203125 Z M 145.644531 218.144531 C 145.664062 218.183594 145.703125 218.289062 145.625 218.398438 L 143.792969 220.957031 L 143.554688 221.289062 L 143.320312 221.617188 L 141.441406 224.242188 L 140.949219 224.929688 L 139.167969 227.417969 C 138.996094 227.65625 138.78125 227.773438 138.566406 227.8125 C 138.425781 227.835938 138.285156 227.832031 138.160156 227.800781 C 138.105469 227.789062 138.054688 227.773438 138.003906 227.753906 C 137.929688 227.722656 137.855469 227.679688 137.78125 227.628906 C 137.539062 227.449219 137.339844 227.140625 137.402344 226.707031 L 137.667969 224.894531 L 137.800781 223.972656 L 137.839844 223.691406 L 137.902344 223.269531 L 137.910156 223.210938 L 137.964844 222.851562 L 138.429688 219.652344 L 138.546875 218.847656 L 138.617188 218.367188 C 138.644531 218.164062 138.824219 218.007812 139.03125 218.007812 L 145.421875 218.007812 C 145.558594 218.007812 145.621094 218.101562 145.644531 218.144531 Z M 138.503906 233.449219 C 137.429688 233.449219 136.417969 233.203125 135.511719 232.765625 C 136.4375 232.085938 137.195312 231.207031 137.734375 230.214844 C 137.984375 230.265625 138.238281 230.292969 138.503906 230.292969 C 140.566406 230.292969 142.246094 228.613281 142.246094 226.550781 C 142.246094 225.992188 142.117188 225.464844 141.898438 224.988281 L 143.875 222.230469 C 144.828125 223.414062 145.402344 224.914062 145.402344 226.550781 C 145.402344 230.355469 142.304688 233.449219 138.503906 233.449219 Z M 133.011719 231.949219 C 131.832031 232.886719 130.339844 233.449219 128.71875 233.449219 C 124.917969 233.449219 121.820312 230.355469 121.820312 226.550781 C 121.820312 223.050781 124.441406 220.152344 127.824219 219.710938 L 127.332031 223.078125 C 125.957031 223.628906 124.976562 224.976562 124.976562 226.550781 C 124.976562 228.613281 126.65625 230.292969 128.71875 230.292969 C 129.714844 230.292969 130.621094 229.898438 131.289062 229.261719 C 131.292969 229.261719 131.296875 229.257812 131.296875 229.257812 C 131.40625 229.15625 131.507812 229.050781 131.601562 228.9375 C 131.601562 228.9375 131.601562 228.933594 131.601562 228.933594 C 131.707031 228.804688 131.804688 228.667969 131.894531 228.527344 C 131.894531 228.523438 131.894531 228.519531 131.898438 228.519531 C 132.253906 227.945312 132.460938 227.273438 132.460938 226.550781 C 132.460938 225.992188 132.335938 225.464844 132.117188 224.988281 L 134.09375 222.230469 C 134.644531 222.914062 135.070312 223.710938 135.328125 224.574219 C 135.386719 224.761719 135.433594 224.953125 135.476562 225.148438 C 135.539062 225.460938 135.582031 225.78125 135.605469 226.109375 C 135.613281 226.253906 135.621094 226.402344 135.621094 226.550781 C 135.621094 226.699219 135.613281 226.847656 135.605469 226.992188 C 135.582031 227.320312 135.539062 227.640625 135.476562 227.953125 C 135.433594 228.148438 135.386719 228.339844 135.328125 228.527344 C 135 229.625 134.40625 230.613281 133.617188 231.40625 C 133.613281 231.410156 133.613281 231.410156 133.609375 231.410156 C 133.515625 231.507812 133.417969 231.597656 133.320312 231.6875 C 133.21875 231.777344 133.117188 231.863281 133.011719 231.945312 C 133.011719 231.945312 133.011719 231.949219 133.011719 231.949219 Z M 128.765625 218.847656 L 128.835938 218.367188 C 128.863281 218.164062 129.042969 218.007812 129.25 218.007812 L 135.640625 218.007812 C 135.777344 218.007812 135.839844 218.101562 135.859375 218.144531 C 135.882812 218.183594 135.921875 218.289062 135.84375 218.398438 L 134.871094 219.757812 L 134.863281 219.769531 L 134.253906 220.617188 L 134.253906 220.621094 L 134.011719 220.957031 L 133.773438 221.289062 L 133.539062 221.617188 L 131.660156 224.242188 L 131.507812 224.453125 L 131.414062 224.585938 L 131.167969 224.929688 L 130.902344 225.300781 L 130.898438 225.304688 L 129.386719 227.417969 C 129.054688 227.878906 128.554688 227.886719 128.222656 227.753906 C 127.894531 227.621094 127.539062 227.265625 127.621094 226.707031 L 128.058594 223.691406 L 128.121094 223.269531 L 128.179688 222.851562 L 128.648438 219.652344 Z M 139.402344 217.203125 L 139.03125 217.203125 C 138.425781 217.203125 137.90625 217.652344 137.820312 218.25 L 137.726562 218.882812 C 137.230469 218.933594 136.746094 219.03125 136.28125 219.171875 L 136.496094 218.871094 C 136.730469 218.546875 136.761719 218.128906 136.578125 217.773438 C 136.398438 217.421875 136.039062 217.203125 135.640625 217.203125 L 135.183594 217.203125 L 135.183594 215.527344 L 139.402344 215.527344 Z M 138.386719 228.636719 C 138.945312 228.636719 139.476562 228.371094 139.824219 227.886719 L 141.332031 225.78125 C 141.398438 226.027344 141.4375 226.285156 141.4375 226.550781 C 141.4375 228.167969 140.121094 229.484375 138.503906 229.484375 C 138.363281 229.484375 138.230469 229.472656 138.097656 229.457031 C 138.207031 229.1875 138.300781 228.914062 138.378906 228.636719 C 138.382812 228.636719 138.382812 228.636719 138.386719 228.636719 Z M 131.328125 227.894531 C 131.238281 228.0625 131.136719 228.222656 131.023438 228.367188 C 131.019531 228.371094 131.019531 228.371094 131.015625 228.375 C 130.476562 229.050781 129.648438 229.484375 128.71875 229.484375 C 127.101562 229.484375 125.785156 228.167969 125.785156 226.550781 C 125.785156 225.492188 126.351562 224.566406 127.191406 224.050781 L 126.820312 226.589844 C 126.703125 227.417969 127.144531 228.1875 127.921875 228.503906 C 128.148438 228.59375 128.378906 228.636719 128.605469 228.636719 C 129.164062 228.636719 129.695312 228.371094 130.042969 227.886719 L 130.804688 226.820312 L 131.207031 226.257812 L 131.550781 225.78125 C 131.578125 225.886719 131.601562 225.996094 131.617188 226.109375 C 131.621094 226.117188 131.621094 226.121094 131.621094 226.128906 C 131.640625 226.265625 131.65625 226.40625 131.65625 226.550781 C 131.65625 226.699219 131.640625 226.847656 131.617188 226.992188 C 131.617188 226.992188 131.617188 226.996094 131.617188 226.996094 C 131.570312 227.316406 131.46875 227.617188 131.328125 227.894531 Z M 137.257812 222.101562 C 137.121094 221.914062 136.980469 221.730469 136.828125 221.550781 L 137.46875 220.65625 Z M 130.425781 215.527344 L 134.375 215.527344 L 134.375 217.203125 L 130.425781 217.203125 Z M 129.199219 150.269531 L 133.703125 166.472656 L 147.832031 165.875 L 145.871094 150.453125 Z M 134.308594 165.640625 L 130.261719 151.085938 L 145.160156 151.253906 L 146.917969 165.109375 Z M 164.582031 165.171875 L 176.902344 164.652344 L 178.050781 150.808594 L 164.285156 150.65625 Z M 165.371094 164.332031 L 165.109375 151.472656 L 177.175781 151.605469 L 176.15625 163.875 Z M 178.496094 164.585938 L 190.765625 164.066406 L 192.941406 150.976562 L 179.636719 150.828125 Z M 191.992188 151.769531 L 190.078125 163.289062 L 179.375 163.738281 L 180.378906 151.644531 Z M 147.46875 150.472656 L 149.417969 165.808594 L 163.003906 165.238281 L 162.703125 150.640625 Z M 161.910156 151.4375 L 162.179688 164.464844 L 150.121094 164.972656 L 148.382812 151.289062 Z M 161.910156 151.4375 " fill-opacity="1" fill-rule="nonzero"/></g><path stroke-linecap="butt" transform="matrix(0.75, 0, 0, 0.75, 100.902553, 83.902106)" fill="none" stroke-linejoin="miter" d="M 78.885143 15.437818 C 79.989309 16.05761 80.984101 16.859694 81.874726 17.849277 C 82.629935 18.693027 83.338268 19.786777 83.98931 21.130527 C 84.609101 22.469069 84.916393 24.078444 84.916393 25.953444 C 84.916393 28.219069 84.55181 30.265944 83.822643 32.09407 C 83.057018 33.93782 81.984101 35.510736 80.598684 36.807611 C 79.187226 38.146153 77.468476 39.177403 75.437226 39.90657 C 73.374726 40.635737 71.01535 41.00032 68.369517 41.00032 L 53.327849 41.00032 L 53.327849 -1.093433 L 68.369517 -1.093433 C 71.01535 -1.093433 73.197642 -0.770516 74.921601 -0.124683 C 76.640351 0.568026 78.020559 1.432609 79.057018 2.469068 C 80.083059 3.500318 80.807018 4.625318 81.228893 5.849276 C 81.661184 7.109693 81.874726 8.297193 81.874726 9.411776 C 81.874726 10.484693 81.718476 11.406568 81.411184 12.172193 C 81.067434 12.937818 80.702851 13.552402 80.317434 14.010735 C 79.932018 14.505527 79.588268 14.87011 79.280976 15.104485 C 78.973684 15.328443 78.843476 15.437818 78.885143 15.437818 Z M 71.3591 9.411776 C 71.3591 7.916985 70.937225 6.786776 70.098684 6.031568 C 69.218475 5.302401 67.629934 4.937818 65.32785 4.937818 L 65.32785 13.953443 C 67.629934 13.953443 69.218475 13.568027 70.098684 12.802402 C 70.937225 12.073235 71.3591 10.943026 71.3591 9.411776 Z M 65.32785 34.96907 C 66.822642 34.96907 68.067434 34.724278 69.057017 34.229486 C 70.020559 33.724278 70.786184 33.09407 71.3591 32.333653 C 71.926809 31.604486 72.333059 30.797194 72.562226 29.911778 C 72.749726 29.031569 72.843476 28.208653 72.843476 27.443028 C 72.843476 26.724278 72.749726 25.916986 72.562226 25.031569 C 72.333059 24.151361 71.926809 23.328444 71.3591 22.562819 C 70.786184 21.833652 70.020559 21.219069 69.057017 20.724277 C 68.067434 20.229485 66.822642 19.984694 65.32785 19.984694 Z M 94.499727 -1.093433 L 106.499728 -1.093433 L 106.499728 41.00032 L 94.499727 41.00032 Z M 153.708064 16.937819 L 153.708064 31.984695 C 152.708064 33.703445 151.385147 35.21907 149.739314 36.526361 C 149.046606 37.099278 148.244522 37.651362 147.327855 38.182612 C 146.37473 38.724278 145.322647 39.203445 144.171605 39.62532 C 142.989313 40.047195 141.682022 40.370112 140.260147 40.59407 C 138.848688 40.864903 137.301813 41.00032 135.619521 41.00032 C 132.359104 41.00032 129.520563 40.40657 127.109104 39.21907 C 124.661187 38.068028 122.635145 36.536778 121.02577 34.620111 C 119.379937 32.713861 118.155979 30.510736 117.353895 28.015944 C 116.510145 25.568027 116.08827 23.041986 116.08827 20.443027 C 116.08827 17.760735 116.530978 15.135735 117.405978 12.562818 C 118.286187 10.005526 119.609104 7.708651 121.374729 5.682609 C 123.093479 3.651359 125.280979 2.005526 127.921604 0.745109 C 130.562229 -0.478849 133.640355 -1.093433 137.161188 -1.093433 C 139.426813 -1.093433 141.395563 -0.708016 143.083063 0.0576091 C 144.765355 0.864901 146.161189 1.739901 147.270564 2.693026 C 148.572647 3.807609 149.702856 5.052401 150.666397 6.422193 L 146.176814 10.911776 C 145.833064 9.797193 145.317439 8.802401 144.635147 7.922193 C 144.057022 7.156568 143.291397 6.46386 142.338272 5.849276 C 141.37473 5.239901 140.150772 4.937818 138.666397 4.937818 C 137.09348 4.937818 135.734105 5.396151 134.583063 6.312818 C 133.432021 7.229485 132.473688 8.416985 131.708063 9.875318 C 130.942438 11.37011 130.369521 13.052402 129.984104 14.922193 C 129.603896 16.797194 129.411188 18.71386 129.411188 20.666985 C 129.411188 22.474277 129.583063 24.234694 129.926813 25.953444 C 130.239313 27.677403 130.713271 29.208653 131.359104 30.552403 C 132.015354 31.890945 132.838271 32.963861 133.838271 33.765945 C 134.796605 34.568028 135.900771 34.96907 137.161188 34.96907 C 137.932021 34.96907 138.577855 34.896153 139.114313 34.745111 C 139.65598 34.588861 140.119522 34.416986 140.49973 34.229486 C 140.921605 34.03157 141.307022 33.78157 141.650772 33.46907 L 141.650772 22.969069 L 134.119521 22.969069 L 135.619521 16.937819 Z M 153.708064 16.937819 " stroke="#e1aa74" stroke-width="2.153704" stroke-opacity="1" stroke-miterlimit="4"/><g fill="#145da0" fill-opacity="1"><g transform="translate(136.925834, 115.5721)"><g><path d="M 21.8125 -19.609375 C 22.664062 -19.140625 23.429688 -18.519531 24.109375 -17.75 C 24.691406 -17.101562 25.234375 -16.269531 25.734375 -15.25 C 26.203125 -14.21875 26.4375 -12.984375 26.4375 -11.546875 C 26.4375 -9.804688 26.15625 -8.234375 25.59375 -6.828125 C 25.007812 -5.421875 24.191406 -4.21875 23.140625 -3.21875 C 22.046875 -2.1875 20.722656 -1.394531 19.171875 -0.84375 C 17.578125 -0.28125 15.769531 0 13.75 0 L 2.203125 0 L 2.203125 -32.296875 L 13.75 -32.296875 C 15.769531 -32.296875 17.441406 -32.046875 18.765625 -31.546875 C 20.085938 -31.015625 21.144531 -30.351562 21.9375 -29.5625 C 22.738281 -28.769531 23.300781 -27.90625 23.625 -26.96875 C 23.945312 -26 24.109375 -25.085938 24.109375 -24.234375 C 24.109375 -23.410156 23.988281 -22.707031 23.75 -22.125 C 23.488281 -21.53125 23.207031 -21.054688 22.90625 -20.703125 C 22.613281 -20.328125 22.351562 -20.050781 22.125 -19.875 C 21.882812 -19.695312 21.78125 -19.609375 21.8125 -19.609375 Z M 16.03125 -24.234375 C 16.03125 -25.378906 15.707031 -26.242188 15.0625 -26.828125 C 14.394531 -27.390625 13.175781 -27.671875 11.40625 -27.671875 L 11.40625 -20.75 C 13.175781 -20.75 14.394531 -21.046875 15.0625 -21.640625 C 15.707031 -22.191406 16.03125 -23.054688 16.03125 -24.234375 Z M 11.40625 -4.625 C 12.550781 -4.625 13.507812 -4.816406 14.28125 -5.203125 C 15.007812 -5.578125 15.59375 -6.0625 16.03125 -6.65625 C 16.476562 -7.207031 16.789062 -7.820312 16.96875 -8.5 C 17.113281 -9.175781 17.1875 -9.8125 17.1875 -10.40625 C 17.1875 -10.957031 17.113281 -11.570312 16.96875 -12.25 C 16.789062 -12.925781 16.476562 -13.554688 16.03125 -14.140625 C 15.59375 -14.703125 15.007812 -15.171875 14.28125 -15.546875 C 13.507812 -15.929688 12.550781 -16.125 11.40625 -16.125 Z M 11.40625 -4.625 "/></g></g></g><g fill="#145da0" fill-opacity="1"><g transform="translate(168.519613, 115.5721)"><g><path d="M 2.203125 -32.296875 L 11.40625 -32.296875 L 11.40625 0 L 2.203125 0 Z M 2.203125 -32.296875 "/></g></g></g><g fill="#145da0" fill-opacity="1"><g transform="translate(185.969343, 115.5721)"><g><path d="M 30.1875 -18.46875 L 30.1875 -6.921875 C 29.414062 -5.597656 28.398438 -4.4375 27.140625 -3.4375 C 26.609375 -3 25.992188 -2.570312 25.296875 -2.15625 C 24.554688 -1.75 23.75 -1.382812 22.875 -1.0625 C 21.957031 -0.738281 20.957031 -0.488281 19.875 -0.3125 C 18.78125 -0.101562 17.585938 0 16.296875 0 C 13.804688 0 11.632812 -0.453125 9.78125 -1.359375 C 7.90625 -2.242188 6.347656 -3.421875 5.109375 -4.890625 C 3.847656 -6.359375 2.910156 -8.046875 2.296875 -9.953125 C 1.648438 -11.835938 1.328125 -13.78125 1.328125 -15.78125 C 1.328125 -17.832031 1.660156 -19.84375 2.328125 -21.8125 C 3.003906 -23.78125 4.019531 -25.539062 5.375 -27.09375 C 6.695312 -28.65625 8.375 -29.921875 10.40625 -30.890625 C 12.425781 -31.828125 14.789062 -32.296875 17.5 -32.296875 C 19.226562 -32.296875 20.738281 -32.003906 22.03125 -31.421875 C 23.320312 -30.796875 24.394531 -30.117188 25.25 -29.390625 C 26.25 -28.535156 27.113281 -27.582031 27.84375 -26.53125 L 24.40625 -23.09375 C 24.144531 -23.9375 23.75 -24.695312 23.21875 -25.375 C 22.78125 -25.96875 22.191406 -26.5 21.453125 -26.96875 C 20.722656 -27.4375 19.785156 -27.671875 18.640625 -27.671875 C 17.429688 -27.671875 16.390625 -27.316406 15.515625 -26.609375 C 14.628906 -25.910156 13.894531 -25 13.3125 -23.875 C 12.71875 -22.726562 12.273438 -21.4375 11.984375 -20 C 11.691406 -18.5625 11.546875 -17.09375 11.546875 -15.59375 C 11.546875 -14.21875 11.675781 -12.867188 11.9375 -11.546875 C 12.175781 -10.222656 12.546875 -9.046875 13.046875 -8.015625 C 13.546875 -6.992188 14.175781 -6.171875 14.9375 -5.546875 C 15.664062 -4.929688 16.519531 -4.625 17.5 -4.625 C 18.082031 -4.625 18.578125 -4.679688 18.984375 -4.796875 C 19.398438 -4.921875 19.753906 -5.054688 20.046875 -5.203125 C 20.367188 -5.347656 20.664062 -5.535156 20.9375 -5.765625 L 20.9375 -13.828125 L 15.15625 -13.828125 L 16.296875 -18.46875 Z M 30.1875 -18.46875 "/></g></g></g><g fill="#80621d" fill-opacity="0.4"><g transform="translate(238.523311, 245.372907)"><g><path d="M 31.953125 -14.328125 C 31.953125 -12.296875 31.5625 -10.414062 30.78125 -8.6875 C 30 -6.96875 28.976562 -5.476562 27.71875 -4.21875 C 26.46875 -2.96875 24.941406 -1.953125 23.140625 -1.171875 C 21.335938 -0.390625 19.5 0 17.625 0 C 15.582031 0 13.695312 -0.390625 11.96875 -1.171875 C 10.25 -1.953125 8.765625 -2.96875 7.515625 -4.21875 C 6.265625 -5.476562 5.25 -6.96875 4.46875 -8.6875 C 3.6875 -10.414062 3.296875 -12.296875 3.296875 -14.328125 L 3.296875 -145.90625 C 3.296875 -147.78125 3.6875 -149.578125 4.46875 -151.296875 C 5.25 -153.023438 6.265625 -154.554688 7.515625 -155.890625 C 8.765625 -157.222656 10.25 -158.28125 11.96875 -159.0625 C 13.695312 -159.84375 15.582031 -160.234375 17.625 -160.234375 C 19.5 -160.234375 21.335938 -159.84375 23.140625 -159.0625 C 24.941406 -158.28125 26.46875 -157.222656 27.71875 -155.890625 C 28.976562 -154.554688 30 -153.023438 30.78125 -151.296875 C 31.5625 -149.578125 31.953125 -147.78125 31.953125 -145.90625 L 31.953125 -141.203125 L 22.328125 -141.203125 L 22.328125 -145.90625 C 22.328125 -147.15625 21.851562 -148.25 20.90625 -149.1875 C 19.96875 -150.132812 18.875 -150.609375 17.625 -150.609375 C 16.207031 -150.609375 15.066406 -150.132812 14.203125 -149.1875 C 13.347656 -148.25 12.921875 -147.15625 12.921875 -145.90625 L 12.921875 -14.328125 C 12.921875 -12.921875 13.347656 -11.742188 14.203125 -10.796875 C 15.066406 -9.859375 16.207031 -9.390625 17.625 -9.390625 C 18.875 -9.390625 19.96875 -9.859375 20.90625 -10.796875 C 21.851562 -11.742188 22.328125 -12.921875 22.328125 -14.328125 L 22.328125 -19.03125 L 31.953125 -19.03125 Z M 31.953125 -14.328125 "/></g></g></g><g fill="#ffc74c" fill-opacity="1"><g transform="translate(232.625145, 239.474742)"><g><path d="M 31.953125 -14.328125 C 31.953125 -12.296875 31.5625 -10.414062 30.78125 -8.6875 C 30 -6.96875 28.976562 -5.476562 27.71875 -4.21875 C 26.46875 -2.96875 24.941406 -1.953125 23.140625 -1.171875 C 21.335938 -0.390625 19.5 0 17.625 0 C 15.582031 0 13.695312 -0.390625 11.96875 -1.171875 C 10.25 -1.953125 8.765625 -2.96875 7.515625 -4.21875 C 6.265625 -5.476562 5.25 -6.96875 4.46875 -8.6875 C 3.6875 -10.414062 3.296875 -12.296875 3.296875 -14.328125 L 3.296875 -145.90625 C 3.296875 -147.78125 3.6875 -149.578125 4.46875 -151.296875 C 5.25 -153.023438 6.265625 -154.554688 7.515625 -155.890625 C 8.765625 -157.222656 10.25 -158.28125 11.96875 -159.0625 C 13.695312 -159.84375 15.582031 -160.234375 17.625 -160.234375 C 19.5 -160.234375 21.335938 -159.84375 23.140625 -159.0625 C 24.941406 -158.28125 26.46875 -157.222656 27.71875 -155.890625 C 28.976562 -154.554688 30 -153.023438 30.78125 -151.296875 C 31.5625 -149.578125 31.953125 -147.78125 31.953125 -145.90625 L 31.953125 -141.203125 L 22.328125 -141.203125 L 22.328125 -145.90625 C 22.328125 -147.15625 21.851562 -148.25 20.90625 -149.1875 C 19.96875 -150.132812 18.875 -150.609375 17.625 -150.609375 C 16.207031 -150.609375 15.066406 -150.132812 14.203125 -149.1875 C 13.347656 -148.25 12.921875 -147.15625 12.921875 -145.90625 L 12.921875 -14.328125 C 12.921875 -12.921875 13.347656 -11.742188 14.203125 -10.796875 C 15.066406 -9.859375 16.207031 -9.390625 17.625 -9.390625 C 18.875 -9.390625 19.96875 -9.859375 20.90625 -10.796875 C 21.851562 -11.742188 22.328125 -12.921875 22.328125 -14.328125 L 22.328125 -19.03125 L 31.953125 -19.03125 Z M 31.953125 -14.328125 "/></g></g></g><g fill="#80621d" fill-opacity="0.4"><g transform="translate(273.773308, 245.372907)"><g><path d="M 31.015625 0 L 21.375 0 L 18.796875 -39.9375 L 12.21875 -39.9375 L 9.640625 0 L 0 0 L 10.8125 -160.234375 L 20.4375 -160.234375 Z M 18.09375 -49.578125 L 15.5 -88.109375 L 12.921875 -49.578125 Z M 18.09375 -49.578125 "/></g></g></g><g fill="#3876bf" fill-opacity="1"><g transform="translate(267.875143, 239.474742)"><g><path d="M 31.015625 0 L 21.375 0 L 18.796875 -39.9375 L 12.21875 -39.9375 L 9.640625 0 L 0 0 L 10.8125 -160.234375 L 20.4375 -160.234375 Z M 18.09375 -49.578125 L 15.5 -88.109375 L 12.921875 -49.578125 Z M 18.09375 -49.578125 "/></g></g></g><g fill="#80621d" fill-opacity="0.4"><g transform="translate(305.027212, 245.372907)"><g><path d="M 23.5 0 L 14.09375 -40.171875 L 12.921875 -40.171875 L 12.921875 0 L 3.296875 0 L 3.296875 -160.234375 L 17.625 -160.234375 C 19.5 -160.234375 21.335938 -159.878906 23.140625 -159.171875 C 24.941406 -158.472656 26.46875 -157.457031 27.71875 -156.125 C 28.976562 -154.789062 30 -153.257812 30.78125 -151.53125 C 31.5625 -149.8125 31.953125 -148.015625 31.953125 -146.140625 L 31.953125 -54.28125 C 31.953125 -51.457031 31.164062 -48.910156 29.59375 -46.640625 C 28.03125 -44.367188 26.078125 -42.609375 23.734375 -41.359375 L 33.59375 0 Z M 12.921875 -49.578125 L 17.625 -49.578125 C 18.875 -49.578125 19.96875 -50.046875 20.90625 -50.984375 C 21.851562 -51.921875 22.328125 -53.019531 22.328125 -54.28125 L 22.328125 -146.140625 C 22.328125 -147.390625 21.851562 -148.484375 20.90625 -149.421875 C 19.96875 -150.367188 18.875 -150.84375 17.625 -150.84375 L 12.921875 -150.84375 Z M 12.921875 -49.578125 "/></g></g></g><g fill="#ffc74c" fill-opacity="1"><g transform="translate(299.129047, 239.474742)"><g><path d="M 23.5 0 L 14.09375 -40.171875 L 12.921875 -40.171875 L 12.921875 0 L 3.296875 0 L 3.296875 -160.234375 L 17.625 -160.234375 C 19.5 -160.234375 21.335938 -159.878906 23.140625 -159.171875 C 24.941406 -158.472656 26.46875 -157.457031 27.71875 -156.125 C 28.976562 -154.789062 30 -153.257812 30.78125 -151.53125 C 31.5625 -149.8125 31.953125 -148.015625 31.953125 -146.140625 L 31.953125 -54.28125 C 31.953125 -51.457031 31.164062 -48.910156 29.59375 -46.640625 C 28.03125 -44.367188 26.078125 -42.609375 23.734375 -41.359375 L 33.59375 0 Z M 12.921875 -49.578125 L 17.625 -49.578125 C 18.875 -49.578125 19.96875 -50.046875 20.90625 -50.984375 C 21.851562 -51.921875 22.328125 -53.019531 22.328125 -54.28125 L 22.328125 -146.140625 C 22.328125 -147.390625 21.851562 -148.484375 20.90625 -149.421875 C 19.96875 -150.367188 18.875 -150.84375 17.625 -150.84375 L 12.921875 -150.84375 Z M 12.921875 -49.578125 "/></g></g></g><g fill="#80621d" fill-opacity="0.4"><g transform="translate(339.33971, 245.372907)"><g><path d="M 28.671875 -150.84375 L 19.03125 -150.84375 L 19.03125 0 L 9.390625 0 L 9.390625 -150.84375 L 0 -150.84375 L 0 -160.234375 L 28.671875 -160.234375 Z M 28.671875 -150.84375 "/></g></g></g><g fill="#3876bf" fill-opacity="1"><g transform="translate(333.441545, 239.474742)"><g><path d="M 28.671875 -150.84375 L 19.03125 -150.84375 L 19.03125 0 L 9.390625 0 L 9.390625 -150.84375 L 0 -150.84375 L 0 -160.234375 L 28.671875 -160.234375 Z M 28.671875 -150.84375 "/></g></g></g><path stroke-linecap="butt" transform="matrix(0.75, 0, 0, 0.75, 232.625145, 82.624778)" fill="none" stroke-linejoin="miter" d="M 42.937309 189.739892 C 42.937309 192.484684 42.411267 195.021142 41.364392 197.359684 C 40.312309 199.661768 38.942517 201.661768 37.249809 203.354476 C 35.5571 205.015935 33.499808 206.37531 31.077933 207.422185 C 28.656058 208.474268 26.187308 209.00031 23.676891 209.00031 C 20.937308 209.00031 18.395641 208.474268 16.062307 207.422185 C 13.760224 206.37531 11.760224 205.015935 10.067515 203.354476 C 8.406057 201.661768 7.046682 199.661768 5.994598 197.359684 C 4.947723 195.021142 4.421682 192.484684 4.421682 189.739892 L 4.421682 13.000297 C 4.421682 10.463839 4.947723 8.041963 5.994598 5.734672 C 7.046682 3.42738 8.406057 1.385713 10.067515 -0.395537 C 11.760224 -2.202829 13.760224 -3.629912 16.062307 -4.681996 C 18.395641 -5.734079 20.937308 -6.260121 23.676891 -6.260121 C 26.187308 -6.260121 28.656058 -5.734079 31.077933 -4.681996 C 33.499808 -3.629912 35.5571 -2.202829 37.249809 -0.395537 C 38.942517 1.385713 40.312309 3.42738 41.364392 5.734672 C 42.411267 8.041963 42.937309 10.463839 42.937309 13.000297 L 42.937309 19.302381 L 29.984183 19.302381 L 29.984183 13.000297 C 29.984183 11.307589 29.353975 9.83363 28.098766 8.578422 C 26.843558 7.323213 25.3696 6.698213 23.676891 6.698213 C 21.781058 6.698213 20.249808 7.323213 19.083141 8.578422 C 17.947724 9.83363 17.374807 11.307589 17.374807 13.000297 L 17.374807 189.739892 C 17.374807 191.635726 17.947724 193.229476 19.083141 194.510726 C 20.249808 195.765934 21.781058 196.396143 23.676891 196.396143 C 25.3696 196.396143 26.843558 195.765934 28.098766 194.510726 C 29.353975 193.229476 29.984183 191.635726 29.984183 189.739892 L 29.984183 183.437808 L 42.937309 183.437808 Z M 89.010229 209.00031 L 76.051895 209.00031 L 72.598769 155.338848 L 63.755019 155.338848 L 60.296685 209.00031 L 47.343559 209.00031 L 61.87481 -6.260121 L 74.786269 -6.260121 Z M 71.635228 142.380514 L 68.176894 90.646136 L 64.71856 142.380514 Z M 120.874814 209.00031 L 108.270647 155.031556 L 106.692522 155.031556 L 106.692522 209.00031 L 93.739396 209.00031 L 93.739396 -6.260121 L 112.994605 -6.260121 C 115.505022 -6.260121 117.973772 -5.775746 120.395647 -4.812204 C 122.817523 -3.879912 124.874814 -2.525746 126.567523 -0.744495 C 128.255023 1.036755 129.630023 3.094047 130.676898 5.42738 C 131.728982 7.734672 132.255023 10.156547 132.255023 12.693005 L 132.255023 136.07843 C 132.255023 139.875305 131.20294 143.302389 129.103981 146.364889 C 127.005023 149.401348 124.364398 151.765931 121.182106 153.45864 L 134.442523 209.00031 Z M 106.692522 142.380514 L 112.994605 142.380514 C 114.687314 142.380514 116.161272 141.755514 117.416481 140.500306 C 118.671689 139.245097 119.301897 137.771139 119.301897 136.07843 L 119.301897 12.693005 C 119.301897 11.000297 118.671689 9.526339 117.416481 8.27113 C 116.161272 6.98988 114.687314 6.349255 112.994605 6.349255 L 106.692522 6.349255 Z M 173.911276 6.349255 L 160.95815 6.349255 L 160.95815 209.00031 L 147.999816 209.00031 L 147.999816 6.349255 L 135.395648 6.349255 L 135.395648 -6.260121 L 173.911276 -6.260121 Z M 173.911276 6.349255 " stroke="#3876bf" stroke-width="1.7928" stroke-opacity="1" stroke-miterlimit="4"/></svg>